<svg xmlns="http://www.w3.org/2000/svg"
 xmlns:xlink="http://www.w3.org/1999/xlink"
 width="20px" height="19px"  viewBox="0 0 20 19">
<path fill-rule="evenodd"  fill="#1baba1"
 d="M17.837341,7.4038086 C17.732544,6.8898926 17.575012,6.383545 17.37091,5.9001465 C17.170471,5.425049 16.921997,4.9682617 16.633179,4.5410156 C16.347046,4.1171875 16.018494,3.7192383 15.65686,3.3579102 C15.295044,2.9953613 14.89679,2.6669922 14.473267,2.3811035 C14.0460205,2.0913086 13.588257,1.84375 13.114258,1.6430664 C12.630981,1.4387207 12.125061,1.28125 11.610718,1.1767578 C11.083801,1.0683594 10.54187,1.0141602 10.000122,1.0141602 C9.457703,1.0141602 8.91571,1.0683594 8.38855,1.1767578 C7.874695,1.28125 7.3685913,1.4387207 6.8853455,1.6430664 C6.4112854,1.84375 5.953705,2.0913086 5.526001,2.3811035 C5.1025696,2.6669922 4.704315,2.9953613 4.3424683,3.3579102 C3.980835,3.7192383 3.6524963,4.1171875 3.366394,4.5410156 C3.0775146,4.9682617 2.8291016,5.425049 2.6287231,5.9001465 C2.424347,6.383545 2.2671814,6.8898926 2.1618958,7.4038086 C2.0542297,7.9296875 1.9994812,8.472412 1.9994812,9.013428 C1.9994812,9.556641 2.0542297,10.099121 2.1618958,10.625244 C2.2671814,11.139648 2.424347,11.645752 2.6287231,12.128662 C2.8291016,12.603516 3.0775146,13.061768 3.366394,13.488037 C3.6524963,13.912109 3.980835,14.30957 4.3424683,14.671631 C4.704315,15.033691 5.1025696,15.361572 5.526001,15.647705 C5.953705,15.936768 6.4112854,16.185059 6.8853455,16.385498 C7.3685913,16.590088 7.874695,16.746582 8.38855,16.851562 C8.91571,16.960938 9.457703,17.015137 10.000122,17.015137 C10.54187,17.015137 11.083801,16.960938 11.610718,16.851562 C12.125061,16.746582 12.630981,16.590088 13.114258,16.385498 C13.588257,16.185059 14.0460205,15.936768 14.473267,15.647705 C14.89679,15.361572 15.295044,15.033691 15.65686,14.671631 C16.018494,14.30957 16.347046,13.912109 16.633179,13.488037 C16.921997,13.061768 17.170471,12.603516 17.37091,12.128662 C17.575012,11.645752 17.732544,11.139648 17.837341,10.625244 C17.945496,10.099121 18.000122,9.556641 18.000122,9.013428 C18.000122,8.472412 17.945496,7.9296875 17.837341,7.4038086 ZM16.829956,8.946289 C16.731201,8.924561 14.418884,8.427246 12.071228,8.722412 C12.023193,8.605469 11.974548,8.488037 11.923889,8.369141 C11.781738,8.035645 11.628845,7.7043457 11.469849,7.378662 C14.167908,6.2770996 15.263489,4.692871 15.276367,4.6743164 C16.23468,5.8378906 16.814331,7.324951 16.829956,8.946289 ZM14.512451,3.886963 C14.4956665,3.91333 13.522522,5.3947754 10.9435425,6.36084 C9.775757,4.2148438 8.492554,2.5097656 8.3897705,2.375 C8.906311,2.2495117 9.444824,2.1816406 10.000122,2.1816406 C11.729858,2.1816406 13.308655,2.8269043 14.512451,3.886963 ZM8.363525,2.380371 C8.363281,2.3811035 8.362305,2.3813477 8.362305,2.3813477 C8.362305,2.3813477 8.35437,2.383789 8.341797,2.3862305 C8.348755,2.383789 8.356384,2.3825684 8.363525,2.380371 ZM7.084778,2.835205 C7.175537,2.956543 8.439087,4.67041 9.621826,6.772217 C6.3411865,7.6433105 3.4940796,7.609619 3.3137512,7.605713 C3.7576904,5.48999 5.1792297,3.7351074 7.084778,2.835205 ZM3.1676636,9.013428 C3.1676636,8.940674 3.170807,8.869385 3.1733704,8.797852 C3.2937317,8.800781 6.6698303,8.877197 10.187561,7.824951 C10.383545,8.208008 10.570557,8.597168 10.741943,8.98584 C10.651489,9.011475 10.562073,9.038818 10.472595,9.067383 C6.7855225,10.2595215 4.915436,13.577148 4.915436,13.577148 C4.915436,13.577148 4.917633,13.578857 4.91803,13.580811 C3.8300781,12.369629 3.1676636,10.768555 3.1676636,9.013428 ZM10.000122,15.84668 C8.346191,15.84668 6.829773,15.259033 5.647766,14.28125 C5.737793,14.3532715 5.800659,14.400879 5.800659,14.400879 C5.800659,14.400879 7.1104126,11.543945 11.162598,10.132568 C11.17749,10.126953 11.192627,10.122803 11.207764,10.118408 C12.169189,12.616455 12.566223,14.708496 12.667358,15.305908 C11.847717,15.654053 10.946167,15.84668 10.000122,15.84668 ZM13.817688,14.6813965 C13.748291,14.268311 13.384155,12.263672 12.487793,9.80127 C14.6935425,9.448486 16.604736,10.05249 16.745667,10.099121 C16.44165,12.002686 15.351868,13.645508 13.817688,14.6813965 Z"/>
</svg>