<svg xmlns="http://www.w3.org/2000/svg"
 xmlns:xlink="http://www.w3.org/1999/xlink"
 width="11px" height="20px"  viewBox="0 0 11 20">
<path fill-rule="evenodd"  fill="#1baba1"
 d="M8.993164,2.0141602 C8.993164,2.9367676 8.993164,4.5895996 8.993164,4.5895996 C8.993164,4.5895996 7.094696,4.400879 6.6192017,5.1279297 C6.359314,5.525635 6.5135193,6.6904297 6.4905396,7.526367 C7.3193665,7.526367 8.180176,7.526367 9.00882,7.526367 C8.795837,8.504395 8.643463,9.16626 8.486877,10.013184 C7.7697144,10.013184 6.4765015,10.013184 6.4765015,10.013184 C6.4765015,10.013184 6.4765015,18.01587 6.4765015,18.01587 C6.4765015,18.01587 4.1033936,18.01587 2.9878845,18.01587 C2.988556,15.548584 2.9873047,12.67041 2.9878845,10.044678 C2.4460144,10.044678 2.045166,10.044678 1.503479,10.044678 C1.503479,9.121582 1.503479,8.449219 1.503479,7.526367 C2.0291443,7.526367 2.4454346,7.526367 2.971466,7.526367 C3.046814,5.6850586 3.0750427,3.8613281 3.9895325,2.9328613 C5.0174866,1.8884277 5.997772,2.0141602 8.993164,2.0141602 Z"/>
</svg>