<svg xmlns="http://www.w3.org/2000/svg"
 xmlns:xlink="http://www.w3.org/1999/xlink"
 width="19px" height="17px"  viewBox="0 0 19 17">
<path fill-rule="evenodd"  fill="#1baba1"
 d="M15.499756,4.7163086 C15.499756,4.7163086 15.499756,7.156006 15.499756,7.156006 C15.499756,7.156006 14.499756,7.156006 14.499756,7.156006 C14.499756,7.156006 14.499756,4.7163086 14.499756,4.7163086 C14.499756,4.7163086 11.999786,4.7163086 11.999786,4.7163086 C11.999786,4.7163086 11.999786,3.7182617 11.999786,3.7182617 C11.999786,3.7182617 14.499756,3.7182617 14.499756,3.7182617 C14.499756,3.7182617 14.499756,1.2788086 14.499756,1.2788086 C14.499756,1.2788086 15.499756,1.2788086 15.499756,1.2788086 C15.499756,1.2788086 15.499756,3.7182617 15.499756,3.7182617 C15.499756,3.7182617 17.999725,3.7182617 17.999725,3.7182617 C17.999725,3.7182617 17.999725,4.7163086 17.999725,4.7163086 C17.999725,4.7163086 15.499756,4.7163086 15.499756,4.7163086 ZM8.585236,2.2456055 C9.472534,2.7363281 9.992493,3.5339355 9.992493,4.576416 C9.992493,5.4523926 9.451477,6.142578 8.753662,6.678467 C8.073029,7.2006836 7.943695,7.4196777 7.943695,7.864258 C7.943695,8.242432 8.673157,8.887939 9.054443,9.15332 C10.169189,9.927734 10.498779,10.64624 10.498779,11.846436 C10.498779,13.343262 9.054443,15.015869 6.383026,15.015869 C4.039276,15.015869 1.9998474,13.894775 1.9998474,12.397949 C1.9998474,10.877441 3.8660889,9.410889 6.209259,9.410889 C6.4646606,9.410889 6.698578,9.399902 6.940735,9.399902 C6.6199036,9.093506 6.3664246,8.712891 6.3664246,8.248779 C6.3664246,7.9750977 6.4558716,7.6987305 6.5803223,7.4641113 C6.453003,7.4733887 6.32312,7.4521484 6.189331,7.4521484 C4.264435,7.4521484 2.974884,6.0612793 2.974884,4.3950195 C2.974884,2.7641602 4.7556763,1.2626953 6.647766,1.2626953 C7.702423,1.2626953 10.867584,1.2626953 10.867584,1.2626953 C10.867584,1.2626953 9.923157,2.2456055 9.923157,2.2456055 C9.923157,2.2456055 8.585236,2.2456055 8.585236,2.2456055 ZM6.6555786,9.79834 C5.0359497,9.781494 3.5847473,10.768311 3.5847473,11.953857 C3.5847473,13.16333 4.7546997,14.04834 6.3743286,14.04834 C8.651154,14.04834 9.44516,13.225586 9.44516,12.016113 C9.44516,11.870117 9.426575,11.727051 9.39328,11.588135 C9.2152405,10.903564 8.584778,10.564697 7.7052917,9.964355 C7.3855286,9.862793 7.0335083,9.803223 6.6555786,9.79834 ZM8.475372,4.595215 C8.287323,3.1933594 7.2072754,2.067871 6.119995,2.036621 C5.0329895,2.005127 4.304016,3.0773926 4.4920654,4.4797363 C4.679474,5.882324 5.712677,7.045166 6.800049,7.07666 C7.8864746,7.1086426 8.662872,5.9975586 8.475372,4.595215 Z"/>
</svg>