<svg xmlns="http://www.w3.org/2000/svg"
 xmlns:xlink="http://www.w3.org/1999/xlink"
 width="19px" height="19px"  viewBox="0 0 19 19">
<path fill-rule="evenodd"  fill="#1baba1"
 d="M15.999725,17.01416 C15.999725,17.01416 3.9998474,17.01416 3.9998474,17.01416 C2.8952026,17.01416 1.9998779,16.11914 1.9998779,15.014404 C1.9998779,15.014404 1.9998779,3.0148926 1.9998779,3.0148926 C1.9998779,1.9094238 2.8952026,1.0141602 3.9998474,1.0141602 C3.9998474,1.0141602 15.999725,1.0141602 15.999725,1.0141602 C17.104462,1.0141602 17.999878,1.9094238 17.999878,3.0148926 C17.999878,3.0148926 17.999878,15.014404 17.999878,15.014404 C17.999878,16.11914 17.104462,17.01416 15.999725,17.01416 ZM9.999878,5.9140625 C8.752563,5.9140625 7.680359,6.652832 7.1883545,7.7143555 C7.1883545,7.7143555 7.185608,7.7143555 7.185608,7.7143555 C7.1804504,7.725586 7.1769104,7.7373047 7.171875,7.748535 C7.1424866,7.8137207 7.1165466,7.88208 7.0915527,7.949707 C7.079651,7.9819336 7.066864,8.013428 7.0559998,8.046631 C7.0331116,8.116699 7.0143127,8.187744 6.9964905,8.259033 C6.987976,8.29248 6.9780884,8.324951 6.970642,8.359131 C6.954315,8.435059 6.942993,8.511719 6.9324036,8.589111 C6.928009,8.620361 6.921509,8.651123 6.918091,8.683105 C6.906555,8.791748 6.899872,8.902344 6.899872,9.01416 C6.899872,10.7265625 8.287659,12.114746 9.999878,12.114746 C11.711914,12.114746 13.0997925,10.7265625 13.0997925,9.01416 C13.0997925,8.902344 13.093231,8.791748 13.081482,8.683105 C13.0781555,8.651123 13.071655,8.620361 13.067291,8.589111 C13.05661,8.511719 13.045258,8.435059 13.028931,8.359131 C13.021698,8.324951 13.011688,8.29248 13.003204,8.259033 C12.98526,8.187744 12.966492,8.116699 12.943695,8.046631 C12.9328,8.013428 12.920044,7.9819336 12.908112,7.949707 C12.88324,7.88208 12.857086,7.8137207 12.827728,7.748535 C12.822754,7.7373047 12.819244,7.725586 12.814087,7.7143555 C12.814087,7.7143555 12.811218,7.7143555 12.811218,7.7143555 C12.319305,6.652832 11.247009,5.9140625 9.999878,5.9140625 ZM16.19983,3.614502 C16.19983,3.1726074 15.841705,2.8146973 15.399872,2.8146973 C15.399872,2.8146973 13.799896,2.8146973 13.799896,2.8146973 C13.357971,2.8146973 12.999756,3.1726074 12.999756,3.614502 C12.999756,3.614502 12.999756,5.2145996 12.999756,5.2145996 C12.999756,5.656494 13.357971,6.01416 13.799896,6.01416 C13.799896,6.01416 15.399872,6.01416 15.399872,6.01416 C15.841705,6.01416 16.19983,5.656494 16.19983,5.2145996 C16.19983,5.2145996 16.19983,3.614502 16.19983,3.614502 ZM16.19983,7.7143555 C16.19983,7.7143555 14.725159,7.7143555 14.725159,7.7143555 C14.838745,8.128662 14.899872,8.563965 14.899872,9.01416 C14.899872,11.720459 12.706024,13.914307 9.999878,13.914307 C7.29364,13.914307 5.099823,11.720459 5.099823,9.01416 C5.099823,8.563965 5.160858,8.128662 5.2746277,7.7143555 C5.2746277,7.7143555 3.7997742,7.7143555 3.7997742,7.7143555 C3.7997742,7.7143555 3.7997742,14.414551 3.7997742,14.414551 C3.7997742,14.856201 4.157959,15.2146 4.5997925,15.2146 C4.5997925,15.2146 15.399872,15.2146 15.399872,15.2146 C15.841705,15.2146 16.19983,14.856201 16.19983,14.414551 C16.19983,14.414551 16.19983,7.7143555 16.19983,7.7143555 Z"/>
</svg>