<svg xmlns="http://www.w3.org/2000/svg"
 xmlns:xlink="http://www.w3.org/1999/xlink"
 width="15px" height="20px"  viewBox="0 0 15 20">
<path fill-rule="evenodd"  fill="#1baba1"
 d="M6.8441467,12.423584 C6.713318,12.944092 6.581787,13.489502 6.445404,14.023926 C6.310852,14.549805 6.1925964,15.083252 5.996887,15.56665 C5.672455,16.367676 5.260376,17.14209 4.719635,17.767578 C4.360504,18.184814 4.436981,18.01831 4.3287354,17.99585 C4.246155,17.97876 4.238983,17.898193 4.22287,17.780518 C4.134857,17.144531 4.194824,16.408691 4.227539,15.6936035 C4.26474,14.878906 4.4361267,14.200439 4.595093,13.523926 C4.897888,12.233643 5.1866455,10.969971 5.492218,9.672119 C5.5126343,9.585205 5.5672607,9.442627 5.548401,9.394043 C5.409912,9.032959 5.319977,8.7092285 5.2805176,8.330811 C5.2349243,7.89624 5.2698364,7.4902344 5.367584,7.116211 C5.5401917,6.455078 5.9380493,5.8686523 6.551361,5.6550293 C6.94104,5.5197754 7.3731384,5.5810547 7.635315,5.737793 C7.9055786,5.8986816 8.09079,6.154297 8.177368,6.515381 C8.269592,6.9003906 8.201599,7.3598633 8.127411,7.697998 C7.9605103,8.458984 7.7413635,9.03125 7.54187,9.766357 C7.4429626,10.131348 7.331299,10.505127 7.4234924,10.89917 C7.508484,11.259766 7.6964417,11.509033 7.953186,11.6953125 C8.218964,11.888916 8.533966,11.995605 8.968567,11.980225 C9.735779,11.952881 10.269165,11.462891 10.6258545,11.000244 C11.195862,10.259766 11.541382,9.260742 11.672424,8.071289 C11.714478,7.6884766 11.745453,7.2473145 11.715881,6.8125 C11.661346,6.010254 11.410339,5.36499 11.011902,4.864258 C10.632904,4.3881836 10.09552,4.008789 9.442047,3.7956543 C8.793823,3.583496 7.8966064,3.5141602 7.0995483,3.6501465 C5.6513977,3.8984375 4.629822,4.7214355 4.028137,5.857422 C3.7130432,6.452881 3.5048523,7.137207 3.5048523,7.9890137 C3.5048523,8.645264 3.6669922,9.154541 3.9285889,9.551514 C4.0115356,9.677002 4.1336975,9.780762 4.215149,9.924561 C4.330536,10.128174 4.1973267,10.431885 4.1402893,10.651855 C4.0716248,10.917969 4.064392,11.284912 3.7540588,11.29126 C3.6256714,11.293213 3.464325,11.199219 3.3554077,11.13916 C2.5401306,10.688232 2.0445862,9.868164 1.8415527,8.805664 C1.7180481,8.159424 1.7184448,7.4052734 1.8415527,6.7805176 C1.9604797,6.176758 2.1820068,5.6203613 2.427124,5.1679688 C2.9360962,4.2285156 3.6813965,3.4780273 4.5888977,2.9416504 C5.286621,2.5290527 6.073578,2.239502 7.0309753,2.1003418 C7.348816,2.053955 7.6774597,2.0351562 8.034058,2.0180664 C9.076508,1.9689941 10.024475,2.2053223 10.737793,2.524414 C11.491119,2.861084 12.092041,3.3093262 12.600525,3.864502 C13.123901,4.437256 13.50528,5.102295 13.746948,5.933838 C13.872742,6.3657227 13.995361,6.8291016 13.995361,7.363037 C13.995361,7.898926 13.88208,8.371338 13.8029175,8.843262 C13.506714,10.61084 12.666046,12.055908 11.404419,12.87915 C11.098572,13.078857 10.728363,13.261963 10.307983,13.384766 C9.891144,13.505615 9.415649,13.597168 8.906189,13.561279 C8.411499,13.527344 8.00705,13.393799 7.6665955,13.201416 C7.328888,13.010498 7.045166,12.776855 6.8441467,12.423584 Z"/>
</svg>