<svg xmlns="http://www.w3.org/2000/svg"
 xmlns:xlink="http://www.w3.org/1999/xlink"
 width="13px" height="19px"  viewBox="0 0 13 19">
<path fill-rule="evenodd"  fill="#1baba1"
 d="M11.008789,16.144775 C10.328613,16.465576 9.712036,16.692139 9.160278,16.82251 C8.607971,16.952637 8.011475,17.01709 7.3704224,17.01709 C6.641968,17.01709 6.2125244,16.925293 5.6531982,16.741455 C5.093872,16.555908 4.616394,16.291504 4.222046,15.951172 C3.8256836,15.608154 3.5528564,15.243164 3.399292,14.859375 C3.2468262,14.473633 3.1705322,13.915527 3.1705322,13.182373 C3.1705322,13.182373 3.1705322,7.5683594 3.1705322,7.5683594 C3.1705322,7.5683594 1.007019,7.5683594 1.007019,7.5683594 C1.007019,7.5683594 1.007019,5.3015137 1.007019,5.3015137 C1.6325073,5.0976562 2.3579102,4.8044434 2.8027954,4.4226074 C3.2508545,4.0407715 3.6080933,3.583252 3.8778687,3.0471191 C4.1483154,2.5141602 4.3344727,1.8342285 4.435791,1.0080566 C4.435791,1.0080566 6.701233,1.0080566 6.701233,1.0080566 C6.701233,1.0080566 6.701233,4.711426 6.701233,4.711426 C6.701233,4.711426 10.38324,4.711426 10.38324,4.711426 C10.38324,4.711426 10.38324,7.5683594 10.38324,7.5683594 C10.38324,7.5683594 6.701233,7.5683594 6.701233,7.5683594 C6.701233,7.5683594 6.701233,11.67334 6.701233,11.67334 C6.701233,12.602295 6.689087,13.137451 6.7869263,13.399902 C6.8842163,13.661865 7.1280518,13.934082 7.393982,14.091553 C7.746521,14.303223 8.148499,14.410645 8.602478,14.410645 C9.40918,14.410645 10.210754,14.14624 11.008789,13.619873 C11.008789,13.619873 11.008789,16.144775 11.008789,16.144775 Z"/>
</svg>