<svg xmlns="http://www.w3.org/2000/svg"
 xmlns:xlink="http://www.w3.org/1999/xlink"
 width="19px" height="16px"  viewBox="0 0 19 16">
<path fill-rule="evenodd"  fill="#1baba1"
 d="M12.882721,1.5148926 C14.154175,1.4931641 14.830902,1.9558105 15.477295,2.5449219 C16.02594,2.4978027 16.739014,2.1914062 17.158997,1.9785156 C17.295105,1.9035645 17.431274,1.8291016 17.567383,1.7546387 C17.327515,2.402588 17.002228,2.9101562 16.50232,3.2954102 C16.391388,3.3813477 16.281158,3.4968262 16.141998,3.5510254 C16.141998,3.553955 16.141998,3.5566406 16.141998,3.558838 C16.85431,3.5517578 17.441864,3.230713 17.999847,3.0563965 C17.999847,3.058838 17.999847,3.0612793 17.999847,3.0639648 C17.706787,3.5302734 17.309967,4.0026855 16.886627,4.3415527 C16.715942,4.477295 16.544922,4.612793 16.374237,4.748047 C16.383575,5.503418 16.363068,6.2226562 16.222107,6.8564453 C15.402252,10.541504 13.230164,13.04248 9.791687,14.113281 C8.556854,14.498779 6.5615845,14.657471 5.147003,14.30542 C4.445465,14.131592 3.811676,13.934814 3.217041,13.675049 C2.8867798,13.530273 2.5807495,13.374512 2.2881775,13.195801 C2.192047,13.136963 2.0959167,13.078857 1.9998779,13.02002 C2.3188782,13.029541 2.6922302,13.11792 3.0489197,13.059814 C3.371643,13.008301 3.6880798,13.021973 3.9857178,12.956299 C4.7283325,12.793701 5.3876038,12.578125 5.955719,12.245605 C6.2310486,12.084961 6.649048,11.895752 6.8447266,11.66333 C6.4758606,11.669434 6.1416016,11.583984 5.867676,11.487305 C4.8058777,11.112793 4.187683,10.422852 3.7856445,9.387939 C4.1073914,9.422607 5.0342712,9.506836 5.251129,9.323975 C4.8460083,9.30127 4.4564514,9.066895 4.1779785,8.892578 C3.3238525,8.358154 2.6271973,7.4609375 2.6324463,6.0820312 C2.7445068,6.1347656 2.856659,6.1887207 2.968811,6.241455 C3.1832886,6.3322754 3.4014893,6.380615 3.6575623,6.4335938 C3.7655945,6.4555664 3.9816895,6.519287 4.1058655,6.4726562 C4.1006165,6.4726562 4.095276,6.4726562 4.0898438,6.4726562 C3.9246826,6.281006 3.655365,6.152588 3.4893188,5.946533 C2.9412537,5.2648926 2.4277954,4.216797 2.7526245,2.9682617 C2.835022,2.6516113 2.9657593,2.3718262 3.104889,2.1137695 C3.1102295,2.116211 3.1156616,2.119629 3.1209106,2.1220703 C3.1846313,2.255127 3.3269958,2.3537598 3.4172363,2.4648438 C3.6971436,2.8122559 4.0423584,3.1242676 4.394165,3.3989258 C5.592926,4.336426 6.6724854,4.913086 8.4062805,5.3395996 C8.846008,5.447754 9.354431,5.5300293 9.8797,5.53125 C9.732178,5.1015625 9.779572,4.4057617 9.895721,3.9904785 C10.187836,2.944336 10.822601,2.1901855 11.753662,1.7868652 C11.976257,1.6901855 12.2230835,1.619873 12.482269,1.5634766 C12.615692,1.5471191 12.749298,1.53125 12.882721,1.5148926 Z"/>
</svg>