<svg xmlns="http://www.w3.org/2000/svg"
 xmlns:xlink="http://www.w3.org/1999/xlink"
 width="19px" height="14px"  viewBox="0 0 19 14">
<path fill-rule="evenodd"  fill="#1baba1"
 d="M15.537262,1.5222168 C15.537262,1.5222168 10.312256,1.5175781 10.312256,1.5175781 C10.312256,1.5175781 4.8828125,1.5222168 4.8828125,1.5222168 C3.5246887,1.5222168 1.9994812,2.428711 1.9994812,3.7578125 C1.9994812,3.7578125 1.9994812,10.376465 1.9994812,10.376465 C1.9994812,11.705566 3.5246887,12.516602 4.8828125,12.516602 C4.8828125,12.516602 10.41507,12.516602 10.41507,12.516602 C10.41507,12.516602 15.537262,12.516602 15.537262,12.516602 C16.895386,12.516602 17.996216,11.705566 17.996216,10.376465 C17.996216,10.376465 17.996216,3.7578125 17.996216,3.7578125 C17.996216,2.428711 16.895386,1.5222168 15.537262,1.5222168 ZM8.963776,9.56543 C8.963776,9.56543 8.93222,4.5253906 8.93222,4.5253906 C8.93222,4.5253906 12.439728,7.0671387 12.439728,7.0671387 C12.439728,7.0671387 8.963776,9.56543 8.963776,9.56543 Z"/>
</svg>