<?xml version="1.0" encoding="utf-8"?><!DOCTYPE svg PUBLIC "-//W3C//DTD SVG 1.1//EN" "http://www.w3.org/Graphics/SVG/1.1/DTD/svg11.dtd"><svg viewBox="0 0 510 510" xmlns="http://www.w3.org/2000/svg" xmlns:xlink="http://www.w3.org/1999/xlink"><style>:root>svg{display:none}:root>svg:target{display:block}</style><svg viewBox="0 0 12 12" id="LinkedIn" xmlns="http://www.w3.org/2000/svg"><path d="M11 0a1 1 0 01.993.883L12 1v10a1 1 0 01-.883.993L11 12H1a1 1 0 01-.993-.883L0 11V1A1 1 0 01.883.007L1 0h10zm0 1H1v10h10V1zM7.742 4.63c1.502 0 1.78.988 1.78 2.273L9.52 9.52H8.04L8.037 7c-.01-.51-.098-1.065-.769-1.065-.723 0-.872.53-.888 1.109L6.378 9.52H4.897V4.75h1.422v.65h.02a1.56 1.56 0 011.403-.771zm-3.776.119V9.52H2.482V4.749h1.484zm-.741-2.372a.86.86 0 110 1.72.86.86 0 010-1.72z"/></svg><svg viewBox="0 0 510 510" id="facebook" xmlns="http://www.w3.org/2000/svg"><path d="M459 0H51C22.95 0 0 22.95 0 51v408c0 28.05 22.95 51 51 51h408c28.05 0 51-22.95 51-51V51c0-28.05-22.95-51-51-51zm-25.5 51v76.5h-51c-15.3 0-25.5 10.2-25.5 25.5v51h76.5v76.5H357V459h-76.5V280.5h-51V204h51v-63.75C280.5 91.8 321.3 51 369.75 51h63.75z"/></svg><svg viewBox="0 0 438.536 438.536" id="instagram" xmlns="http://www.w3.org/2000/svg"><path d="M421.981 16.562C410.941 5.519 397.711 0 382.298 0H56.248C40.83 0 27.604 5.521 16.561 16.562 5.52 27.6.001 40.828.001 56.243V382.29c0 15.413 5.518 28.644 16.56 39.683 11.043 11.04 24.272 16.563 39.687 16.563h326.046c15.41 0 28.644-5.523 39.684-16.563 11.043-11.039 16.557-24.27 16.557-39.683V56.243c-.001-15.418-5.514-28.639-16.554-39.681zM157.462 158.025c17.224-16.652 37.924-24.982 62.097-24.982 24.36 0 45.153 8.33 62.381 24.982 17.228 16.655 25.837 36.785 25.837 60.386 0 23.598-8.609 43.729-25.837 60.379-17.228 16.659-38.014 24.988-62.381 24.988-24.172 0-44.87-8.336-62.097-24.988-17.228-16.652-25.841-36.781-25.841-60.379 0-23.601 8.613-43.73 25.841-60.386zm231.403 212.564c0 4.945-1.718 9.083-5.141 12.416-3.433 3.33-7.519 4.996-12.282 4.996h-305.2c-4.948 0-9.091-1.666-12.419-4.996-3.333-3.326-4.998-7.471-4.998-12.416V185.575H89.08c-3.805 11.993-5.708 24.462-5.708 37.402 0 36.553 13.322 67.715 39.969 93.511 26.65 25.786 58.721 38.685 96.217 38.685 24.744 0 47.583-5.903 68.527-17.703 20.937-11.807 37.486-27.839 49.676-48.112 12.183-20.272 18.274-42.4 18.274-66.38 0-12.94-1.91-25.406-5.715-37.402h38.547V370.59h-.002zm0-254.963c0 5.52-1.903 10.184-5.716 13.99-3.805 3.809-8.466 5.711-13.989 5.711h-49.676c-5.517 0-10.185-1.903-13.99-5.711-3.806-3.806-5.708-8.47-5.708-13.99V68.522c0-5.33 1.902-9.945 5.708-13.848 3.806-3.901 8.474-5.854 13.99-5.854h49.676c5.523 0 10.185 1.952 13.989 5.854 3.812 3.903 5.716 8.518 5.716 13.848v47.104z"/></svg><svg viewBox="0 0 430.114 430.114" id="location" xmlns="http://www.w3.org/2000/svg"><path d="M356.208 107.051c-1.531-5.738-4.64-11.852-6.94-17.205C321.746 23.704 261.611 0 213.055 0 148.054 0 76.463 43.586 66.905 133.427v18.355c0 .766.264 7.647.639 11.089 5.358 42.816 39.143 88.32 64.375 131.136 27.146 45.873 55.314 90.999 83.221 136.106 17.208-29.436 34.354-59.259 51.17-87.933 4.583-8.415 9.903-16.825 14.491-24.857 3.058-5.348 8.9-10.696 11.569-15.672 27.145-49.699 70.838-99.782 70.838-149.104v-20.262c.001-5.347-6.627-24.081-7-25.234zm-141.963 92.142c-19.107 0-40.021-9.554-50.344-35.939-1.538-4.2-1.414-12.617-1.414-13.388v-11.852c0-33.636 28.56-48.932 53.406-48.932 30.588 0 54.245 24.472 54.245 55.06 0 30.587-25.305 55.051-55.893 55.051z"/></svg><svg viewBox="0 0 137.144 137.144" id="twitter" xmlns="http://www.w3.org/2000/svg"><path d="M107.382 35.507c-3.367 2.02-6.921 3.419-10.667 4.201-3.429-3.646-7.557-5.471-12.382-5.471-4.699 0-8.765 1.617-11.952 5.08-1.342 1.458-3.809 3.931-3.809 8.684 0 1.562-.254 5.75 0 6.857-6.921-.39-14.361-.989-20.096-4.551-10.5-6.522-11.866-10.96-14.19-16.02-4.012 6.608-5.107 18.014 4.047 26.227-2.881 1.865-8.492-.645-10.905-2.012-.214 7.315 13.445 16.376 16.81 17.055-2.138.559-6.401.336-10.19-.564 1.079 3.453 5.634 7.158 8.524 9.405 2.888 2.246 6.143 3.404 9.762 3.468-6.667 5.47-13.652 8.205-20.953 8.205-1.333 0-2.667-.097-4-.293 7.11 4.689 15.746 7.033 25.905 7.033 6.031 0 11.667-.977 16.905-2.93 5.238-1.954 9.729-4.558 13.476-7.815a50.92 50.92 0 009.667-11.283c2.698-4.264 4.698-8.709 6-13.333 1.301-4.623 1.953-9.246 1.953-13.871v-2.247a34.883 34.883 0 008.381-8.987c-3.238 1.433-6.476 2.345-9.714 2.736 3.681-2.215 6.157-5.406 7.428-9.574zM109.715 0H27.429C12.28 0 0 12.28 0 27.429v82.287c0 15.148 12.28 27.429 27.429 27.429h82.286c15.149 0 27.429-12.28 27.429-27.429V27.429C137.144 12.28 124.864 0 109.715 0zm13.715 102.858c0 11.361-9.21 20.572-20.572 20.572H34.286c-11.361 0-20.572-9.211-20.572-20.572V34.286c0-11.362 9.21-20.572 20.572-20.572h68.572c11.361 0 20.572 9.21 20.572 20.572v68.572z"/></svg></svg>