<svg width="88" height="88" viewBox="0 0 88 88" fill="none" xmlns="http://www.w3.org/2000/svg">
<path fill-rule="evenodd" clip-rule="evenodd" d="M48.0489 15.3157L54.7495 28.7018C55.4061 30.0159 56.6737 30.9271 58.1436 31.138L73.1329 33.2956C76.8363 33.8303 78.31 38.3187 75.6298 40.8905L64.7907 51.3056C63.7255 52.3298 63.2406 53.8021 63.4926 55.248L66.0506 69.952C66.6806 73.5894 62.8092 76.3645 59.499 74.6437L46.1018 67.6965C44.7884 67.015 43.2154 67.015 41.8982 67.6965L28.501 74.6437C25.1908 76.3645 21.3194 73.5894 21.9532 69.952L24.5074 55.248C24.7594 53.8021 24.2745 52.3298 23.2093 51.3056L12.3702 40.8905C9.68996 38.3187 11.1637 33.8303 14.8671 33.2956L29.8564 31.138C31.3263 30.9271 32.5977 30.0159 33.2544 28.7018L39.9511 15.3157C41.6081 12.0059 46.3919 12.0059 48.0489 15.3157Z" stroke="#003729" stroke-opacity="0.8" stroke-width="3" stroke-linecap="round" stroke-linejoin="round"/>
</svg>
