<svg width="20" height="20" viewBox="0 0 20 20" fill="none" xmlns="http://www.w3.org/2000/svg">
<path fill-rule="evenodd" clip-rule="evenodd" d="M8.03057 6.96967C7.73768 6.67678 7.26281 6.67678 6.96991 6.96967C6.67702 7.26256 6.67702 7.73744 6.96991 8.03033L8.93958 10L6.96991 11.9697C6.67702 12.2626 6.67702 12.7374 6.96991 13.0303C7.26281 13.3232 7.73768 13.3232 8.03057 13.0303L10.0002 11.0607L11.9699 13.0303C12.2628 13.3232 12.7377 13.3232 13.0306 13.0303C13.3235 12.7374 13.3235 12.2626 13.0306 11.9697L11.0609 10L13.0306 8.03033C13.3235 7.73744 13.3235 7.26256 13.0306 6.96967C12.7377 6.67678 12.2628 6.67678 11.9699 6.96967L10.0002 8.93934L8.03057 6.96967Z" fill="#53556C"/>
</svg>
