<svg width="15" height="15" viewBox="0 0 15 15" fill="none" xmlns="http://www.w3.org/2000/svg">
<path fill-rule="evenodd" clip-rule="evenodd" d="M0.211424 1.25137C-0.0704746 0.969547 -0.0704746 0.502436 0.211424 0.210492C0.502667 -0.070164 0.960558 -0.070164 1.2518 0.210492L7.4964 6.46277L13.7523 0.210492C14.0342 -0.070164 14.5014 -0.070164 14.7833 0.210492C15.0722 0.502436 15.0722 0.969547 14.7833 1.25137L8.53639 7.49353L14.7833 13.7489C15.0722 14.0307 15.0722 14.4975 14.7833 14.7886C14.5014 15.0705 14.0311 15.0705 13.7523 14.7886L7.4964 8.53441L1.2518 14.7886C0.960558 15.0705 0.502667 15.0705 0.211424 14.7886C-0.0704746 14.4975 -0.0704746 14.0307 0.211424 13.7489L6.45524 7.49353L0.211424 1.25137Z" fill="#BCBDC7"/>
</svg>
