<svg width="26" height="26" viewBox="0 0 26 26" fill="none" xmlns="http://www.w3.org/2000/svg">
<path d="M5.19447 7.64398C5.19447 6.2909 6.2908 5.19457 7.64389 5.19348H8.75864C9.40539 5.19348 10.0251 4.93673 10.4844 4.48173L11.2633 3.70173C12.2177 2.7419 13.7691 2.73757 14.7289 3.69198L14.73 3.69307L14.7397 3.70173L15.5197 4.48173C15.9791 4.93782 16.5987 5.19348 17.2455 5.19348H18.3591C19.7122 5.19348 20.8096 6.28982 20.8096 7.64398V8.75657C20.8096 9.40332 21.0653 10.0241 21.5214 10.4834L22.3014 11.2634C23.2612 12.2178 23.2666 13.7691 22.3122 14.729L22.3111 14.7301L22.3014 14.7398L21.5214 15.5198C21.0653 15.9781 20.8096 16.5977 20.8096 17.2445V18.3592C20.8096 19.7123 19.7133 20.8086 18.3602 20.8086H18.3591H17.2433C16.5966 20.8086 15.9758 21.0654 15.5176 21.5215L14.7376 22.3004C13.7842 23.2602 12.234 23.2656 11.2741 22.3134C11.2731 22.3123 11.272 22.3112 11.2709 22.3101L11.2611 22.3004L10.4822 21.5215C10.024 21.0654 9.40322 20.8097 8.75647 20.8086H7.64389C6.2908 20.8086 5.19447 19.7123 5.19447 18.3592V17.2423C5.19447 16.5956 4.93772 15.9759 4.48164 15.5176L3.70272 14.7376C2.74289 13.7843 2.73747 12.2341 3.6908 11.2742C3.6908 11.2731 3.69189 11.2721 3.69297 11.271L3.70272 11.2612L4.48164 10.4812C4.93772 10.0219 5.19447 9.40223 5.19447 8.7544V7.64398" stroke="#F49CB7" stroke-width="1.5" stroke-linecap="round" stroke-linejoin="round"/>
<path d="M10.2176 15.786L15.7859 10.2177" stroke="#F49CB7" stroke-width="1.5" stroke-linecap="round" stroke-linejoin="round"/>
<path d="M15.7034 15.7083H15.7132" stroke="#F49CB7" stroke-width="2" stroke-linecap="round" stroke-linejoin="round"/>
<path d="M10.2868 10.2917H10.2965" stroke="#F49CB7" stroke-width="2" stroke-linecap="round" stroke-linejoin="round"/>
</svg>
