<svg width="26" height="27" viewBox="0 0 26 27" fill="none" xmlns="http://www.w3.org/2000/svg">
<g clip-path="url(#clip0)">
<path fill-rule="evenodd" clip-rule="evenodd" d="M16.8091 6.4244L14.9151 6.42114C12.7874 6.42114 11.4124 7.8198 11.4124 9.98332V11.6259H9.50782C9.344 11.6259 9.21045 11.7576 9.21045 11.9206V14.3006C9.21045 14.4629 9.344 14.5953 9.50782 14.5953H11.4124V20.5994C11.4124 20.7618 11.546 20.8948 11.7104 20.8948H14.194C14.3585 20.8948 14.492 20.7618 14.492 20.5994V14.5953H16.7183C16.8828 14.5953 17.0157 14.4629 17.0157 14.3006L17.017 11.9206C17.017 11.843 16.9854 11.768 16.9295 11.7119C16.8743 11.6572 16.7986 11.6259 16.719 11.6259H14.492V10.2331C14.492 9.5647 14.6532 9.22498 15.5322 9.22498L16.8085 9.22368C16.9729 9.22368 17.1052 9.09196 17.1052 8.9296V6.71978C17.1052 6.55677 16.9729 6.42505 16.8091 6.4244Z" fill="#FFFFFE"/>
</g>
<defs>
<clipPath id="clip0">
<rect y="0.5" width="26" height="26" rx="13" fill="white"/>
</clipPath>
</defs>
</svg>
