<svg width="18" height="16" viewBox="0 0 18 16" fill="none" xmlns="http://www.w3.org/2000/svg">
<path d="M7.13381 9.9724C6.65464 9.49406 6.36298 8.84406 6.36298 8.1149C6.36298 6.65406 7.53964 5.47656 8.99964 5.47656C9.72214 5.47656 10.3871 5.76906 10.858 6.2474" stroke="#003729" stroke-width="1.5" stroke-linecap="round" stroke-linejoin="round"/>
<path d="M11.5873 8.58252C11.394 9.65752 10.5473 10.5059 9.47314 10.7009" stroke="#003729" stroke-width="1.5" stroke-linecap="round" stroke-linejoin="round"/>
<path d="M4.54549 12.5604C3.22299 11.522 2.10299 10.0054 1.29132 8.11452C2.11132 6.21535 3.23882 4.69035 4.56965 3.64369C5.89215 2.59702 7.41799 2.02869 8.99966 2.02869C10.5905 2.02869 12.1155 2.60535 13.4463 3.65952" stroke="#003729" stroke-width="1.5" stroke-linecap="round" stroke-linejoin="round"/>
<path d="M15.2063 5.49243C15.7796 6.2541 16.2838 7.13326 16.708 8.1141C15.0688 11.9116 12.1721 14.1991 8.99965 14.1991C8.28048 14.1991 7.57132 14.0824 6.88965 13.8549" stroke="#003729" stroke-width="1.5" stroke-linecap="round" stroke-linejoin="round"/>
<path d="M15.5725 1.54138L2.42749 14.6864" stroke="#003729" stroke-width="1.5" stroke-linecap="round" stroke-linejoin="round"/>
</svg>
