<svg width="26" height="27" viewBox="0 0 26 27" fill="none" xmlns="http://www.w3.org/2000/svg">
<path fill-rule="evenodd" clip-rule="evenodd" d="M13.3377 10.489C11.8244 10.489 10.596 11.6783 10.596 13.146C10.596 14.613 11.8244 15.8023 13.3377 15.8023C14.8517 15.8023 16.0794 14.613 16.0794 13.146C16.0794 11.6783 14.8523 10.489 13.3377 10.489ZM18.6072 12.1223H17.4056C17.519 12.4933 17.581 12.8871 17.581 13.2933C17.581 15.5643 15.681 17.4049 13.3376 17.4049C10.9943 17.4049 9.09495 15.5643 9.09495 13.2933C9.09495 12.8871 9.15624 12.4933 9.26969 12.1223H8.01716V17.8887C8.01716 18.1873 8.26037 18.4312 8.55964 18.4312H18.0648C18.364 18.4312 18.6072 18.1873 18.6072 17.8887V12.1223ZM16.4435 7.86658C16.1057 7.86658 15.8293 8.14304 15.8293 8.48078V9.95239C15.8293 10.2901 16.1057 10.5666 16.4435 10.5666H17.9874C18.3245 10.5666 18.601 10.2901 18.601 9.95239V8.48078C18.601 8.14304 18.3245 7.86658 17.9874 7.86658H16.4435ZM8.25197 6.3501H18.398C19.3617 6.3501 20.15 7.06275 20.15 8.10207V18.2481C20.15 19.2868 19.3617 20.0001 18.398 20.0001H8.25197C7.28829 20.0001 6.5 19.2868 6.5 18.2481V8.10207C6.5 7.06275 7.28829 6.3501 8.25197 6.3501Z" fill="#FFFFFE"/>
</svg>
