<svg width="217" height="22" viewBox="0 0 217 22" fill="none" xmlns="http://www.w3.org/2000/svg">
<g clip-path="url(#clip0)">
<path d="M0 21.1935C0.131042 20.2813 0.282245 19.374 0.383047 18.4618C0.719053 15.5419 1.03322 12.622 1.32554 9.70211C1.58763 7.24255 1.82955 4.77794 2.09668 2.31838C2.15716 1.70349 2.24788 1.0886 2.32852 0.428345C3.18534 0.428345 3.98671 0.428345 4.78809 0.428345C4.8746 0.451574 4.95336 0.497442 5.01626 0.561225C5.07915 0.625007 5.12392 0.704401 5.14593 0.791231C5.37274 2.74679 5.5693 4.70738 5.77595 6.66798C6.04811 9.16282 6.31524 11.6425 6.57732 14.1122C6.79908 16.1534 7.01077 18.1947 7.22749 20.2359C7.26781 20.6341 7.30813 21.0272 7.35853 21.511C6.72339 21.5342 6.08747 21.5241 5.45338 21.4808C5.32234 21.4808 5.15097 21.1179 5.12577 20.9062C4.97457 19.5303 4.85865 18.1493 4.72257 16.6826C4.10767 16.6826 3.52806 16.6524 2.95853 16.7078C2.83253 16.7078 2.66621 17.0455 2.64605 17.2119C2.48981 18.608 2.36884 20.0091 2.22772 21.5211H0V21.1935ZM2.83253 14.6767C3.27102 14.6767 3.57343 14.6515 3.86575 14.6767C4.36976 14.722 4.5764 14.596 4.526 14.0164C4.28912 11.2746 4.09255 8.52273 3.88087 5.78092C3.85219 5.61034 3.81178 5.44193 3.75991 5.27691H3.58855L2.83253 14.6767Z" fill="#53556C"/>
<path d="M211.25 11.8694C211.805 8.06919 212.359 4.26392 212.914 0.453613H215.555C215.857 7.46438 216.159 14.455 216.462 21.5212C215.897 21.5491 215.332 21.539 214.768 21.491C214.617 21.491 214.411 21.1079 214.4 20.8962C214.325 18.981 214.295 17.0708 214.234 15.1556C214.169 12.822 214.083 10.4884 214.002 8.15487C213.985 8.00708 213.958 7.86059 213.922 7.71639H213.76C213.624 8.48752 213.483 9.25361 213.352 10.0247C212.949 12.4037 212.546 14.7776 212.163 17.1615C212.112 17.4942 211.976 17.5849 211.659 17.6C210.227 17.6806 210.217 17.6907 209.985 16.345C209.512 13.573 209.039 10.8009 208.569 8.02887C208.545 7.9234 208.512 7.82044 208.468 7.72143H208.297C208.146 12.2978 207.994 16.8793 207.838 21.491H205.822C206.125 14.4651 206.422 7.47446 206.724 0.458653H209.365C209.92 4.25216 210.474 8.05239 211.029 11.8593L211.25 11.8694Z" fill="#53556C"/>
<path d="M93.4937 0C99.6829 0 104.486 4.91913 104.476 11.2344C104.476 17.096 99.436 22.0554 93.4282 21.9899C90.5527 21.9204 87.8189 20.727 85.8128 18.6657C83.8067 16.6044 82.6881 13.8392 82.6966 10.9629C82.7052 8.08656 83.8403 5.32806 85.8587 3.27875C87.877 1.22943 90.6178 0.0524049 93.4937 0V0ZM93.529 2.04124C91.7547 2.03026 90.017 2.54656 88.5366 3.52466C87.0561 4.50275 85.8996 5.89855 85.2136 7.53498C84.5277 9.1714 84.3433 10.9747 84.6838 12.7161C85.0243 14.4575 85.8744 16.0585 87.1262 17.316C88.3781 18.5735 89.9752 19.4308 91.7151 19.7792C93.4549 20.1276 95.259 19.9513 96.8985 19.2728C98.538 18.5943 99.939 17.444 100.924 15.968C101.909 14.492 102.433 12.7567 102.43 10.9824C102.427 8.61881 101.49 6.35222 99.8223 4.67716C98.1548 3.0021 95.8925 2.05454 93.529 2.04124Z" fill="#53556C"/>
<path d="M28.5975 0.423384V21.4859H26.5814C25.8254 17.6891 25.0728 13.8989 24.3235 10.1155H24.1319V21.4708H22.1159V0.428424C22.6955 0.428424 23.2751 0.428424 23.8447 0.428424C23.9707 0.428424 24.1521 0.665309 24.1823 0.816511C24.8829 4.27905 25.5633 7.75168 26.2488 11.2193C26.2941 11.4309 26.3546 11.6376 26.405 11.8442H26.5562C26.5562 11.6073 26.6167 11.3654 26.6167 11.1235C26.6167 7.79704 26.6167 4.47058 26.6167 1.14412C26.6167 0.569547 26.7578 0.337703 27.3526 0.403224C27.7668 0.43372 28.1825 0.440451 28.5975 0.423384Z" fill="#53556C"/>
<path d="M191.181 21.491H189.003C188.792 20.2915 188.57 19.0718 188.358 17.8521C188.147 16.6323 187.915 15.3975 187.743 14.1677C187.648 13.4924 187.179 13.694 186.786 13.6637C186.282 13.6234 186.357 13.9611 186.357 14.2635V21.486H184.397V0.529259C185.753 0.529259 187.083 0.433497 188.394 0.55446C189.045 0.625684 189.649 0.929435 190.094 1.40995C190.539 1.89046 190.796 2.51548 190.818 3.17027C190.883 5.75079 190.893 8.33132 190.818 10.9068C190.818 11.5419 190.314 12.1971 189.931 12.7616C189.818 12.878 189.733 13.0193 189.684 13.1742C189.635 13.3291 189.623 13.4933 189.649 13.6537C190.117 15.9771 190.571 18.3006 191.03 20.6291C191.08 20.9013 191.12 21.1684 191.181 21.491ZM186.373 2.45961V3.29627C186.373 5.71047 186.373 8.11964 186.373 10.5338C186.373 11.7233 186.095 11.6679 187.562 11.6427C188.363 11.6427 188.827 11.2294 188.837 10.4885C188.862 8.19524 188.837 5.902 188.837 3.6138C188.86 3.37831 188.797 3.14246 188.659 2.95042C188.52 2.75838 188.317 2.62331 188.086 2.5705C187.518 2.4937 186.946 2.45665 186.373 2.45961Z" fill="#53556C"/>
<path d="M141.123 21.5262V0.42334C141.692 0.42334 142.226 0.42334 142.766 0.42334C143.305 0.42334 143.134 0.771106 143.134 1.02815C143.134 3.52804 143.134 6.02624 143.134 8.52277C143.134 8.86549 143.134 9.20822 143.134 9.53079C143.134 9.85335 143.26 9.96423 143.572 9.95415C144.056 9.92895 144.54 9.92895 145.024 9.95415C145.528 9.99951 145.669 9.77775 145.664 9.2939C145.664 6.59241 145.664 3.89092 145.664 1.18943V0.463661H147.624V21.4909H145.699C145.699 21.244 145.664 20.9869 145.664 20.7752C145.664 18.0737 145.664 15.3723 145.664 12.6708C145.664 12.1668 145.523 11.9702 144.983 11.9752C143.123 11.9752 143.123 11.9752 143.123 13.8451C143.123 16.1837 143.123 18.5223 143.123 20.8609C143.123 21.3649 142.972 21.5917 142.438 21.5363C142 21.5108 141.561 21.5074 141.123 21.5262Z" fill="#53556C"/>
<path d="M46.8073 12.3231C46.7794 12.2632 46.7575 12.2007 46.7418 12.1366C46.6107 10.2818 46.6107 10.2717 48.4453 10.2869C49.0401 10.2869 49.8263 10.1457 50.169 10.4582C50.5118 10.7707 50.285 11.5519 50.285 12.1315C50.285 14.3492 50.285 16.5668 50.285 18.7794C50.3124 19.432 50.1319 20.0764 49.7696 20.6199C49.4073 21.1634 48.8819 21.5778 48.2689 21.8035C47.6354 22.0487 46.9436 22.1015 46.2802 21.9554C45.6167 21.8092 45.0112 21.4706 44.5393 20.9819C43.9987 20.3719 43.7104 19.5791 43.7328 18.7643C43.7328 13.6032 43.7328 8.44555 43.7328 3.29121C43.793 2.46628 44.162 1.69437 44.7662 1.12954C45.3705 0.564715 46.1655 0.24852 46.9926 0.244066C47.8197 0.239613 48.6181 0.547228 49.2284 1.10552C49.8386 1.6638 50.2159 2.4317 50.285 3.25593C50.285 4.647 50.285 6.03302 50.285 7.42409C50.285 7.7769 50.1892 7.9281 49.8162 7.9281C48.2689 8.01378 48.2689 8.02386 48.2689 6.48663C48.2689 5.47861 48.2689 4.51092 48.2689 3.52306C48.2336 2.42432 47.7649 1.97071 46.8073 2.05639C46.5589 2.05474 46.3186 2.14489 46.1326 2.30953C45.9465 2.47417 45.8279 2.70171 45.7993 2.94849C45.7521 3.2265 45.7301 3.50822 45.7338 3.79018V18.225C45.7302 18.4869 45.7521 18.7486 45.7993 19.0062C45.8615 19.2669 46.0078 19.4998 46.2156 19.6691C46.4235 19.8383 46.6813 19.9343 46.9491 19.9423C47.217 19.9504 47.4801 19.8699 47.6977 19.7135C47.9153 19.557 48.0753 19.3333 48.153 19.0768C48.2235 18.7847 48.2591 18.4852 48.2588 18.1847C48.2588 16.4711 48.2588 14.7574 48.2588 13.0438C48.2588 12.4541 48.0824 12.2424 47.5079 12.318C47.2747 12.3358 47.0407 12.3374 46.8073 12.3231Z" fill="#53556C"/>
<path d="M169.655 21.501H167.482C167.392 20.5737 167.296 19.6614 167.205 18.7491C167.155 18.2048 167.145 17.6605 167.049 17.1262C167.018 17.027 166.963 16.9369 166.89 16.8639C166.816 16.7909 166.725 16.7373 166.625 16.7079C166.121 16.6575 165.587 16.7079 165.003 16.7079C164.907 17.5899 164.811 18.4215 164.73 19.228C164.675 19.8076 164.625 20.3922 164.594 20.9718C164.594 21.365 164.433 21.5514 164.005 21.5262C163.501 21.496 162.966 21.5262 162.362 21.5262C162.417 20.9164 162.452 20.367 162.508 19.8176C162.82 16.8742 163.136 13.9342 163.455 10.9975L164.378 2.60574C164.438 2.02613 164.468 1.44147 164.559 0.866904C164.584 0.705621 164.781 0.453617 164.907 0.443537C165.708 0.408256 166.51 0.443537 167.397 0.443537C168.148 7.4543 168.898 14.4449 169.655 21.501ZM166.877 14.6717C166.615 11.4763 166.373 8.38672 166.116 5.29714H165.915C165.879 5.54915 165.834 5.80115 165.814 6.04308C165.743 6.84445 165.683 7.64583 165.617 8.4472C165.466 10.3876 165.31 12.3331 165.174 14.2786C165.189 14.3619 165.224 14.4402 165.277 14.5063C165.33 14.5723 165.398 14.624 165.476 14.6566C165.943 14.6851 166.41 14.6902 166.877 14.6717Z" fill="#53556C"/>
<path d="M119.581 0.503981C120.9 0.444101 122.22 0.452512 123.538 0.529181C124.262 0.601661 124.931 0.94655 125.41 1.494C125.889 2.04144 126.142 2.75053 126.118 3.47763C126.155 6.35721 126.155 9.23678 126.118 12.1164C126.128 12.8946 125.834 13.646 125.298 14.2107C124.763 14.7754 124.028 15.109 123.25 15.1404L122.953 15.1656C121.592 15.216 121.592 15.216 121.592 16.5567C121.592 18.0082 121.592 19.4598 121.592 20.9113C121.592 21.3599 121.486 21.5816 120.982 21.5363C120.478 21.4909 120.07 21.5363 119.576 21.5363L119.581 0.503981ZM121.633 13.0387C123.613 13.3965 124.122 12.9832 124.122 11.0731V4.26389C124.122 2.8073 123.759 2.47466 122.298 2.4545C121.738 2.4545 121.577 2.63594 121.582 3.18027C121.582 6.25472 121.582 9.33422 121.582 12.4137C121.592 12.6304 121.622 12.8472 121.633 13.0488V13.0387Z" fill="#53556C"/>
<path d="M65.4103 0.42334C65.9647 0.42334 66.4687 0.42334 66.9727 0.42334C67.2953 0.42334 67.4062 0.559422 67.3961 0.851748C67.3961 0.99287 67.3961 1.13399 67.3961 1.27512V20.6643C67.3961 21.506 67.3961 21.506 66.5343 21.506H65.4053L65.4103 0.42334Z" fill="#53556C"/>
</g>
<defs>
<clipPath id="clip0">
<rect width="216.462" height="22" fill="white"/>
</clipPath>
</defs>
</svg>
