<?xml version="1.0" encoding="utf-8"?><svg viewBox="0 0 24 25" xmlns="http://www.w3.org/2000/svg" xmlns:xlink="http://www.w3.org/1999/xlink"><style>:root>svg{display:none}:root>svg:target{display:block}</style><svg  viewBox="0 0 24 24" id="CreditCard" xmlns="http://www.w3.org/2000/svg"><path d="M21 5.25H3a.75.75 0 00-.75.75v12c0 .414.336.75.75.75h18a.75.75 0 00.75-.75V6a.75.75 0 00-.75-.75zM15.75 15.75h3M11.25 15.75h1.5M2.25 9.08h19.5" stroke="#53556C" stroke-width="1.2" stroke-linecap="round" stroke-linejoin="round"/></svg><svg  viewBox="0 0 15 15" id="Edit" xmlns="http://www.w3.org/2000/svg"><path d="M8.762 13.598H14" stroke="#003729" stroke-opacity=".8" stroke-linecap="round" stroke-linejoin="round"/><path clip-rule="evenodd" d="M8.063 1.574a1.621 1.621 0 012.25-.219l1.253.973c.75.454.984 1.419.52 2.155-.025.04-6.888 8.625-6.888 8.625a1.227 1.227 0 01-.946.457l-2.628.033-.593-2.507c-.083-.352 0-.723.229-1.007l6.803-8.51z" stroke="#003729" stroke-opacity=".8" stroke-linecap="round" stroke-linejoin="round"/><path d="M6.793 3.167l3.938 3.024" stroke="#003729" stroke-opacity=".8" stroke-linecap="round" stroke-linejoin="round"/></svg><svg  viewBox="0 0 24 24" id="Money" xmlns="http://www.w3.org/2000/svg"><path d="M21.75 6H2.25a.75.75 0 00-.75.75v10.5c0 .414.336.75.75.75h19.5a.75.75 0 00.75-.75V6.75a.75.75 0 00-.75-.75z" stroke="#53556C" stroke-width="1.2" stroke-linecap="round" stroke-linejoin="round"/><path d="M12 15a3 3 0 100-6 3 3 0 000 6zM16.5 6l6 5.25M16.5 18l6-5.25M7.5 6l-6 5.25M7.5 18l-6-5.25" stroke="#53556C" stroke-width="1.2" stroke-linecap="round" stroke-linejoin="round"/></svg><svg  viewBox="0 0 21 22" id="Play" xmlns="http://www.w3.org/2000/svg"><path clip-rule="evenodd" d="M10.5 1.5c5.246 0 9.5 4.253 9.5 9.5s-4.254 9.5-9.5 9.5A9.5 9.5 0 011 11a9.5 9.5 0 019.5-9.5z" stroke="#53556C" stroke-width="1.5" stroke-linecap="round" stroke-linejoin="round"/><path clip-rule="evenodd" d="M13.5 10.995c0-.811-4.157-3.406-4.63-2.94-.47.467-.516 5.369 0 5.88.518.512 4.63-2.129 4.63-2.94z" stroke="#53556C" stroke-width="1.5" stroke-linecap="round" stroke-linejoin="round"/></svg><svg  viewBox="0 0 24 24" id="Receipt" xmlns="http://www.w3.org/2000/svg"><path d="M7.125 9.75h9.75M7.125 12.75h9.75M3 19.5V5.25a.75.75 0 01.75-.75h16.5a.75.75 0 01.75.75V19.5L18 18l-3 1.5-3-1.5-3 1.5L6 18l-3 1.5z" stroke="#53556C" stroke-width="1.2" stroke-linecap="round" stroke-linejoin="round"/></svg><svg  viewBox="0 0 24 14" id="arrow-down" xmlns="http://www.w3.org/2000/svg"><path fill-rule="evenodd" clip-rule="evenodd" d="M.71.68a2.464 2.464 0 013.406.007L12 8.36 19.884.687A2.464 2.464 0 0123.29.68c.942.909.946 2.386.007 3.3l-9.59 9.333A2.449 2.449 0 0112 14c-.64 0-1.255-.247-1.707-.687L.702 3.979A2.282 2.282 0 01.709.68z" /></svg><svg viewBox="0 0 8 14" id="btn-last" xmlns="http://www.w3.org/2000/svg"><path d="M6.511.279l-.022 12.906M.5 3l4 3.5-4 4"/></svg><svg viewBox="0 0 4 6" id="btn-next" xmlns="http://www.w3.org/2000/svg"><path fill-rule="evenodd" clip-rule="evenodd" d="M.597.492A.5.5 0 011.304.49l2 1.99a.5.5 0 010 .71l-2 1.99A.5.5 0 01.6 4.471l1.644-1.636L.599 1.199A.5.5 0 01.597.492z"/></svg><svg viewBox="0 0 4 6" id="btn-prev" xmlns="http://www.w3.org/2000/svg"><path fill-rule="evenodd" clip-rule="evenodd" d="M3.345.657a.5.5 0 01-.002.707L1.7 3l1.644 1.636a.5.5 0 01-.705.71l-2-1.992a.5.5 0 010-.708l2-1.991a.5.5 0 01.707.002z"/></svg><svg viewBox="0 0 24 24" id="cart" xmlns="http://www.w3.org/2000/svg"><path d="M2.75 3.25l2.08.36.963 11.473a1.8 1.8 0 001.8 1.653h10.91a1.8 1.8 0 001.784-1.546l.95-6.558a1.341 1.341 0 00-1.136-1.52C20.037 7.105 5.164 7.1 5.164 7.1M14.125 10.795h2.773"/><path fill-rule="evenodd" clip-rule="evenodd" d="M7.154 20.203a.544.544 0 110 1.087.544.544 0 010-1.087zM18.435 20.203a.545.545 0 110 1.09.545.545 0 010-1.09z"/></svg><svg  viewBox="0 0 24 25" id="certificate" xmlns="http://www.w3.org/2000/svg"><path clip-rule="evenodd" d="M17.857 20.95a3.393 3.393 0 003.393-3.391v-2.702a2.24 2.24 0 01-.001-4.478h.001v-2.7a3.392 3.392 0 00-3.388-3.396H6.144A3.394 3.394 0 002.75 7.675v2.79a2.163 2.163 0 012.239 2.153 2.237 2.237 0 01-2.233 2.239H2.75v2.7a3.392 3.392 0 003.391 3.393h11.716z" stroke="#003729" stroke-opacity=".8" stroke-width="1.5" stroke-linecap="round" stroke-linejoin="round"/><path clip-rule="evenodd" d="M12.371 9.596l.616 1.247c.06.122.176.207.311.227l1.377.2c.341.05.476.469.23.708l-.996.97a.417.417 0 00-.12.367l.235 1.37a.414.414 0 01-.6.437l-1.232-.647a.412.412 0 00-.386 0l-1.23.647a.415.415 0 01-.602-.437l.235-1.37a.414.414 0 00-.12-.367l-.995-.97a.414.414 0 01.23-.707l1.376-.201a.416.416 0 00.312-.227l.615-1.247a.415.415 0 01.744 0z" stroke="#003729" stroke-opacity=".8" stroke-width="1.5" stroke-linecap="round" stroke-linejoin="round"/></svg><svg viewBox="0 0 15 15" id="cross" xmlns="http://www.w3.org/2000/svg"><path fill-rule="evenodd" clip-rule="evenodd" d="M.211 1.251a.746.746 0 010-1.04.748.748 0 011.04 0l6.245 6.252L13.752.21a.733.733 0 011.031 1.04L8.536 7.495l6.247 6.255a.732.732 0 11-1.03 1.04L7.495 8.534 1.252 14.79a.746.746 0 01-1.04 0 .745.745 0 010-1.04l6.243-6.255L.211 1.25z"/></svg><svg  viewBox="0 0 24 25" id="download" xmlns="http://www.w3.org/2000/svg"><path d="M12.122 15.49V3.45M15.038 12.563l-2.916 2.928-2.916-2.928" stroke="#003729" stroke-opacity=".8" stroke-width="1.5" stroke-linecap="round" stroke-linejoin="round"/><path d="M16.755 8.182h.933a3.684 3.684 0 013.684 3.685v4.884a3.675 3.675 0 01-3.675 3.675H6.557a3.685 3.685 0 01-3.685-3.685v-4.885a3.675 3.675 0 013.675-3.674h.942" stroke="#003729" stroke-opacity=".8" stroke-width="1.5" stroke-linecap="round" stroke-linejoin="round"/></svg><svg viewBox="0 0 24 24" id="heart" xmlns="http://www.w3.org/2000/svg"><path fill-rule="evenodd" clip-rule="evenodd" d="M2.872 11.598c-1.073-3.35.18-7.179 3.698-8.312a6.007 6.007 0 015.43.912c1.455-1.125 3.572-1.505 5.42-.912 3.517 1.133 4.779 4.962 3.707 8.312-1.67 5.31-9.127 9.4-9.127 9.4s-7.402-4.028-9.128-9.4z"/><path d="M16 6.7a2.781 2.781 0 011.917 2.422"/></svg><svg  viewBox="0 0 24 25" id="info-profile" xmlns="http://www.w3.org/2000/svg"><path clip-rule="evenodd" d="M11.985 15.966c-3.868 0-7.17.585-7.17 2.926 0 2.342 3.281 2.948 7.17 2.948 3.867 0 7.17-.586 7.17-2.927 0-2.34-3.282-2.947-7.17-2.947z" stroke="#003729" stroke-opacity=".8" stroke-width="1.5" stroke-linecap="round" stroke-linejoin="round"/><path clip-rule="evenodd" d="M11.985 12.626a4.596 4.596 0 10-4.596-4.597 4.58 4.58 0 004.564 4.597h.032z" stroke="#003729" stroke-opacity=".8" stroke-width="1.429" stroke-linecap="round" stroke-linejoin="round"/></svg><svg  viewBox="0 0 24 25" id="learning" xmlns="http://www.w3.org/2000/svg"><path d="M12.245 17.742v-2.537" stroke="#003729" stroke-opacity=".8" stroke-width="1.5" stroke-linecap="round" stroke-linejoin="round"/><path clip-rule="evenodd" d="M18.44 6.396c1.69 0 3.05 1.37 3.05 3.06v3.44c-2.46 1.44-5.71 2.31-9.25 2.31s-6.78-.87-9.24-2.31v-3.45c0-1.69 1.37-3.05 3.06-3.05h12.38z" stroke="#003729" stroke-opacity=".8" stroke-width="1.5" stroke-linecap="round" stroke-linejoin="round"/><path d="M15.745 6.391v-.366c0-1.22-.99-2.21-2.21-2.21h-2.58c-1.22 0-2.21.99-2.21 2.21v.366M3.024 16.548l.19 2.51a3.242 3.242 0 003.231 2.997h11.6a3.242 3.242 0 003.231-2.998l.19-2.509" stroke="#003729" stroke-opacity=".8" stroke-width="1.5" stroke-linecap="round" stroke-linejoin="round"/></svg><svg  viewBox="0 0 24 25" id="order-blank" xmlns="http://www.w3.org/2000/svg"><path clip-rule="evenodd" d="M14.738 3H8.085A3.82 3.82 0 004.25 6.73v10.713a3.828 3.828 0 003.742 3.91c.03 0 .06.002.092 0h7.989a3.887 3.887 0 003.729-3.91V8.277L14.738 3z" stroke="#003729" stroke-opacity=".8" stroke-width="1.5" stroke-linecap="round" stroke-linejoin="round"/><path d="M14.475 2.99v2.908a2.574 2.574 0 002.568 2.575h2.755M14.288 15.598h-5.4M12.243 11.845H8.887" stroke="#003729" stroke-opacity=".8" stroke-width="1.5" stroke-linecap="round" stroke-linejoin="round"/></svg><svg  viewBox="0 0 24 25" id="orderrs-history" xmlns="http://www.w3.org/2000/svg"><path d="M15.716 17.082h-7.22M15.716 12.896h-7.22M11.251 8.719H8.496" stroke="#003729" stroke-opacity=".8" stroke-width="1.5" stroke-linecap="round" stroke-linejoin="round"/><path clip-rule="evenodd" d="M15.909 3.608l-7.69.004C5.46 3.63 3.75 5.445 3.75 8.215v9.197c0 2.784 1.722 4.607 4.506 4.607l7.69-.003c2.76-.017 4.47-1.834 4.47-4.604V8.215c0-2.784-1.724-4.607-4.508-4.607z" stroke="#003729" stroke-opacity=".8" stroke-width="1.5" stroke-linecap="round" stroke-linejoin="round"/></svg><svg  viewBox="0 0 24 25" id="point-map" xmlns="http://www.w3.org/2000/svg"><path clip-rule="evenodd" d="M14.5 11.077a2.5 2.5 0 10-5-.002 2.5 2.5 0 005 .002z" stroke="#003729" stroke-opacity=".8" stroke-width="1.5" stroke-linecap="round" stroke-linejoin="round"/><path clip-rule="evenodd" d="M12 21.576c-1.199 0-7.5-5.102-7.5-10.437 0-4.176 3.357-7.563 7.5-7.563 4.142 0 7.5 3.387 7.5 7.563 0 5.335-6.302 10.437-7.5 10.437z" stroke="#003729" stroke-opacity=".8" stroke-width="1.5" stroke-linecap="round" stroke-linejoin="round"/></svg><svg  viewBox="0 0 24 25" id="ref-program" xmlns="http://www.w3.org/2000/svg"><path d="M17.888 11.614a2.876 2.876 0 002.472-2.84 2.875 2.875 0 00-2.406-2.837M19.729 14.968c1.35.202 2.294.675 2.294 1.65 0 .67-.445 1.107-1.163 1.38" stroke="#003729" stroke-opacity=".8" stroke-width="1.5" stroke-linecap="round" stroke-linejoin="round"/><path clip-rule="evenodd" d="M11.887 15.381c-3.214 0-5.96.487-5.96 2.432 0 1.944 2.729 2.445 5.96 2.445 3.214 0 5.958-.482 5.958-2.428s-2.727-2.449-5.958-2.449zM11.887 12.605a3.819 3.819 0 10-3.82-3.819 3.804 3.804 0 003.792 3.82h.028z" stroke="#003729" stroke-opacity=".8" stroke-width="1.5" stroke-linecap="round" stroke-linejoin="round"/><path d="M5.885 11.614a2.875 2.875 0 01-2.472-2.84A2.875 2.875 0 015.82 5.936M4.044 14.968c-1.351.202-2.294.675-2.294 1.65 0 .67.444 1.107 1.162 1.38" stroke="#003729" stroke-opacity=".8" stroke-width="1.5" stroke-linecap="round" stroke-linejoin="round"/></svg><svg  viewBox="0 0 24 24" id="right-arrow2" xmlns="http://www.w3.org/2000/svg"><path fill-rule="evenodd" clip-rule="evenodd" d="M14.741 6.278a.943.943 0 011.333-.003l5.148 5.125a.943.943 0 010 1.336l-5.148 5.125a.943.943 0 11-1.33-1.336l3.53-3.515H3.444a.943.943 0 110-1.885h14.831l-3.53-3.514a.943.943 0 01-.003-1.333z" /></svg><svg  viewBox="0 0 24 25" id="settings" xmlns="http://www.w3.org/2000/svg"><path clip-rule="evenodd" d="M20.806 7.96l-.622-1.08a1.913 1.913 0 00-2.609-.704v0a1.904 1.904 0 01-2.608-.678 1.832 1.832 0 01-.257-.915v0a1.913 1.913 0 00-1.913-1.968h-1.254A1.904 1.904 0 009.64 4.528v0a1.913 1.913 0 01-1.913 1.886 1.83 1.83 0 01-.915-.257v0a1.913 1.913 0 00-2.609.705l-.668 1.099a1.913 1.913 0 00.696 2.608v0a1.913 1.913 0 010 3.314v0a1.904 1.904 0 00-.696 2.6v0l.632 1.088a1.913 1.913 0 002.608.742v0a1.895 1.895 0 012.6.696c.164.277.253.593.256.915v0c0 1.056.857 1.913 1.913 1.913h1.254c1.053 0 1.908-.85 1.913-1.904v0a1.904 1.904 0 011.913-1.913c.322.009.636.097.916.256v0a1.913 1.913 0 002.608-.695v0l.66-1.099a1.904 1.904 0 00-.696-2.608v0a1.904 1.904 0 01-.696-2.61c.166-.289.406-.529.696-.695v0a1.913 1.913 0 00.695-2.6v0-.008z" stroke="#003729" stroke-opacity=".8" stroke-width="1.5" stroke-linecap="round" stroke-linejoin="round"/><circle cx="12.175" cy="12.226" r="2.636" stroke="#003729" stroke-opacity=".8" stroke-width="1.5" stroke-linecap="round" stroke-linejoin="round"/></svg><svg  viewBox="0 0 24 25" id="video" xmlns="http://www.w3.org/2000/svg"><path clip-rule="evenodd" d="M16.297 16.353c.08 1.832-1.398 3.381-3.302 3.459-.14.006-6.98-.008-6.98-.008-1.895.144-3.554-1.218-3.703-3.043-.012-.136-.009-7.474-.009-7.474-.084-1.834 1.393-3.388 3.299-3.468.142-.007 6.972.006 6.972.006 1.904-.142 3.568 1.23 3.716 3.064.01.132.007 7.464.007 7.464z" stroke="#003729" stroke-opacity=".8" stroke-width="1.5" stroke-linecap="round" stroke-linejoin="round"/><path d="M16.3 10.794L19.593 8.1c.816-.668 2.04-.086 2.039.967l-.012 7.35c-.001 1.052-1.226 1.63-2.04.961l-3.28-2.695" stroke="#003729" stroke-opacity=".8" stroke-width="1.5" stroke-linecap="round" stroke-linejoin="round"/></svg></svg>