<svg width="26" height="27" viewBox="0 0 26 27" fill="none" xmlns="http://www.w3.org/2000/svg">
<path fill-rule="evenodd" clip-rule="evenodd" d="M19.095 15.1492C19.6553 15.7073 20.2472 16.2325 20.7501 16.8471C20.9719 17.1199 21.1821 17.4012 21.3433 17.7181C21.5708 18.1683 21.3645 18.664 20.9687 18.6909L18.5064 18.6896C17.8713 18.7435 17.3646 18.4825 16.939 18.0402C16.598 17.6859 16.2821 17.3092 15.9545 16.9437C15.8204 16.7939 15.6799 16.6532 15.5116 16.5421C15.1757 16.3193 14.8836 16.3876 14.6915 16.7452C14.4961 17.1087 14.4516 17.511 14.4323 17.9166C14.4059 18.5069 14.2305 18.6626 13.6489 18.6896C12.4039 18.7494 11.2228 18.5575 10.1254 17.9172C9.15834 17.3532 8.40786 16.5566 7.75538 15.6547C6.48396 13.8983 5.5104 11.9691 4.63549 9.98524C4.4382 9.53826 4.58263 9.29834 5.06618 9.28979C5.86952 9.27401 6.67222 9.27533 7.47621 9.28848C7.80309 9.29373 8.01908 9.48436 8.14545 9.79922C8.57936 10.8884 9.11127 11.9244 9.77857 12.8854C9.95652 13.1411 10.1377 13.3968 10.3962 13.5769C10.6812 13.7761 10.8985 13.7103 11.0332 13.3856C11.1183 13.1799 11.1557 12.959 11.1751 12.7388C11.2383 11.9809 11.2466 11.2243 11.1351 10.4697C11.0668 9.99839 10.8063 9.69339 10.3453 9.60465C10.11 9.5593 10.1448 9.4699 10.2589 9.33252C10.4568 9.09654 10.6432 8.94995 11.0139 8.94995H13.7966C14.2344 9.03738 14.3317 9.23852 14.3917 9.68747L14.3943 12.8387C14.3897 13.0129 14.4794 13.5289 14.7869 13.6446C15.0325 13.7261 15.195 13.525 15.3427 13.3665C16.0087 12.6455 16.4839 11.7936 16.9087 10.9114C17.097 10.5229 17.2595 10.1207 17.4161 9.71837C17.5328 9.41928 17.7153 9.2727 18.0454 9.27862L20.7237 9.28125C20.803 9.28125 20.8829 9.28256 20.9596 9.29571C21.4116 9.37459 21.5354 9.57244 21.3955 10.0214C21.1763 10.7267 20.7488 11.3137 20.331 11.904C19.8849 12.5344 19.4065 13.1424 18.9642 13.7761C18.5567 14.3552 18.5896 14.647 19.095 15.1492Z" fill="#FFFFFE"/>
</svg>
