<?xml version="1.0" standalone="no"?>
<!DOCTYPE svg PUBLIC "-//W3C//DTD SVG 20010904//EN"
 "http://www.w3.org/TR/2001/REC-SVG-20010904/DTD/svg10.dtd">
<svg version="1.0" xmlns="http://www.w3.org/2000/svg"
 width="700.000000pt" height="700.000000pt" viewBox="0 0 700.000000 700.000000"
 preserveAspectRatio="xMidYMid meet">
<metadata>
Created by potrace 1.11, written by Peter Selinger 2001-2013
</metadata>
<g transform="translate(0.000000,700.000000) scale(0.100000,-0.100000)"
fill="#000000" stroke="none">
<path d="M3278 6996 c-1 -2 -41 -6 -88 -10 -47 -4 -96 -8 -110 -10 -14 -2 -46
-7 -71 -10 -25 -4 -57 -9 -70 -11 -13 -2 -42 -6 -64 -10 -22 -3 -47 -7 -55
-10 -8 -2 -26 -6 -40 -9 -14 -2 -74 -16 -135 -31 -379 -94 -830 -297 -1127
-510 -31 -22 -66 -47 -78 -55 -45 -30 -187 -145 -265 -214 -563 -499 -964
-1196 -1106 -1925 -11 -57 -22 -118 -25 -135 -2 -17 -6 -42 -9 -56 -3 -14 -8
-52 -11 -85 -3 -33 -9 -96 -13 -140 -8 -82 -6 -536 2 -590 3 -16 8 -57 12 -90
6 -60 8 -75 20 -150 4 -22 8 -51 10 -65 16 -107 112 -471 145 -545 5 -11 30
-74 56 -140 78 -201 221 -470 343 -645 57 -83 172 -238 201 -270 12 -14 59
-68 105 -120 107 -123 324 -325 465 -433 250 -193 599 -389 880 -495 168 -63
418 -137 532 -157 18 -4 51 -10 73 -15 22 -5 58 -11 80 -14 22 -4 54 -9 70
-11 127 -21 280 -30 515 -30 422 0 697 46 1140 190 169 55 259 80 320 90 236
36 428 33 635 -11 53 -11 419 -114 750 -210 171 -50 212 -59 280 -58 65 0 91
5 137 26 79 37 142 98 181 177 28 58 32 75 31 146 -1 70 -13 125 -107 450
-251 878 -250 874 -229 1068 10 92 59 271 82 302 8 11 74 195 109 305 20 62
67 247 77 300 2 14 7 36 10 50 3 14 7 36 9 50 3 24 10 63 20 120 2 14 7 52 11
85 4 33 9 76 11 95 8 72 10 518 2 602 -13 145 -24 227 -35 282 -3 11 -7 38
-10 59 -12 77 -62 285 -98 402 -109 355 -310 752 -529 1045 -343 460 -764 813
-1276 1069 -290 146 -679 271 -986 317 -27 4 -52 8 -55 9 -3 1 -41 5 -85 9
-44 5 -89 10 -100 13 -22 5 -531 13 -537 9z m364 -1940 c164 -12 355 -65 536
-152 167 -79 287 -166 428 -308 173 -175 287 -355 363 -569 72 -206 91 -327
87 -562 -4 -192 -24 -310 -83 -479 -157 -451 -513 -806 -963 -959 -271 -93
-516 -111 -810 -62 -65 11 -215 57 -295 90 -589 243 -970 817 -967 1455 1 140
14 247 48 378 105 407 358 742 726 962 136 81 362 167 486 184 24 3 47 8 51
10 4 3 52 8 106 12 55 3 101 7 103 9 2 2 64 -1 184 -9z"/>
</g>
</svg>
