<?xml version="1.0" encoding="utf-8"?><svg viewBox="0 0 900 600" xmlns="http://www.w3.org/2000/svg" xmlns:xlink="http://www.w3.org/1999/xlink"><style>:root>svg{display:none}:root>svg:target{display:block}</style><svg fill="none" viewBox="0 0 90 92" id="advantages1" xmlns="http://www.w3.org/2000/svg"><path d="M45 3.952c-23.785 0-43.066 19.71-43.066 44.024 0 11.063 3.992 21.171 10.584 28.905L26.416 87.7A42.124 42.124 0 0045 92c23.785 0 43.067-19.71 43.067-44.024S68.786 3.952 45 3.952z" fill="#FFC839"/><path d="M47.79 75.693l-.109-.203c-.627-1.17-.203-2.652.942-3.293l.132-.073c-1.2.67-2.718.217-3.374-1.01-.657-1.225-.213-2.778.987-3.449-1.2.671-2.718.217-3.375-1.009s-.212-2.778.987-3.45c-1.2.672-2.718.218-3.375-1.009-.656-1.226-.212-2.778.988-3.45l3.239-1.812-.494-.922a2.648 2.648 0 00-1.728-1.335c-2.693-.627-5.487.482-7.059 2.803-1.416 2.149.008-.472-3.58 7.942a2.68 2.68 0 01-1.165 1.319l-18.288 10.14A43.326 43.326 0 0026.415 87.7l12.92-7.163c.354-.198.748-.31 1.151-.329l3.927-.176c.404-.018.798-.13 1.152-.33l5.192-2.905-.167.042a2.36 2.36 0 01-2.8-1.146z" fill="#FCAD6D"/><path d="M55.395 74.256L42.5 50.102l-9.063 2.134 14.11 26.424c1.189 2.216 3.91 3.027 6.078 1.81 2.168-1.215 2.961-3.998 1.771-6.214z" fill="#3C58A0"/><path d="M41.573 58.201c-1-1.87.025-4.2 2.057-4.678l.618-.146-1.75-3.275-9.061 2.134L47.544 78.66c1.167 2.173 3.807 2.993 5.953 1.877L41.573 58.2z" fill="#2A428C"/><path d="M47.518 75.844l-.108-.203c-.627-1.17-.203-2.652.942-3.293l6.67-3.731c1.145-.641 2.594-.208 3.221.963l.108.202c.627 1.17.203 2.653-.942 3.293l-6.67 3.732c-1.144.64-2.594.207-3.22-.963z" fill="#F9BA8F"/><path d="M45.11 71.266c-.656-1.226-.212-2.778.987-3.45l7.996-4.474c1.2-.67 2.718-.216 3.375 1.01.656 1.225.212 2.778-.987 3.45l-7.996 4.473c-1.2.671-2.718.217-3.375-1.009z" fill="#F9BA8F"/><path d="M42.722 66.808c-.656-1.226-.212-2.778.987-3.45l8.494-4.752c1.2-.67 2.718-.217 3.374 1.01.657 1.225.213 2.778-.987 3.449l-8.493 4.752c-1.2.671-2.718.217-3.375-1.009z" fill="#F9BA8F"/><path d="M52.146 55.74c-.657-1.226-2.175-1.68-3.375-1.009L41.322 58.9c-1.2.672-1.644 2.224-.987 3.45.657 1.226 2.175 1.68 3.375 1.009l7.449-4.168c1.2-.671 1.644-2.223.987-3.45z" fill="#F9BA8F"/><path d="M31.088 66.557c.111 1.59.776 4.052 3.744 4.626 1.974.381 3.972-2.183 3.972-2.183 2.499-3.568 2.511-6.202 2.342-7.35-.015-.099.116-.143.163-.056l.637 1.19c.224.417.515.77.853 1.055a2.59 2.59 0 002.822.188 2.705 2.705 0 001.37-2.305c.026-1.07-.445-1.54-2.652-5.709a2.716 2.716 0 00-.722-.855l-.002-.002a2.623 2.623 0 00-1.005-.478c-2.692-.627-5.486.482-7.058 2.803-1.416 2.149.008-.472-3.58 7.942a2.69 2.69 0 01-.884 1.134z" fill="#FCAD6D"/><path d="M43.884 60.47l1.136 2.122c.3.558.959.793 1.525.57.28-.427.435-.928.447-1.44.022-.95-.366-1.393-1.514-3.581l-1.104.617a1.28 1.28 0 00-.49 1.712z" fill="#F9DFCD"/><path d="M35.806 70.253a.801.801 0 01.166-.964c4.532-4.122 3.86-8.703 3.853-8.75a.787.787 0 01.638-.905c.42-.07.817.222.885.652.035.222.808 5.49-4.35 10.181a.76.76 0 01-1.192-.214z" fill="#FD995B"/><path d="M29.161 51.514l-5.074-22.518c-.034-.15-.05-.3-.05-.448-5.99 1.734-9.656 7.988-8.243 14.257 1.412 6.27 7.386 10.254 13.514 9.134a2.088 2.088 0 01-.147-.425z" fill="#E9EFFF"/><path d="M17.03 46.05c2.407 4.33 7.291 6.8 12.278 5.89a2.071 2.071 0 01-.147-.426l-1.542-6.842a4.613 4.613 0 01-.417-.252s-4.417 4.768-10.173 1.63z" fill="#D3DCFB"/><path d="M57.488 13.444c-4.617 5.53-10.673 9.577-17.44 11.694.01.03.02.061.027.093l5.074 22.518c.007.032.01.064.017.096a36.521 36.521 0 0120.686 2.716l10.916 4.87L65.22 4.183l-7.732 9.26z" fill="#E9EFFF"/><path d="M60.78 9.503l5.48 22.648c.894 3.692-1.995 7.221-5.706 6.937-4.385-.336-10.272-.215-16.656 1.508 0 0-.078.2-.26.447l1.51 6.706c.008.032.012.064.018.096a36.521 36.521 0 0120.686 2.716l10.916 4.87L65.22 4.183l-4.44 5.319z" fill="#D3DCFB"/><path d="M82.26 23.401c-5.242.297-8.687-2.16-8.687-2.16l3.407 15.116s2.046-3.75 6.885-5.827a1.775 1.775 0 001.027-2.022l-.845-3.747a1.733 1.733 0 00-1.788-1.36z" fill="#E9EFFF"/><path d="M84.395 26.304c-.91.377-1.717.774-2.415 1.165-1.868 1.045-4.193-.022-4.67-2.143l-.593-2.627c-1.988-.636-3.144-1.459-3.144-1.459l3.407 15.117s2.046-3.75 6.885-5.827a1.775 1.775 0 001.027-2.022l-.497-2.204z" fill="#D3DCFB"/><path d="M79.725 58.545c-1.278.301-2.551-.514-2.846-1.82L64.766 2.972c-.294-1.306.503-2.608 1.78-2.909 1.277-.3 2.55.514 2.845 1.82l12.113 53.755c.294 1.305-.502 2.607-1.78 2.908z" fill="#FF4155"/><path d="M81.505 55.637L76.72 34.408c-.187.994-.926 1.832-1.953 2.074a2.55 2.55 0 01-2.688-1.055l4.8 21.3c.294 1.305 1.568 2.12 2.845 1.819 1.277-.301 2.074-1.603 1.78-2.909z" fill="#E80054"/><path d="M38.022 23.619l-12.779 3.009c-1.075.253-1.746 1.35-1.498 2.449l5.074 22.518c.248 1.1 1.32 1.785 2.395 1.532l12.78-3.01c1.075-.252 1.746-1.349 1.498-2.448l-5.075-22.518c-.247-1.1-1.32-1.785-2.395-1.532z" fill="#FF4155"/><path d="M40.662 41.813L30.656 44.17s-1.193 1.776-3.454.25l1.617 7.175c.248 1.1 1.32 1.785 2.395 1.532l12.78-3.009c1.075-.253 1.745-1.35 1.498-2.449l-1.594-7.072s-.79 2.023-3.236 1.216z" fill="#E80054"/><path d="M31.69 26.728c-.6 0-1.143-.422-1.284-1.045l-.873-3.875c-.164-.725.28-1.449.989-1.616.709-.168 1.417.286 1.58 1.01l.873 3.876c.164.725-.279 1.449-.988 1.616-.1.023-.2.034-.297.034z" fill="#BEC8F7"/><path d="M28.898 23.026c-.6 0-1.143-.422-1.284-1.046-.163-.725.28-1.449.989-1.616l3.718-.875a1.317 1.317 0 011.58 1.01c.164.726-.279 1.45-.988 1.617l-3.718.875a1.29 1.29 0 01-.297.035z" fill="#E9EFFF"/><path d="M27.534 30.315c-.163-.726.28-1.45.989-1.616l7.436-1.751a1.317 1.317 0 011.58 1.01c.164.726-.279 1.45-.988 1.617l-7.436 1.75a1.318 1.318 0 01-1.581-1.01zM28.574 34.933c-.164-.726.28-1.45.989-1.616l7.436-1.751a1.318 1.318 0 011.58 1.01c.164.726-.279 1.45-.988 1.617l-7.436 1.75a1.318 1.318 0 01-1.581-1.01zM29.615 39.55c-.163-.724.28-1.448.989-1.615l7.436-1.75a1.318 1.318 0 011.58 1.01c.164.725-.278 1.449-.988 1.616l-7.436 1.75a1.318 1.318 0 01-1.581-1.01zM30.656 44.17c-.163-.726.28-1.45.989-1.617l7.436-1.75a1.317 1.317 0 011.58 1.01c.164.725-.279 1.449-.988 1.616l-7.436 1.75a1.318 1.318 0 01-1.581-1.01zM31.697 48.788c-.163-.725.28-1.448.989-1.615l7.436-1.751a1.317 1.317 0 011.58 1.01c.164.726-.279 1.45-.988 1.616L33.278 49.8a1.318 1.318 0 01-1.581-1.01z" fill="#CC0053"/><path d="M39.334 80.537c-11.973-1.38-8.246-13.98-8.246-13.98-.09.067-.184.13-.282.185l-18.288 10.14A43.326 43.326 0 0026.415 87.7l12.92-7.163z" fill="#FD995B"/></svg><svg fill="none" viewBox="0 0 92 92" id="advantages2" xmlns="http://www.w3.org/2000/svg"><g clip-path="url(#bclip0)"><path d="M4.99 64.014l3.055 6.274a44.25 44.25 0 0013.236 14.12H70.72a44.246 44.246 0 0013.535-14.633l2.906-6.159a43.915 43.915 0 002.863-15.64c0-24.314-19.71-44.024-44.024-44.024-24.313 0-44.023 19.71-44.023 44.024 0 5.66 1.069 11.069 3.014 16.038z" fill="#FFC839"/><path d="M67.432 62.484a6.456 6.456 0 003.96 1.354c1.436 0 2.83-.476 3.96-1.354a12.372 12.372 0 002.501-2.635 18.26 18.26 0 00-.68-.185 1.03 1.03 0 01-.588-.396c-.627-.886-.801-2.254-.835-3.246a9.32 9.32 0 01-1.344 1.284 4.923 4.923 0 01-6.028 0 9.32 9.32 0 01-1.343-1.284c-.035 1.014-.216 2.422-.878 3.304a.892.892 0 01-.496.325c-.246.061-.489.128-.73.199a12.37 12.37 0 002.501 2.634z" fill="#FCAD6D"/><path d="M68.378 57.306a9.32 9.32 0 01-1.343-1.284c-.035 1.014-.216 2.422-.878 3.304a.892.892 0 01-.496.325c-.246.061-.489.128-.73.199a12.374 12.374 0 002.501 2.635 6.432 6.432 0 001.63.92c1.56-1.308 2.188-3.288 2.407-5.072a4.907 4.907 0 01-3.09-1.027z" fill="#FCAD6D"/><path d="M87.162 63.617c-.907-.72-2.081-1.221-3.602-1.346-.562-.046-.862-.264-1.524-.637-1.38-.779-2.81-1.4-4.368-1.836a11.937 11.937 0 01-2.451 2.594 6.235 6.235 0 01-3.823 1.307 6.235 6.235 0 01-3.824-1.307 11.945 11.945 0 01-2.452-2.595 19.664 19.664 0 00-4.367 1.837c-.663.373-.962.591-1.524.637-4.781.391-6.147 4.489-6.5 7.504h31.53a43.853 43.853 0 002.905-6.159z" fill="#FF4155"/><path d="M67.508 64.33a5.723 5.723 0 001.68-1.033 6.204 6.204 0 01-1.62-.905 11.945 11.945 0 01-2.45-2.595 19.663 19.663 0 00-4.368 1.837c-.663.373-.962.591-1.524.637-4.781.391-6.147 4.489-6.5 7.504h6.763c.152-5.49 2.843-3.357 8.02-5.444z" fill="#E80054"/><path d="M16.721 62.949a6.338 6.338 0 003.887 1.329c1.41 0 2.778-.468 3.887-1.33a12.136 12.136 0 002.475-2.613 18.69 18.69 0 00-.582-.157 1.03 1.03 0 01-.587-.397c-.627-.885-.801-2.253-.835-3.246a9.32 9.32 0 01-1.344 1.284 4.923 4.923 0 01-6.028 0 9.31 9.31 0 01-1.343-1.284c-.035 1.015-.216 2.422-.878 3.305a.89.89 0 01-.496.325c-.212.053-.423.11-.63.169.768 1.1 1.65 1.974 2.474 2.615z" fill="#FCAD6D"/><path d="M20.508 58.845a4.903 4.903 0 01-2.914-1.027 9.31 9.31 0 01-1.343-1.284c-.035 1.015-.216 2.422-.878 3.305a.892.892 0 01-.496.325c-.212.053-.423.11-.63.169.769 1.1 1.65 1.974 2.474 2.615.256.199.526.375.807.531 1.97-1.506 2.733-3.219 2.98-4.634z" fill="#FD995B"/><path d="M32.774 62.785c-.562-.046-.861-.264-1.524-.638-1.38-.778-2.81-1.4-4.367-1.836a11.944 11.944 0 01-2.452 2.595 6.235 6.235 0 01-3.823 1.307 6.236 6.236 0 01-3.824-1.307 11.939 11.939 0 01-2.451-2.596 19.673 19.673 0 00-4.368 1.837c-.662.374-.961.592-1.524.638-1.438.118-2.565.572-3.45 1.23a43.838 43.838 0 003.054 6.274h31.228c-.352-3.016-1.718-7.113-6.499-7.504z" fill="#73C3F9"/><path d="M9.66 70.289c.108-4.658 1.1-2.834 6.577-5.957.505-.288.952-.59 1.35-.898a6.2 6.2 0 01-.803-.528 11.938 11.938 0 01-2.451-2.596 19.692 19.692 0 00-4.368 1.837c-.662.374-.961.592-1.524.638-1.438.118-2.565.572-3.45 1.23a43.845 43.845 0 003.054 6.274H9.66z" fill="#4FABF7"/><path d="M39.516 83.24a10.573 10.573 0 006.485 2.216c2.35 0 4.633-.78 6.483-2.216a20.256 20.256 0 004.081-4.296 30.217 30.217 0 00-1.172-.321 1.674 1.674 0 01-.953-.644c-1.02-1.439-1.303-3.663-1.358-5.276a15.136 15.136 0 01-2.184 2.087 8.002 8.002 0 01-9.796 0 15.136 15.136 0 01-2.184-2.087c-.056 1.649-.35 3.936-1.426 5.37a1.45 1.45 0 01-.806.53c-.422.104-.838.22-1.25.342a20.269 20.269 0 004.08 4.295z" fill="#FCAD6D"/><path d="M45.654 76.457a7.97 7.97 0 01-4.552-1.667 15.136 15.136 0 01-2.184-2.087c-.056 1.649-.35 3.936-1.426 5.37a1.449 1.449 0 01-.806.53c-.422.104-.838.22-1.25.342a20.261 20.261 0 004.08 4.295c.679.526 1.416.964 2.193 1.308 2.328-2.317 3.435-5.39 3.945-8.091z" fill="#FD995B"/><path d="M63.295 81.824c-2.243-1.266-4.566-2.275-7.097-2.984a19.409 19.409 0 01-3.984 4.216 10.132 10.132 0 01-6.213 2.125c-2.254 0-4.441-.748-6.214-2.125a19.409 19.409 0 01-3.984-4.217c-2.521.708-4.86 1.723-7.098 2.985-1.077.607-1.563.962-2.477 1.036-1.993.163-3.618.724-4.947 1.549a43.818 43.818 0 0024.72 7.59c9.163 0 17.672-2.8 24.719-7.59-1.329-.825-2.954-1.386-4.948-1.549-.913-.075-1.4-.429-2.477-1.036z" fill="#3C58A0"/><path d="M39.787 83.056a19.409 19.409 0 01-3.984-4.217c-2.521.708-4.86 1.723-7.098 2.985-1.077.607-1.563.962-2.477 1.036-1.993.163-3.618.724-4.947 1.549a43.874 43.874 0 0011.024 5.417c1.092-.58 3.138-1.263 6.97-3.43a11.382 11.382 0 002.65-2.068 10.093 10.093 0 01-2.138-1.272z" fill="#2A428C"/><path d="M44.879 10a4.221 4.221 0 014.209-4.21h20.04V4.21A4.222 4.222 0 0064.92 0H43.157a4.222 4.222 0 00-4.209 4.21v17.278a4.222 4.222 0 004.21 4.21h1.72V10z" fill="#4FABF7"/><path d="M55.168 0h-12.01a4.222 4.222 0 00-4.21 4.21v17.278a4.222 4.222 0 004.21 4.21h1.72V10a4.222 4.222 0 014.21-4.21h5.99c.054-.173.09-.268.09-.268-2.986-2.986 0-5.522 0-5.522z" fill="#1886EA"/><path d="M70.58 5.521H48.82a4.222 4.222 0 00-4.21 4.21V27.01a4.222 4.222 0 004.21 4.209c.591 0 .92.68.557 1.147a9.975 9.975 0 01-1.297 1.387c-.895.788-.392 2.405.743 2.401 2.885-.009 5.59-1.473 7.43-3.858a2.722 2.722 0 012.15-1.077H70.58a4.221 4.221 0 004.21-4.21V9.731a4.22 4.22 0 00-4.21-4.21z" fill="#E9EFFF"/><path d="M48.819 5.522a4.222 4.222 0 00-4.21 4.209V27.01a4.222 4.222 0 004.21 4.209c.591 0 .92.68.557 1.148a9.975 9.975 0 01-1.297 1.386c-.895.789-.392 2.405.743 2.402 2.885-.01 5.59-1.474 7.43-3.86a2.722 2.722 0 012.15-1.076h5.438c-6.54-3.822-3.667-10.555-3.667-10.555l-.855-3.856c-6.9-4.046-4.15-11.287-4.15-11.287h-6.35z" fill="#BEC8F7"/><path d="M52.875 20.782a2.022 2.022 0 10-.93-3.937 2.022 2.022 0 00.93 3.937zM59.774 20.78a2.022 2.022 0 10-.93-3.937 2.022 2.022 0 00.93 3.937z" fill="#1886EA"/><path d="M67.64 20.267a2.023 2.023 0 10-2.86-2.86 2.023 2.023 0 002.86 2.86z" fill="#4FABF7"/><path d="M43.632 39.197c-7.112.97-7.788 5.002-7.791 6.481 0 .31-.173.598-.452.734-3.7 1.8-1.705 10.473-1.705 10.473.372.025.93.344 1.22.484.07-.442.186-.877.35-1.298.125-.32.28-.644.476-.95.338-.53.492-1.157.446-1.783-.133-1.81-.237-5.206 2.151-6.281 2.024-.91 4.506-.383 6.089.143a5.027 5.027 0 003.17 0c1.582-.526 4.064-1.053 6.088-.143 2.382 1.072 2.284 4.452 2.152 6.266-.045.63.104 1.263.445 1.798.201.316.361.65.488.981.157.411.27.836.339 1.267.366-.177 1.056-.538 1.503-.475.055-1.897.23-3.941.23-3.941C60.94 42.63 51.29 38.154 43.632 39.197z" fill="#2A428C"/><path d="M43.632 39.198c-7.112.969-7.788 5.001-7.791 6.48 0 .311-.173.599-.452.734-3.7 1.8-1.705 10.473-1.705 10.473.372.025.93.344 1.22.485.07-.442.186-.878.35-1.298.125-.32.28-.645.476-.95.338-.531.492-1.157.446-1.783-.133-1.81-.237-5.207 2.151-6.282 2.024-.91 4.506-.383 6.089.143a5.02 5.02 0 001.332.247 4.607 4.607 0 00-.226-.352c-3.05-4.289 1.19-7.414 2.009-7.96a16.739 16.739 0 00-3.899.063z" fill="#1C2E7A"/><path d="M59.232 57.14c-.554-.507-1.657-.25-2.134.06.104.652.11 1.317.02 1.975l-.563 4.1c0 .33-.01.655-.03.974 1.373.414 2.055-.818 2.17-1.664.05-.364.13-.723.242-1.073.366-1.141 1.683-3.1.295-4.372z" fill="#FCAD6D"/><path d="M32.77 57.14c.553-.507 1.656-.25 2.133.06a6.698 6.698 0 00-.02 1.975l.563 4.1c0 .33.01.655.03.974-1.373.414-2.055-.818-2.17-1.664a6.296 6.296 0 00-.242-1.073c-.365-1.141-1.683-3.1-.295-4.372z" fill="#FD995B"/><path d="M56.927 55.934a5.458 5.458 0 00-.487-.981 2.947 2.947 0 01-.445-1.799c.131-1.814.06-5.362-2.321-6.434-2.023-.91-4.505-.383-6.088.143a5.03 5.03 0 01-3.17 0c-1.583-.526-4.065-1.053-6.088-.143-2.389 1.075-2.453 4.64-2.32 6.45a2.917 2.917 0 01-.446 1.783c-.195.306-.351.63-.476.95a6.555 6.555 0 00-.371 3.271l.563 4.101c0 5.897 3.148 9.904 5.825 11.983A7.988 7.988 0 0046 76.933c1.776 0 3.5-.59 4.898-1.675 2.677-2.079 5.825-6.087 5.825-11.983l.563-4.1a6.567 6.567 0 00-.36-3.241z" fill="#F9BA8F"/><path d="M48.922 75.258c-2.677-2.079-5.825-6.087-5.825-11.983l-.563-4.101a6.555 6.555 0 01.371-3.271c.125-.32.28-.644.476-.95.338-.531.492-1.157.446-1.783-.12-1.636-.079-4.708 1.696-6.076a5.014 5.014 0 01-1.107-.23c-1.583-.527-4.065-1.054-6.088-.144-2.389 1.075-2.453 4.64-2.32 6.45a2.917 2.917 0 01-.446 1.783c-.195.306-.351.63-.476.95a6.555 6.555 0 00-.371 3.271l.563 4.101c0 5.897 3.148 9.904 5.825 11.983a7.998 7.998 0 008.808.653 7.919 7.919 0 01-.989-.653z" fill="#FCAD6D"/><path d="M69.935 35.404c-4.376.597-4.792 3.078-4.794 3.988a.501.501 0 01-.278.452c-2.276 1.107-1.05 6.444-1.05 6.444.23.016.572.212.75.299.044-.273.116-.54.217-.8.076-.196.172-.395.292-.584.209-.327.303-.712.275-1.097-.082-1.114-.146-3.204 1.324-3.865 1.245-.56 2.772-.236 3.746.088a3.09 3.09 0 001.95 0c.975-.324 2.502-.648 3.747-.088 1.466.66 1.406 2.74 1.325 3.855-.028.389.064.778.274 1.107.124.194.222.4.3.604.097.253.166.514.208.78.225-.11.65-.332.925-.293.034-1.167.142-2.425.142-2.425 1.297-6.352-4.64-9.107-9.353-8.465z" fill="#2A428C"/><path d="M69.935 35.405c-4.376.596-4.792 3.078-4.794 3.988a.5.5 0 01-.278.451c-2.276 1.108-1.05 6.445-1.05 6.445.23.015.572.212.75.298.044-.272.116-.54.217-.798.076-.198.172-.397.292-.585.209-.327.303-.712.275-1.097-.082-1.114-.146-3.204 1.324-3.866 1.245-.56 2.772-.236 3.746.089.267.088.543.137.82.151a2.888 2.888 0 00-.139-.216c-1.877-2.64.733-4.562 1.237-4.898a10.28 10.28 0 00-2.4.038z" fill="#1C2E7A"/><path d="M79.536 46.446c-.341-.313-1.02-.154-1.314.037.065.4.068.81.013 1.215l-.347 2.523c0 .203-.006.403-.018.599.845.255 1.265-.504 1.335-1.024.03-.224.08-.445.15-.66.224-.702 1.035-1.908.18-2.69z" fill="#FCAD6D"/><path d="M63.25 46.446c.342-.313 1.02-.154 1.314.037-.064.4-.068.81-.012 1.215l.346 2.523c0 .203.007.403.018.599-.844.255-1.264-.504-1.335-1.024a3.87 3.87 0 00-.149-.66c-.225-.702-1.035-1.908-.181-2.69z" fill="#FD995B"/><path d="M78.117 45.704a3.37 3.37 0 00-.3-.604 1.813 1.813 0 01-.274-1.107c.081-1.116.038-3.3-1.428-3.96-1.245-.56-2.772-.235-3.746.089-.633.21-1.318.21-1.951 0-.974-.324-2.501-.648-3.746-.088-1.47.661-1.51 2.855-1.428 3.969.028.385-.066.77-.275 1.097-.12.188-.216.387-.292.585a4.033 4.033 0 00-.229 2.013l.347 2.523c0 3.629 1.937 6.095 3.584 7.374a4.916 4.916 0 003.014 1.03 4.915 4.915 0 003.014-1.03c1.648-1.28 3.584-3.745 3.584-7.374l.347-2.523a4.03 4.03 0 00-.22-1.994z" fill="#F9BA8F"/><path d="M73.19 57.595c-1.647-1.28-3.584-3.745-3.584-7.373l-.346-2.524a4.035 4.035 0 01.228-2.013c.077-.197.173-.397.293-.585.208-.327.303-.712.275-1.097-.074-1.007-.049-2.897 1.043-3.739a3.078 3.078 0 01-.681-.142c-.974-.324-2.501-.648-3.746-.088-1.47.661-1.51 2.855-1.428 3.969.028.385-.066.77-.275 1.097-.12.188-.216.387-.292.585a4.033 4.033 0 00-.229 2.013l.347 2.523c0 3.629 1.937 6.095 3.584 7.374a4.916 4.916 0 005.42.402 4.898 4.898 0 01-.608-.402z" fill="#FCAD6D"/><path d="M19.15 35.917c-4.376.596-4.792 3.078-4.794 3.988a.501.501 0 01-.278.451c-2.277 1.108-1.05 6.445-1.05 6.445.23.015.572.212.75.298.044-.272.116-.54.216-.798.077-.198.173-.397.293-.585.208-.327.303-.712.275-1.097-.082-1.114-.146-3.204 1.324-3.865 1.245-.56 2.772-.236 3.746.088a3.09 3.09 0 001.95 0c.975-.324 2.502-.649 3.747-.088 1.466.659 1.406 2.739 1.325 3.855-.029.388.064.778.274 1.107.123.194.222.4.3.603.096.253.165.515.208.78.225-.11.65-.331.925-.292.034-1.167.142-2.426.142-2.426 1.297-6.352-4.64-9.106-9.353-8.464z" fill="#2A428C"/><path d="M19.15 35.918c-4.376.596-4.792 3.077-4.794 3.988a.501.501 0 01-.278.451c-2.277 1.107-1.05 6.445-1.05 6.445.23.015.572.211.75.298.044-.272.116-.54.216-.799.077-.197.173-.396.293-.584.208-.327.303-.712.275-1.098-.082-1.113-.146-3.204 1.324-3.865 1.245-.56 2.772-.236 3.746.088.267.089.543.138.82.152a2.835 2.835 0 00-.139-.217c-1.877-2.639.733-4.562 1.236-4.898-.808-.08-1.62-.068-2.399.039z" fill="#1C2E7A"/><path d="M28.75 46.958c-.341-.312-1.02-.154-1.314.037.064.4.068.81.013 1.215l-.347 2.523c0 .204-.006.403-.018.6.845.254 1.264-.504 1.335-1.024.03-.225.08-.445.15-.66.224-.703 1.035-1.908.18-2.69z" fill="#FCAD6D"/><path d="M12.466 46.958c.34-.312 1.02-.154 1.313.037-.064.4-.068.81-.012 1.215l.346 2.523c0 .204.007.403.018.6-.845.254-1.264-.504-1.335-1.024a3.871 3.871 0 00-.149-.66c-.225-.703-1.036-1.908-.181-2.69z" fill="#FD995B"/><path d="M27.332 46.216a3.37 3.37 0 00-.3-.604 1.814 1.814 0 01-.274-1.106c.081-1.116.038-3.3-1.428-3.96-1.245-.56-2.772-.235-3.746.089-.633.21-1.319.21-1.951 0-.974-.324-2.501-.649-3.747-.088-1.47.66-1.509 2.855-1.427 3.969.028.385-.066.77-.275 1.097-.12.188-.216.387-.292.584a4.036 4.036 0 00-.229 2.013l.347 2.524c0 3.628 1.936 6.094 3.584 7.374a4.916 4.916 0 003.014 1.03 4.915 4.915 0 003.014-1.03c1.648-1.28 3.584-3.746 3.584-7.374l.347-2.523a4.032 4.032 0 00-.22-1.995z" fill="#F9BA8F"/><path d="M22.405 58.107c-1.647-1.28-3.584-3.746-3.584-7.374l-.346-2.524a4.033 4.033 0 01.228-2.013c.077-.197.173-.396.293-.584.208-.327.303-.712.275-1.098-.074-1.006-.049-2.896 1.043-3.738a3.088 3.088 0 01-.681-.142c-.974-.324-2.501-.649-3.747-.088-1.47.66-1.509 2.855-1.427 3.968.028.386-.066.771-.275 1.098-.12.188-.216.387-.292.584a4.035 4.035 0 00-.229 2.013l.347 2.524c0 3.628 1.936 6.094 3.584 7.374a4.916 4.916 0 005.42.402 4.846 4.846 0 01-.608-.402z" fill="#FCAD6D"/></g><defs><clipPath id="bclip0"><path fill="#fff" d="M0 0h92v92H0z"/></clipPath></defs></svg><svg fill="none" viewBox="0 0 90 90" id="advantages3" xmlns="http://www.w3.org/2000/svg"><path d="M45.42 82.017l32.762-7.63a42.89 42.89 0 009.885-27.454C88.067 23.148 68.786 3.866 45 3.866c-23.785 0-43.066 19.282-43.066 43.067A42.89 42.89 0 0011.999 74.6l33.421 7.417z" fill="#FFC839"/><path d="M20.67 76.91a10.135 10.135 0 006.216 2.125c2.254 0 4.442-.748 6.215-2.125a19.42 19.42 0 003.933-4.147 28.92 28.92 0 00-1.039-.28 1.624 1.624 0 01-.925-.626c-.989-1.395-1.263-3.552-1.316-5.116a14.679 14.679 0 01-2.118 2.024 7.76 7.76 0 01-9.5 0 14.684 14.684 0 01-2.118-2.024c-.056 1.6-.34 3.817-1.384 5.208a1.406 1.406 0 01-.781.513c-.376.093-.748.195-1.116.302a19.412 19.412 0 003.933 4.146z" fill="#FCAD6D"/><path d="M26.633 70.384a7.73 7.73 0 01-4.498-1.619 14.68 14.68 0 01-2.117-2.024c-.056 1.6-.34 3.817-1.384 5.208a1.406 1.406 0 01-.781.513c-.376.093-.748.195-1.116.302a19.408 19.408 0 003.933 4.146 10.1 10.1 0 002.816 1.538c1.97-2.599 2.799-5.826 3.147-8.064z" fill="#FD995B"/><path d="M39.514 81.603c1.587-3.175 4.12-4.541 5.907-5.128-.54-.158-.997-.457-1.763-.889-2.175-1.227-4.428-2.205-6.883-2.893a18.824 18.824 0 01-3.863 4.088 9.827 9.827 0 01-6.026 2.06 9.826 9.826 0 01-6.027-2.06 18.812 18.812 0 01-3.863-4.09 30.042 30.042 0 00-4.997 1.909c6.454 7.69 15.544 13.09 25.88 14.811.336-2.78.863-6.264 1.635-7.808z" fill="#3C58A0"/><path d="M19.565 81.685c1.722-.816 3.04-2.028 4.046-3.404a9.793 9.793 0 01-2.752-1.5 18.81 18.81 0 01-3.863-4.09 30.042 30.042 0 00-4.997 1.909 43.327 43.327 0 007.566 7.085z" fill="#1C2E7A"/><path d="M61.22 12.96a1.948 1.948 0 100-3.896 1.948 1.948 0 000 3.896zM54.576 12.96a1.948 1.948 0 100-3.896 1.948 1.948 0 000 3.896zM47.93 12.96a1.948 1.948 0 100-3.896 1.948 1.948 0 000 3.896z" fill="#4FABF7"/><path d="M75.65 53.363a23.194 23.194 0 01-.262 3.776c-.704 3.102-1.72 5.803-3.02 8.027a11.934 11.934 0 01-2.185 2.725l-.11.103v.694c0 .72.28 1.386.756 2a25.369 25.369 0 006.721-1.317c2.152-.741 3.093-3.291 1.918-5.24-2.768-4.587-2.355-10.768-2.355-10.768h-1.464z" fill="#2A428C"/><path d="M79.467 64.132c-.26-.43-.491-.875-.698-1.327-3.221 1.868-4.508-.78-4.508-.78s-.084-.121-.236-.348a23.98 23.98 0 01-1.658 3.49 11.94 11.94 0 01-2.186 2.724l-.11.103v.695c0 .72.28 1.386.757 1.999a25.37 25.37 0 006.721-1.317c2.152-.74 3.094-3.291 1.918-5.24zM52.356 69.371a25.374 25.374 0 006.722 1.317c.476-.613.756-1.279.756-1.999v-.853l-.105-.102a11.945 11.945 0 01-2.018-2.567c-1.3-2.226-2.316-4.925-3.019-8.024a21.444 21.444 0 01-.262-3.779h-1.636s.412 6.18-2.355 10.768c-1.176 1.948-.234 4.498 1.917 5.24z" fill="#1C2E7A"/><path d="M71.289 35.553c-1.659-.856-3.72-1.45-6.25-1.45-2.529 0-4.591.594-6.25 1.45a10.81 10.81 0 00-5.866 9.604V50.108c.572-.013 1.206.174 1.614.446.15-.492.356-.918.634-1.231a1.59 1.59 0 00.419-1.005c.042-1.428.417-4.805 2.934-6.098.7-.36 1.557-.085 1.951.597 1.516 2.628 5.051 6.091 12.914 4.615a.926.926 0 011.1.878v.009c.01.373.168.722.418 1.004.278.314.484.74.634 1.231.408-.271 1.042-.459 1.614-.446V45.157a10.81 10.81 0 00-5.866-9.604z" fill="#2A428C"/><path d="M64.887 46.55c-3.897-7.444 3.425-12.083 3.425-12.083-.992-.23-2.08-.362-3.274-.362-2.529 0-4.59.593-6.25 1.449a10.81 10.81 0 00-5.866 9.604V50.109c.573-.013 1.206.174 1.614.446.15-.492.356-.918.634-1.231.25-.282.408-.631.419-1.005.043-1.428.418-4.806 2.934-6.098.7-.36 1.557-.085 1.951.597.82 1.421 2.231 3.084 4.596 4.08l-.183-.347z" fill="#1C2E7A"/><path d="M54.437 57.191s-.657-4.16.1-6.636c-.687-.458-2.014-.681-2.61-.098-1.223 1.194-.327 2.998.101 4.138.132.35.217.703.255 1.058.083.77.5 1.898 2.233 1.871l-.079-.333z" fill="#FD995B"/><path d="M78.151 50.456c-.596-.583-1.923-.36-2.61.098.757 2.477.1 6.636.1 6.636l-.079.333c1.732.027 2.15-1.1 2.233-1.871.038-.355.123-.708.255-1.058.428-1.14 1.323-2.944.102-4.138z" fill="#FCAD6D"/><path d="M24.588 34.247c-6.897.94-7.553 4.85-7.556 6.285 0 .3-.167.58-.438.711-3.588 1.746-1.653 10.158-1.653 10.158.36.024.9.333 1.182.47.069-.43.181-.851.34-1.26.12-.31.272-.624.461-.92a2.829 2.829 0 00.433-1.73c-.129-1.755-.23-5.05 2.087-6.092 1.962-.883 4.37-.372 5.904.139a4.875 4.875 0 003.074 0c1.535-.51 3.943-1.022 5.905-.139 2.31 1.04 2.215 4.318 2.087 6.077a2.858 2.858 0 00.432 1.744c.196.306.35.63.473.952.153.398.262.81.329 1.228.354-.171 1.024-.522 1.458-.46.053-1.84.223-3.823.223-3.823 2.044-10.011-7.314-14.352-14.74-13.34z" fill="#2A428C"/><path d="M24.588 34.247c-6.897.94-7.553 4.85-7.556 6.285 0 .301-.167.58-.438.712-3.588 1.745-1.653 10.157-1.653 10.157.36.024.9.333 1.182.47.069-.43.181-.851.34-1.259.12-.31.272-.625.461-.921a2.829 2.829 0 00.433-1.73c-.129-1.754-.23-5.05 2.087-6.091 1.962-.883 4.37-.372 5.904.138.42.14.855.217 1.292.24a4.513 4.513 0 00-.218-.342c-2.96-4.16 1.154-7.19 1.947-7.72a16.227 16.227 0 00-3.78.061z" fill="#1C2E7A"/><path d="M39.717 51.648c-.537-.492-1.607-.243-2.07.059.101.631.107 1.277.02 1.914l-.547 3.977c0 .32-.01.635-.028.944 1.331.402 1.992-.793 2.104-1.614.048-.353.126-.7.235-1.04.354-1.107 1.632-3.006.286-4.24z" fill="#FCAD6D"/><path d="M14.052 51.648c.537-.492 1.607-.243 2.07.059a6.49 6.49 0 00-.02 1.914l.546 3.977c0 .32.01.635.03.944-1.332.402-1.994-.793-2.105-1.614a6.104 6.104 0 00-.235-1.04c-.354-1.107-1.632-3.006-.286-4.24z" fill="#FD995B"/><path d="M37.482 50.478a5.3 5.3 0 00-.473-.952 2.858 2.858 0 01-.432-1.744c.128-1.76.06-5.2-2.25-6.24-1.963-.883-4.37-.372-5.905.139a4.876 4.876 0 01-3.074 0c-1.535-.51-3.942-1.022-5.905-.139-2.316 1.042-2.378 4.5-2.25 6.255a2.83 2.83 0 01-.432 1.73c-.19.296-.34.61-.462.921a6.356 6.356 0 00-.36 3.172l.547 3.978c0 5.718 3.052 9.605 5.649 11.621a7.746 7.746 0 004.75 1.625 7.745 7.745 0 004.75-1.625c2.597-2.016 5.65-5.903 5.65-11.621l.546-3.977a6.363 6.363 0 00-.349-3.143z" fill="#F9BA8F"/><path d="M29.717 69.22c-2.596-2.017-5.649-5.904-5.649-11.622l-.546-3.978a6.359 6.359 0 01.36-3.172c.12-.31.272-.625.46-.922a2.83 2.83 0 00.434-1.729c-.117-1.586-.077-4.565 1.644-5.892a4.857 4.857 0 01-1.073-.224c-1.535-.51-3.942-1.022-5.905-.139-2.316 1.042-2.378 4.5-2.25 6.255a2.83 2.83 0 01-.432 1.73c-.19.296-.34.61-.462.921a6.356 6.356 0 00-.36 3.172l.547 3.978c0 5.718 3.052 9.605 5.649 11.621a7.756 7.756 0 008.542.634 7.69 7.69 0 01-.959-.634z" fill="#FCAD6D"/><path d="M47.825 27.345a1.949 1.949 0 10-3.6-1.493 1.949 1.949 0 003.6 1.492zM37.413 26.595a1.948 1.948 0 103.897 0 1.948 1.948 0 00-3.897 0zM34.529 27.346a1.949 1.949 0 10-3.6-1.492 1.949 1.949 0 003.6 1.492z" fill="#E9EFFF"/><path d="M54.11 74.098c1.922 3.289 4.832 5.847 8.417 7.398a6.385 6.385 0 005.052 0c3.584-1.551 6.495-4.11 8.417-7.398.077-.131.151-.265.227-.398-3.011-1.168-5.792-2.823-5.792-4.983v-1.025c-1.325 1.185-3.597 2.694-5.469 2.74-1.87-.046-4.143-1.555-5.468-2.74 0 1.413.375 3.114-4.065 5.27-.499.241-1.03.47-1.577.684.086.151.17.303.258.452z" fill="#FCAD6D"/><path d="M59.494 67.692c0 1.413.375 3.114-4.065 5.27-.499.241-1.03.47-1.577.684.086.151.17.303.258.452a17.65 17.65 0 005.17 5.59c3.562-2.617 4.92-6.622 5.439-9.274-1.822-.16-3.957-1.588-5.225-2.722z" fill="#FD995B"/><path d="M45 90c13.35 0 25.282-6.076 33.181-15.613a33.272 33.272 0 01-2.374-.853c-.1.18-.202.36-.304.536-1.836 3.142-4.617 5.586-8.041 7.067a6.1 6.1 0 01-4.826 0c-3.424-1.481-6.205-3.925-8.04-7.067-.114-.194-.225-.39-.335-.589-3.552 1.464-7.937 2.315-7.956 2.32-1.607.308-5.134 1.43-7.143 5.45-.8 1.597-1.336 5.273-1.67 8.095 2.438.428 4.947.653 7.508.653z" fill="#FC90CE"/><path d="M56.91 81.051a12.33 12.33 0 002.681-1.6 16.864 16.864 0 01-4.996-5.381c-.113-.194-.224-.39-.334-.589-3.552 1.464-7.937 2.315-7.956 2.32-1.607.308-5.134 1.43-7.143 5.45-.8 1.597-1.336 5.273-1.67 8.095a43.309 43.309 0 0011.422.475c.04-5.472.582-5.521 7.995-8.77z" fill="#F964B2"/><path d="M74.575 48.316a11.594 11.594 0 00-.038-.647 1.18 1.18 0 00-1.195-.49c-7.498 1.407-11.013-1.666-12.642-4.49a1.758 1.758 0 00-1.36-.879c-.463.129-.888.321-1.274.578-2.197 1.463-2.523 4.633-2.562 5.928-.01.34-.147.669-.397.95-1.376 1.55-1.075 6.08-.754 7.944.711 3.137 1.74 5.873 3.06 8.13 1.34 2.293 3.368 4.076 5.866 5.157a4.45 4.45 0 003.52 0c2.499-1.081 4.527-2.864 5.867-5.156 1.319-2.258 2.349-4.993 3.06-8.137.31-1.96.638-6.37-.754-7.938a1.497 1.497 0 01-.397-.95z" fill="#F9BA8F"/><path d="M66.608 65.34c-1.32-2.258-2.35-4.993-3.06-8.13-.321-1.865-.622-6.394.753-7.944.25-.281.387-.61.397-.95.013-.427.058-1.059.19-1.766-2.058-.944-3.365-2.434-4.188-3.862a1.758 1.758 0 00-1.36-.878 4.41 4.41 0 00-1.274.578c-2.197 1.463-2.523 4.633-2.562 5.928-.01.34-.147.669-.397.95-1.376 1.55-1.075 6.079-.754 7.944.711 3.137 1.74 5.873 3.06 8.13 1.34 2.293 3.368 4.076 5.866 5.156a4.45 4.45 0 003.52 0 12.846 12.846 0 002.838-1.685 12.283 12.283 0 01-3.03-3.47z" fill="#FCAD6D"/></svg><svg viewBox="0 0 900 600" id="flag-fr" xmlns="http://www.w3.org/2000/svg"><path fill="#ED2939" d="M0 0h900v600H0z"/><path fill="#fff" d="M0 0h600v600H0z"/><path fill="#002395" d="M0 0h300v600H0z"/></svg><svg fill="none" viewBox="0 0 108 15" id="logo" xmlns="http://www.w3.org/2000/svg"><path d="M2.896 14H.234V.696h2.662v5.325h5.316V.696h2.663V14H8.212V8.684H2.896V14zm23.49-6.596c0 .63-.083 1.24-.25 1.827a6.983 6.983 0 01-.686 1.643 6.865 6.865 0 01-1.076 1.391 7.14 7.14 0 01-1.392 1.086 6.77 6.77 0 01-1.642.686 6.652 6.652 0 01-1.828.25c-.63 0-1.24-.083-1.827-.25a6.983 6.983 0 01-1.642-.686 7.143 7.143 0 01-1.392-1.086 7.14 7.14 0 01-1.086-1.392 7.285 7.285 0 01-.695-1.642 6.893 6.893 0 01-.242-1.827c0-.631.08-1.24.242-1.828a7.054 7.054 0 01.695-1.642 7.144 7.144 0 011.086-1.392c.42-.42.884-.779 1.392-1.076A6.984 6.984 0 0117.684.78a6.652 6.652 0 011.827-.25c.631 0 1.24.083 1.828.25a6.772 6.772 0 013.034 1.762 6.772 6.772 0 011.763 3.034c.166.588.25 1.197.25 1.828zm-2.643 0c0-.582-.112-1.129-.334-1.642a4.167 4.167 0 00-.91-1.345 4.168 4.168 0 00-1.345-.91 4.082 4.082 0 00-1.642-.334c-.587 0-1.138.112-1.651.334a4.306 4.306 0 00-1.345.91 4.169 4.169 0 00-.91 1.345 4.083 4.083 0 00-.333 1.642c0 .581.11 1.129.333 1.642a4.304 4.304 0 002.254 2.245 4.104 4.104 0 001.652.334c.582 0 1.129-.111 1.642-.334.52-.223.968-.526 1.346-.91.383-.383.686-.828.909-1.335.222-.513.334-1.06.334-1.642zm14.89 1.28c0 .736-.14 1.429-.418 2.078a5.39 5.39 0 01-1.14 1.689 5.441 5.441 0 01-1.699 1.131 5.154 5.154 0 01-2.068.418 5.22 5.22 0 01-2.078-.418 5.472 5.472 0 01-1.689-1.131 5.472 5.472 0 01-1.132-1.689 5.22 5.22 0 01-.417-2.078V.696h2.653v7.988c0 .365.068.708.204 1.03.142.322.334.603.575.844.242.241.523.433.845.575.327.136.674.204 1.039.204.364 0 .708-.068 1.03-.204.327-.142.612-.334.853-.575a2.63 2.63 0 00.566-.844c.142-.322.213-.665.213-1.03V.696h2.663v7.988zm1.53-3.998c0-.55.106-1.067.316-1.55a4.06 4.06 0 012.124-2.124c.483-.21 1-.316 1.55-.316h6.104V3.36h-6.104a1.32 1.32 0 00-1.225.807 1.389 1.389 0 000 1.048c.068.161.161.303.279.427.123.118.265.21.426.278.161.068.334.102.52.102h2.662c.55 0 1.067.106 1.55.316.488.204.912.489 1.27.853.366.36.65.783.854 1.271.21.483.316 1 .316 1.55s-.105 1.067-.316 1.55a3.963 3.963 0 01-2.124 2.124c-.483.21-1 .315-1.55.315h-5.91v-2.663h5.91a1.32 1.32 0 001.225-.807c.068-.16.102-.334.102-.52 0-.185-.034-.358-.102-.519a1.23 1.23 0 00-.288-.417 1.23 1.23 0 00-.417-.288 1.32 1.32 0 00-.52-.102h-2.662c-.55 0-1.067-.105-1.55-.315a4.175 4.175 0 01-1.27-.854 4.175 4.175 0 01-.854-1.27 3.9 3.9 0 01-.315-1.56z" fill="#fff"/><path d="M61.678 14h-9.12V.696h9.12V3.36H55.22V6.02h4.37v2.663h-4.37v2.653h6.457V14zm.937-9.314c0-.55.105-1.067.315-1.55a4.06 4.06 0 012.125-2.124c.482-.21.998-.316 1.549-.316h6.105V3.36h-6.105a1.32 1.32 0 00-1.225.807 1.389 1.389 0 000 1.048c.068.161.161.303.279.427.123.118.266.21.427.278.16.068.334.102.519.102h2.663c.55 0 1.067.106 1.549.316.489.204.912.489 1.27.853.366.36.65.783.854 1.271.21.483.316 1 .316 1.55s-.105 1.067-.316 1.55a3.965 3.965 0 01-2.124 2.124c-.483.21-.999.315-1.55.315h-5.91v-2.663h5.91a1.32 1.32 0 001.225-.807 1.32 1.32 0 00.102-.52 1.32 1.32 0 00-.102-.519 1.23 1.23 0 00-.287-.417 1.23 1.23 0 00-.418-.288 1.32 1.32 0 00-.52-.102h-2.662c-.55 0-1.067-.105-1.55-.315a4.175 4.175 0 01-1.27-.854 4.175 4.175 0 01-.854-1.27 3.9 3.9 0 01-.315-1.56zm20.224 3.998V6.021c0-.364-.07-.708-.213-1.03a2.606 2.606 0 00-.566-.853 2.607 2.607 0 00-.853-.566 2.517 2.517 0 00-1.03-.213c-.365 0-.712.071-1.04.213a2.63 2.63 0 00-.844.566 2.728 2.728 0 00-.575.854 2.615 2.615 0 00-.204 1.03v2.662h5.325zM85.502 14h-2.663v-2.663h-5.325V14h-2.653V6.021c0-.736.139-1.425.417-2.068a5.44 5.44 0 011.132-1.698A5.39 5.39 0 0178.1 1.114a5.22 5.22 0 012.078-.418c.736 0 1.425.14 2.069.418.649.278 1.215.658 1.697 1.14a5.361 5.361 0 011.142 1.699c.278.643.417 1.332.417 2.068V14zm11.624 0h-9.314V.696h2.663v10.641h6.651V14zm10.512 0h-9.12V.696h9.12V3.36h-6.457V6.02h4.369v2.663h-4.369v2.653h6.457V14z" fill="#FFC839"/></svg><svg fill="none" viewBox="0 0 12 16" id="services-arrow" xmlns="http://www.w3.org/2000/svg"><path d="M1 1l9.145 5.225a1 1 0 01.085 1.682L1 14.5" stroke="#000" stroke-width="2"/></svg></svg>