<svg xmlns="http://www.w3.org/2000/svg"
 xmlns:xlink="http://www.w3.org/1999/xlink"
 width="19px" height="19px"  viewBox="0 0 19 19">
<path fill-rule="evenodd"  fill="#f3f3f3"
 d="M16.76184,16.57277 C16.76184,16.57277 13.002075,12.6122055 13.002075,12.6122055 C13.96875,11.44841 14.498413,9.983902 14.498413,8.4591675 C14.498413,4.8977966 11.637207,1.9997063 8.120483,1.9997063 C4.60376,1.9997063 1.7425537,4.8977966 1.7425537,8.4591675 C1.7425537,12.021355 4.60376,14.919449 8.120483,14.919449 C9.440674,14.919449 10.698853,14.51619 11.774414,13.750359 C11.774414,13.750359 15.562622,17.741035 15.562622,17.741035 C15.721069,17.907463 15.934082,17.999023 16.16211,17.999023 C16.378296,17.999023 16.58313,17.916008 16.738647,17.764229 C17.069214,17.441948 17.079834,16.907661 16.76184,16.57277 ZM8.120483,3.6847687 C10.719971,3.6847687 12.834595,5.826393 12.834595,8.4591675 C12.834595,11.091949 10.719971,13.233978 8.120483,13.233978 C5.521118,13.233978 3.406372,11.091949 3.406372,8.4591675 C3.406372,5.826393 5.521118,3.6847687 8.120483,3.6847687 Z"/>
</svg>