<svg xmlns="http://www.w3.org/2000/svg" xmlns:xlink="http://www.w3.org/1999/xlink" style="display: none">
  <symbol id="facebook" viewBox="0 0 512 512">
		<path d="M452,0H60C26.916,0,0,26.916,0,60v392c0,33.084,26.916,60,60,60h392c33.084,0,60-26.916,60-60V60C512,26.916,485.084,0,452,0z M472,452c0,11.028-8.972,20-20,20H338V309h61.79L410,247h-72v-43c0-16.975,13.025-30,30-30h41v-62h-41c-50.923,0-91.978,41.25-91.978,92.174V247H216v62h60.022v163H60c-11.028,0-20-8.972-20-20V60c0-11.028,8.972-20,20-20h392c11.028,0,20,8.972,20,20V452z"/>
  </symbol>

  <symbol id="twitter" viewBox="0 0 512 512">
			<path d="M512,97.248c-19.04,8.352-39.328,13.888-60.48,16.576c21.76-12.992,38.368-33.408,46.176-58.016c-20.288,12.096-42.688,20.64-66.56,25.408C411.872,60.704,384.416,48,354.464,48c-58.112,0-104.896,47.168-104.896,104.992c0,8.32,0.704,16.32,2.432,23.936c-87.264-4.256-164.48-46.08-216.352-109.792c-9.056,15.712-14.368,33.696-14.368,53.056c0,36.352,18.72,68.576,46.624,87.232c-16.864-0.32-33.408-5.216-47.424-12.928c0,0.32,0,0.736,0,1.152c0,51.008,36.384,93.376,84.096,103.136c-8.544,2.336-17.856,3.456-27.52,3.456c-6.72,0-13.504-0.384-19.872-1.792c13.6,41.568,52.192,72.128,98.08,73.12c-35.712,27.936-81.056,44.768-130.144,44.768c-8.608,0-16.864-0.384-25.12-1.44C46.496,446.88,101.6,464,161.024,464c193.152,0,298.752-160,298.752-298.688c0-4.64-0.16-9.12-0.384-13.568C480.224,136.96,497.728,118.496,512,97.248z"/>
  </symbol>

  <symbol id="telegram" viewBox="0 0 24 24">
			<path d="m9.417 15.181-.397 5.584c.568 0 .814-.244 1.109-.537l2.663-2.545 5.518 4.041c1.012.564 1.725.267 1.998-.931l3.622-16.972.001-.001c.321-1.496-.541-2.081-1.527-1.714l-21.29 8.151c-1.453.564-1.431 1.374-.247 1.741l5.443 1.693 12.643-7.911c.595-.394 1.136-.176.691.218z"/>
  </symbol>

  <symbol id="basketball" viewBox="0 0 512 512">
			<path d="M256,0C115.04,0,0,115.05,0,256c0,140.96,115.05,256,256,256c140.96,0,256-115.05,256-256C512,115.04,396.95,0,256,0z   M429.64,111.51c31.96,38.34,51.47,87.39,52.31,140.89c-40.06-9.37-84.55-10-129.86-1.74c-11.79,2.15-23.58,4.88-35.3,8.16  c-3.9-10.61-8.04-21.13-12.44-31.55c-4.49-10.63-9.23-21.08-14.19-31.38C344.15,175.27,402.65,144.57,429.64,111.51z M256,30  c58.82,0,112.45,22.59,152.7,59.54C393,110.95,348.26,142.12,276.48,169c-25.06-46.66-55.11-89.54-89.83-128.1  C208.51,33.83,231.82,30,256,30z M156.95,52.9c35.41,37.93,65.87,80.29,90.96,126.05c-74.68,24.17-150.29,34.03-212.46,27.66  C50.59,138.96,96.14,82.67,156.95,52.9z M30,256c0-6.64,0.31-13.21,0.87-19.7c13.72,1.45,28.03,2.18,42.82,2.18  c58.33,0,123.86-11.22,188.21-32.53c9.82,20.1,18.65,40.78,26.44,61.97c-25.09,9.02-49.51,20.49-72.44,34.14  c-56.22,33.47-97.35,76.53-114.41,118.71C57.52,379.51,30,320.91,30,256z M256,482c-48.29,0-93.09-15.23-129.86-41.14  c11.4-38.52,49.96-80.19,105.11-113.02c19.43-11.58,42.15-22.49,66.88-31.36c17.53,55.1,28.27,113.26,31.68,173.13  C306.67,477.63,281.84,482,256,482z M359.07,457.1c-4.16-58.32-15.02-115.1-32.45-169.64c48.6-13.36,102.58-17.84,153.77-4.56  C471.33,358.91,424.41,423.47,359.07,457.1z"/>
  </symbol>
  
  <symbol id="octagon" viewBox="0 0 73.935 73.935">
    <path d="M52.279,73.935H21.656L0,52.279V21.655L21.655,0h30.625l21.655,21.655v30.625L52.279,73.935z M22.898,70.935h28.139l19.898-19.897v-28.14L51.037,2.999H22.898L3,22.897v28.14L22.898,70.935z"/>
  </symbol>

  <symbol id="service1" viewBox="0 0 52 60">
    <path fill-rule="evenodd"  d="M42.34616,17.433105 C42.34616,8.371582 35.013428,0.99975586 25.99997,0.99975586 C16.986511,0.99975586 9.653809,8.371582 9.653809,17.433105 C9.653809,22.213135 11.756653,26.751709 15.33551,29.859375 C14.798035,30.387207 14.461487,31.119873 14.461487,31.932861 C14.461487,32.678467 14.750916,33.352295 15.211456,33.8667 C14.7499695,34.380615 14.461487,35.054443 14.461487,35.80005 C14.461487,36.54492 14.750916,37.218994 15.211456,37.733154 C14.7499695,38.24756 14.461487,38.921143 14.461487,39.666504 C14.461487,40.92505 15.268188,41.98828 16.384552,42.38867 C16.384552,42.38867 16.384552,49.333008 16.384552,49.333008 C16.384552,49.59326 16.490326,49.835938 16.668182,50.01465 C16.668182,50.01465 16.66626,50.0166 16.66626,50.0166 C16.66626,50.0166 25.320099,58.716553 25.320099,58.716553 C25.507599,58.90503 25.753845,58.99951 25.99997,58.99951 C26.246124,58.99951 26.49228,58.90503 26.679749,58.716553 C26.679749,58.716553 35.333588,50.0166 35.333588,50.0166 C35.333588,50.0166 35.331696,50.01465 35.331696,50.01465 C35.509552,49.835938 35.615295,49.59326 35.615295,49.333008 C35.615295,49.333008 35.615295,42.38867 35.615295,42.38867 C36.73169,41.98828 37.53839,40.92505 37.53839,39.666504 C37.53839,38.921143 37.248962,38.24756 36.78842,37.733154 C37.24991,37.218994 37.53839,36.54492 37.53839,35.80005 C37.53839,35.054443 37.248962,34.380615 36.78842,33.8667 C37.24991,33.352295 37.53839,32.678467 37.53839,31.932861 C37.53839,31.119873 37.201843,30.387207 36.664337,29.859375 C40.243195,26.751709 42.34616,22.213135 42.34616,17.433105 ZM25.99997,56.666504 C25.99997,56.666504 24.474976,55.133057 24.474976,55.133057 C24.474976,55.133057 27.524902,55.133057 27.524902,55.133057 C27.524902,55.133057 25.99997,56.666504 25.99997,56.666504 ZM29.447998,53.199707 C29.447998,53.199707 22.55188,53.199707 22.55188,53.199707 C22.55188,53.199707 18.855713,49.48291 18.855713,49.48291 C18.855713,49.48291 20.230713,48.561768 20.230713,48.561768 C20.230713,48.561768 22.581726,50.137207 22.581726,50.137207 C22.904724,50.35376 23.32492,50.35376 23.64804,50.137207 C23.64804,50.137207 25.99997,48.561768 25.99997,48.561768 C25.99997,48.561768 28.350891,50.137207 28.350891,50.137207 C28.67398,50.35376 29.094177,50.35376 29.417297,50.137207 C29.417297,50.137207 31.769135,48.561768 31.769135,48.561768 C31.769135,48.561768 33.144135,49.48413 33.144135,49.48413 C33.144135,49.48413 29.447998,53.199707 29.447998,53.199707 ZM33.69223,47.526367 C33.69223,47.526367 32.302826,46.59546 32.302826,46.59546 C31.979797,46.37915 31.55951,46.37915 31.236511,46.59546 C31.236511,46.59546 28.884552,48.171143 28.884552,48.171143 C28.884552,48.171143 26.53357,46.59546 26.53357,46.59546 C26.21054,46.37915 25.790375,46.37915 25.467255,46.59546 C25.467255,46.59546 23.115295,48.171143 23.115295,48.171143 C23.115295,48.171143 20.764404,46.59546 20.764404,46.59546 C20.441284,46.37915 20.021118,46.37915 19.697998,46.59546 C19.697998,46.59546 18.307648,47.526367 18.307648,47.526367 C18.307648,47.526367 18.307648,42.566406 18.307648,42.566406 C18.307648,42.566406 33.69223,42.566406 33.69223,42.566406 C33.69223,42.566406 33.69223,47.526367 33.69223,47.526367 ZM34.65381,40.6333 C34.65381,40.6333 17.34616,40.6333 17.34616,40.6333 C16.816284,40.6333 16.384552,40.19922 16.384552,39.666504 C16.384552,39.134033 16.816284,38.69995 17.34616,38.69995 C17.34616,38.69995 34.65381,38.69995 34.65381,38.69995 C35.183594,38.69995 35.615295,39.134033 35.615295,39.666504 C35.615295,40.19922 35.183594,40.6333 34.65381,40.6333 ZM34.65381,36.7666 C34.65381,36.7666 17.34616,36.7666 17.34616,36.7666 C16.816284,36.7666 16.384552,36.33252 16.384552,35.80005 C16.384552,35.26709 16.816284,34.833252 17.34616,34.833252 C17.34616,34.833252 34.65381,34.833252 34.65381,34.833252 C35.183594,34.833252 35.615295,35.26709 35.615295,35.80005 C35.615295,36.33252 35.183594,36.7666 34.65381,36.7666 ZM34.65381,32.89966 C34.65381,32.89966 17.34616,32.89966 17.34616,32.89966 C16.816284,32.89966 16.384552,32.46582 16.384552,31.932861 C16.384552,31.40039 16.816284,30.966309 17.34616,30.966309 C17.34616,30.966309 34.649994,30.966309 34.649994,30.966309 C34.649994,30.966309 34.66153,30.968262 34.66153,30.968262 C35.1875,30.972168 35.615295,31.402344 35.615295,31.932861 C35.615295,32.46582 35.183594,32.89966 34.65381,32.89966 ZM22.99228,18.281006 C23.168243,18.424072 23.38263,18.495605 23.59616,18.495605 C23.80957,18.495605 24.023956,18.424072 24.19992,18.281006 C25.344147,17.353027 25.99997,15.98584 25.99997,14.533203 C25.99997,14.310059 25.97882,14.0896 25.948975,13.871094 C25.940369,13.808105 25.928833,13.747314 25.917297,13.68457 C25.887451,13.518066 25.848999,13.35376 25.800964,13.192383 C25.785492,13.138428 25.772064,13.083984 25.754791,13.030762 C25.686523,12.825195 25.60669,12.624023 25.511505,12.429443 C25.49414,12.39502 25.472992,12.362061 25.454773,12.326172 C25.371124,12.164551 25.276917,12.008057 25.174957,11.857178 C25.157593,11.831299 25.145111,11.80249 25.126892,11.776123 C25.689362,11.588867 26.312408,11.588867 26.87497,11.776123 C26.856659,11.80249 26.844177,11.831299 26.826904,11.857178 C26.724976,12.009277 26.631683,12.164551 26.54712,12.326172 C26.528809,12.361328 26.50763,12.393799 26.490356,12.429443 C26.395172,12.624023 26.314392,12.825928 26.24707,13.030762 C26.229736,13.083984 26.216278,13.138428 26.200928,13.192383 C26.153809,13.35376 26.115387,13.518066 26.084564,13.68457 C26.073029,13.746338 26.061493,13.808105 26.052826,13.871094 C26.021149,14.0896 25.99997,14.310059 25.99997,14.533203 C25.99997,15.98584 26.655731,17.353027 27.799957,18.281006 C27.975891,18.424072 28.190369,18.495605 28.403809,18.495605 C28.617249,18.495605 28.831726,18.424072 29.00769,18.281006 C30.151886,17.353027 30.807648,15.98584 30.807648,14.533203 C30.807648,14.310059 30.786469,14.0896 30.756714,13.871094 C30.748047,13.808105 30.736511,13.747314 30.724976,13.68457 C30.695099,13.518066 30.656677,13.35376 30.608612,13.192383 C30.593262,13.138428 30.579712,13.083984 30.561493,13.030762 C30.493225,12.825195 30.413391,12.624023 30.318207,12.429443 C30.300964,12.393066 30.27884,12.359131 30.259583,12.323486 C30.17688,12.163818 30.084564,12.010254 29.984528,11.860352 C29.966309,11.832275 29.95288,11.80249 29.933594,11.775391 C30.215332,11.6813965 30.50763,11.633301 30.807648,11.633301 C32.344208,11.633301 33.69223,13.0859375 33.69223,14.743652 C33.69223,16.164795 33.069183,17.502686 31.982666,18.412598 C31.982666,18.412598 28.269165,21.52417 28.269165,21.52417 C28.049896,21.70752 27.923065,21.979248 27.923065,22.266357 C27.923065,22.266357 27.923065,29.032959 27.923065,29.032959 C27.923065,29.032959 24.076904,29.032959 24.076904,29.032959 C24.076904,29.032959 24.076904,22.266357 24.076904,22.266357 C24.076904,21.979248 23.949951,21.70752 23.730713,21.52417 C23.730713,21.52417 20.017303,18.412598 20.017303,18.412598 C18.930664,17.501953 18.307648,16.164795 18.307648,14.743652 C18.307648,13.0859375 19.655762,11.633301 21.19223,11.633301 C21.491302,11.633301 21.784546,11.6813965 22.065308,11.775391 C22.046143,11.80249 22.032593,11.833496 22.014374,11.860352 C21.913391,12.010254 21.822021,12.163818 21.73935,12.323486 C21.72113,12.359131 21.699005,12.393066 21.680695,12.429443 C21.58551,12.624023 21.505707,12.825195 21.437408,13.030762 C21.420166,13.083984 21.406708,13.13916 21.39029,13.192383 C21.3432,13.35376 21.304749,13.518066 21.273956,13.68457 C21.26242,13.746338 21.250885,13.808105 21.24228,13.871094 C21.213379,14.0896 21.19223,14.310059 21.19223,14.533203 C21.19223,15.98584 21.848053,17.353027 22.99228,18.281006 ZM23.115295,14.533203 C23.115295,14.340576 23.142303,14.152344 23.17978,13.966553 C23.189392,13.922363 23.198944,13.876709 23.21048,13.833496 C23.256653,13.652344 23.315308,13.4748535 23.396057,13.305664 C23.402832,13.292969 23.410553,13.280273 23.417236,13.267822 C23.467224,13.168213 23.534546,13.077148 23.59616,12.983643 C23.657654,13.077148 23.724976,13.168213 23.774963,13.267822 C23.7807,13.280273 23.789368,13.292236 23.796143,13.304443 C23.876923,13.4729 23.935547,13.650635 23.98172,13.832275 C23.993256,13.876709 24.002808,13.921143 24.01242,13.965576 C24.049896,14.152344 24.076904,14.340576 24.076904,14.533203 C24.076904,14.725342 24.049896,14.9140625 24.01242,15.099609 C24.002808,15.144043 23.993256,15.189697 23.98172,15.23291 C23.935547,15.413574 23.876923,15.591553 23.796143,15.760742 C23.790314,15.7734375 23.781647,15.785889 23.774963,15.798584 C23.724976,15.898193 23.657654,15.98877 23.59616,16.082764 C23.534546,15.98877 23.467224,15.898193 23.417236,15.798584 C23.410553,15.785889 23.401886,15.7734375 23.396057,15.760742 C23.315308,15.591553 23.256653,15.413574 23.21048,15.23291 C23.198944,15.188477 23.189392,15.144043 23.17978,15.099609 C23.142303,14.9140625 23.115295,14.725342 23.115295,14.533203 ZM27.923065,14.533203 C27.923065,14.340576 27.949951,14.152344 27.987427,13.966553 C27.99707,13.922363 28.006714,13.876709 28.01825,13.833496 C28.064392,13.652344 28.123047,13.4748535 28.203827,13.305664 C28.21051,13.292969 28.218231,13.280273 28.225006,13.267822 C28.274963,13.168213 28.342285,13.077148 28.403809,12.983643 C28.465332,13.077148 28.532654,13.168213 28.582642,13.267822 C28.58844,13.280273 28.597015,13.292236 28.60379,13.304443 C28.68457,13.4729 28.743225,13.650635 28.789368,13.832275 C28.800934,13.876709 28.810547,13.921143 28.82019,13.965576 C28.857666,14.152344 28.884552,14.340576 28.884552,14.533203 C28.884552,14.725342 28.857666,14.9140625 28.82019,15.099609 C28.810547,15.144043 28.800934,15.189697 28.789368,15.23291 C28.743225,15.413574 28.68457,15.591553 28.60379,15.760742 C28.597992,15.7734375 28.589386,15.785889 28.582642,15.798584 C28.532654,15.898193 28.465332,15.98877 28.403809,16.082764 C28.342285,15.98877 28.274963,15.898193 28.225006,15.798584 C28.218231,15.785889 28.209534,15.7734375 28.203827,15.760742 C28.123047,15.591553 28.064392,15.413574 28.01825,15.23291 C28.006714,15.188477 27.99707,15.144043 27.987427,15.099609 C27.949951,14.9140625 27.923065,14.725342 27.923065,14.533203 ZM34.63263,29.032959 C34.63263,29.032959 29.84616,29.032959 29.84616,29.032959 C29.84616,29.032959 29.84616,22.71875 29.84616,22.71875 C29.84616,22.71875 33.21338,19.896973 33.21338,19.896973 C34.740295,18.61914 35.615295,16.740234 35.615295,14.743652 C35.615295,12.010254 33.41336,9.699951 30.807648,9.699951 C29.953827,9.699951 29.13556,9.935791 28.40094,10.373535 C26.921143,9.51123 25.08075,9.51123 23.599976,10.373535 C22.86438,9.935791 22.046143,9.699951 21.19223,9.699951 C18.586487,9.699951 16.384552,12.010254 16.384552,14.743652 C16.384552,16.740234 17.259552,18.61914 18.786499,19.898193 C18.786499,19.898193 22.153809,22.71875 22.153809,22.71875 C22.153809,22.71875 22.153809,29.032959 22.153809,29.032959 C22.153809,29.032959 17.367218,29.032959 17.367218,29.032959 C13.735535,26.29541 11.576904,21.986084 11.576904,17.433105 C11.576904,9.437744 18.047089,2.9328613 25.99997,2.9328613 C33.95285,2.9328613 40.423065,9.437744 40.423065,17.433105 C40.423065,21.986084 38.264343,26.29541 34.63263,29.032959 ZM40.703827,5.151367 C40.703827,5.151367 44.55008,1.2849121 44.55008,1.2849121 C44.55008,1.2849121 45.909943,2.6518555 45.909943,2.6518555 C45.909943,2.6518555 42.06366,6.5183105 42.06366,6.5183105 C42.06366,6.5183105 40.703827,5.151367 40.703827,5.151367 ZM40.702393,29.714844 C40.702393,29.714844 42.062256,28.3479 42.062256,28.3479 C42.062256,28.3479 45.908417,32.2146 45.908417,32.2146 C45.908417,32.2146 44.548645,33.581787 44.548645,33.581787 C44.548645,33.581787 40.702393,29.714844 40.702393,29.714844 ZM45.230713,16.466553 C45.230713,16.466553 50.99997,16.466553 50.99997,16.466553 C50.99997,16.466553 50.99997,18.399902 50.99997,18.399902 C50.99997,18.399902 45.230713,18.399902 45.230713,18.399902 C45.230713,18.399902 45.230713,16.466553 45.230713,16.466553 ZM6.089447,2.6506348 C6.089447,2.6506348 7.4492188,1.2836914 7.4492188,1.2836914 C7.4492188,1.2836914 11.295471,5.1501465 11.295471,5.1501465 C11.295471,5.1501465 9.935608,6.51709 9.935608,6.51709 C9.935608,6.51709 6.089447,2.6506348 6.089447,2.6506348 ZM6.089081,32.21582 C6.089081,32.21582 9.935242,28.349121 9.935242,28.349121 C9.935242,28.349121 11.295074,29.716064 11.295074,29.716064 C11.295074,29.716064 7.448822,33.582764 7.448822,33.582764 C7.448822,33.582764 6.089081,32.21582 6.089081,32.21582 ZM0.9999695,16.466553 C0.9999695,16.466553 6.7691345,16.466553 6.7691345,16.466553 C6.7691345,16.466553 6.7691345,18.399902 6.7691345,18.399902 C6.7691345,18.399902 0.9999695,18.399902 0.9999695,18.399902 C0.9999695,18.399902 0.9999695,16.466553 0.9999695,16.466553 ZM37.53839,47.399902 C37.53839,47.399902 39.461487,47.399902 39.461487,47.399902 C39.461487,47.399902 39.461487,49.333008 39.461487,49.333008 C39.461487,49.333008 37.53839,49.333008 37.53839,49.333008 C37.53839,49.333008 37.53839,47.399902 37.53839,47.399902 ZM41.384552,47.399902 C41.384552,47.399902 43.307648,47.399902 43.307648,47.399902 C43.307648,47.399902 43.307648,49.333008 43.307648,49.333008 C43.307648,49.333008 41.384552,49.333008 41.384552,49.333008 C41.384552,49.333008 41.384552,47.399902 41.384552,47.399902 ZM45.230713,47.399902 C45.230713,47.399902 47.15381,47.399902 47.15381,47.399902 C47.15381,47.399902 47.15381,49.333008 47.15381,49.333008 C47.15381,49.333008 45.230713,49.333008 45.230713,49.333008 C45.230713,49.333008 45.230713,47.399902 45.230713,47.399902 ZM4.846161,47.399902 C4.846161,47.399902 6.7691345,47.399902 6.7691345,47.399902 C6.7691345,47.399902 6.7691345,49.333008 6.7691345,49.333008 C6.7691345,49.333008 4.846161,49.333008 4.846161,49.333008 C4.846161,49.333008 4.846161,47.399902 4.846161,47.399902 ZM8.69223,47.399902 C8.69223,47.399902 10.615295,47.399902 10.615295,47.399902 C10.615295,47.399902 10.615295,49.333008 10.615295,49.333008 C10.615295,49.333008 8.69223,49.333008 8.69223,49.333008 C8.69223,49.333008 8.69223,47.399902 8.69223,47.399902 ZM12.538391,47.399902 C12.538391,47.399902 14.461487,47.399902 14.461487,47.399902 C14.461487,47.399902 14.461487,49.333008 14.461487,49.333008 C14.461487,49.333008 12.538391,49.333008 12.538391,49.333008 C12.538391,49.333008 12.538391,47.399902 12.538391,47.399902 Z"/>
  </symbol>

  <symbol id="service2" viewBox="0 0 52 52">
    <path fill-rule="evenodd" d="M6.833252,44.333008 C3.6174316,44.333008 1.0,46.950684 1.0,50.16626 C1.0,50.62744 1.3724365,51.0 1.833313,51.0 C1.833313,51.0 11.833252,51.0 11.833252,51.0 C12.294067,51.0 12.666565,50.62744 12.666565,50.16626 C12.666565,46.950684 10.049133,44.333008 6.833252,44.333008 ZM2.7507324,49.333252 C3.0824585,47.7041 4.3707886,46.424072 5.999939,46.091553 C5.999939,46.091553 5.999939,47.66626 5.999939,47.66626 C5.999939,47.66626 7.666687,47.66626 7.666687,47.66626 C7.666687,47.66626 7.666687,46.091553 7.666687,46.091553 C9.295837,46.424805 10.5841675,47.7041 10.9158325,49.333252 C10.9158325,49.333252 2.7507324,49.333252 2.7507324,49.333252 ZM50.166565,36.833008 C50.166565,36.833008 48.704956,36.833008 48.704956,36.833008 C48.65912,36.71753 48.611633,36.602295 48.559937,36.48633 C48.559937,36.48633 49.594116,35.45215 49.594116,35.45215 C49.919983,35.126465 49.919983,34.599854 49.594116,34.27368 C49.594116,34.27368 46.059082,30.73877 46.059082,30.73877 C45.886597,30.566406 45.65912,30.491455 45.43329,30.502441 C46.75415,29.801514 47.666626,28.428955 47.666626,26.833252 C47.666626,26.833252 47.666626,5.166504 47.666626,5.166504 C47.666626,2.8691406 45.797424,0.99975586 43.49994,0.99975586 C43.49994,0.99975586 5.166626,0.99975586 5.166626,0.99975586 C2.8690796,0.99975586 1.0,2.8691406 1.0,5.166504 C1.0,5.166504 1.0,26.833252 1.0,26.833252 C1.0,29.13086 2.8690796,30.999756 5.166626,30.999756 C5.166626,30.999756 16.041626,30.999756 16.041626,30.999756 C16.041626,30.999756 12.8932495,36.833008 12.8932495,36.833008 C12.8932495,36.833008 12.666565,36.833008 12.666565,36.833008 C12.666565,36.833008 11.416626,36.833008 11.416626,36.833008 C9.80835,36.833008 8.5,38.1416 8.5,39.74951 C8.5,41.358154 9.80835,42.666748 11.416626,42.666748 C11.416626,42.666748 29.333252,42.666748 29.333252,42.666748 C29.333252,43.12744 29.70581,43.499756 30.166626,43.499756 C30.166626,43.499756 31.628296,43.499756 31.628296,43.499756 C31.674072,43.61548 31.72168,43.730713 31.773254,43.84668 C31.773254,43.84668 30.739075,44.88086 30.739075,44.88086 C30.41333,45.2063 30.41333,45.73291 30.739075,46.059082 C30.739075,46.059082 34.274048,49.593994 34.274048,49.593994 C34.599976,49.919678 35.126648,49.919678 35.452454,49.593994 C35.452454,49.593994 36.486572,48.559814 36.486572,48.559814 C36.602478,48.611572 36.71747,48.65869 36.833252,48.704834 C36.833252,48.704834 36.833252,50.16626 36.833252,50.16626 C36.833252,50.62744 37.20575,51.0 37.666565,51.0 C37.666565,51.0 42.666626,51.0 42.666626,51.0 C43.12744,51.0 43.49994,50.62744 43.49994,50.16626 C43.49994,50.16626 43.49994,48.704834 43.49994,48.704834 C43.615784,48.65869 43.730835,48.611572 43.846558,48.559814 C43.846558,48.559814 44.880737,49.593994 44.880737,49.593994 C45.206604,49.919678 45.733215,49.919678 46.059082,49.593994 C46.059082,49.593994 49.594116,46.059082 49.594116,46.059082 C49.919983,45.73291 49.919983,45.2063 49.594116,44.88086 C49.594116,44.88086 48.559937,43.84668 48.559937,43.84668 C48.611633,43.730713 48.65912,43.61548 48.704956,43.499756 C48.704956,43.499756 50.166565,43.499756 50.166565,43.499756 C50.627502,43.499756 51.0,43.12744 51.0,42.666748 C51.0,42.666748 51.0,37.666504 51.0,37.666504 C51.0,37.205566 50.627502,36.833008 50.166565,36.833008 ZM2.666626,5.166504 C2.666626,3.788086 3.788269,2.666504 5.166626,2.666504 C5.166626,2.666504 43.49994,2.666504 43.49994,2.666504 C44.878296,2.666504 46.0,3.788086 46.0,5.166504 C46.0,5.166504 46.0,22.666504 46.0,22.666504 C46.0,22.666504 2.666626,22.666504 2.666626,22.666504 C2.666626,22.666504 2.666626,5.166504 2.666626,5.166504 ZM5.166626,29.333252 C3.788269,29.333252 2.666626,28.211426 2.666626,26.833252 C2.666626,26.833252 2.666626,24.333252 2.666626,24.333252 C2.666626,24.333252 46.0,24.333252 46.0,24.333252 C46.0,24.333252 46.0,26.833252 46.0,26.833252 C46.0,28.211426 44.878296,29.333252 43.49994,29.333252 C43.49994,29.333252 42.666626,29.333252 42.666626,29.333252 C42.666626,29.333252 37.666565,29.333252 37.666565,29.333252 C37.666565,29.333252 31.228333,29.333252 31.228333,29.333252 C31.228333,29.333252 17.438293,29.333252 17.438293,29.333252 C17.438293,29.333252 5.166626,29.333252 5.166626,29.333252 ZM44.869995,30.75 C44.869995,30.75 43.846558,31.77295 43.846558,31.77295 C43.730835,31.721436 43.615784,31.674072 43.49994,31.62793 C43.49994,31.62793 43.49994,30.999756 43.49994,30.999756 C43.982483,30.999756 44.438232,30.901611 44.869995,30.75 ZM36.833252,30.999756 C36.833252,30.999756 36.833252,31.62793 36.833252,31.62793 C36.71747,31.674072 36.602478,31.721436 36.486572,31.77295 C36.486572,31.77295 35.713257,30.999756 35.713257,30.999756 C35.713257,30.999756 36.833252,30.999756 36.833252,30.999756 ZM34.012512,30.999756 C34.012512,30.999756 33.294067,31.718262 33.294067,31.718262 C33.294067,31.718262 32.80493,30.999756 32.80493,30.999756 C32.80493,30.999756 34.012512,30.999756 34.012512,30.999756 ZM29.333252,40.999756 C29.333252,40.999756 11.416626,40.999756 11.416626,40.999756 C10.727478,40.999756 10.166626,40.438965 10.166626,39.74951 C10.166626,39.060547 10.727478,38.499756 11.416626,38.499756 C11.416626,38.499756 12.666565,38.499756 12.666565,38.499756 C12.666565,38.499756 13.389954,38.499756 13.389954,38.499756 C13.389954,38.499756 29.333252,38.499756 29.333252,38.499756 C29.333252,38.499756 29.333252,40.999756 29.333252,40.999756 ZM14.787109,36.832275 C14.787109,36.832275 17.934937,30.999756 17.934937,30.999756 C17.934937,30.999756 30.78833,30.999756 30.78833,30.999756 C30.78833,30.999756 32.09491,32.917236 32.09491,32.917236 C32.09491,32.917236 30.739075,34.27295 30.739075,34.27295 C30.41333,34.59912 30.41333,35.125732 30.739075,35.451416 C30.739075,35.451416 31.773254,36.485596 31.773254,36.485596 C31.72168,36.601562 31.674072,36.716553 31.628296,36.832275 C31.628296,36.832275 30.166626,36.832275 30.166626,36.832275 C30.166626,36.832275 14.787109,36.832275 14.787109,36.832275 ZM49.333252,41.833008 C49.333252,41.833008 48.11743,41.833008 48.11743,41.833008 C47.753296,41.833008 47.432495,42.068848 47.32245,42.41577 C47.1958,42.81787 47.024963,43.22827 46.814148,43.631348 C46.645813,43.95459 46.706665,44.348877 46.964172,44.6062 C46.964172,44.6062 47.827393,45.469727 47.827393,45.469727 C47.827393,45.469727 45.470764,47.826416 45.470764,47.826416 C45.470764,47.826416 44.60742,46.96289 44.60742,46.96289 C44.34906,46.705566 43.95581,46.645752 43.632507,46.813232 C43.229065,47.02417 42.81909,47.194824 42.416626,47.321533 C42.069153,47.432373 41.833252,47.753418 41.833252,48.11743 C41.833252,48.11743 41.833252,49.333252 41.833252,49.333252 C41.833252,49.333252 38.5,49.333252 38.5,49.333252 C38.5,49.333252 38.5,48.11743 38.5,48.11743 C38.5,47.753418 38.26416,47.432373 37.91748,47.32251 C37.514954,47.1958 37.10498,47.024902 36.70166,46.813965 C36.378296,46.646484 35.98413,46.706543 35.726624,46.963867 C35.726624,46.963867 34.86328,47.82715 34.86328,47.82715 C34.86328,47.82715 32.506653,45.47046 32.506653,45.47046 C32.506653,45.47046 33.369995,44.607178 33.369995,44.607178 C33.627502,44.349854 33.688354,43.95581 33.519897,43.63208 C33.309143,43.229004 33.138245,42.81909 33.011597,42.416504 C32.900757,42.068848 32.579956,41.833008 32.21576,41.833008 C32.21576,41.833008 30.999939,41.833008 30.999939,41.833008 C30.999939,41.833008 30.999939,38.499756 30.999939,38.499756 C30.999939,38.499756 32.21576,38.499756 32.21576,38.499756 C32.579956,38.499756 32.900757,38.263916 33.010742,37.917236 C33.137512,37.514893 33.30829,37.104736 33.519165,36.701416 C33.6875,36.378174 33.626648,35.983887 33.36914,35.726562 C33.36914,35.726562 32.5058,34.863037 32.5058,34.863037 C32.5058,34.863037 34.862488,32.50659 34.862488,32.50659 C34.862488,32.50659 35.72577,33.369873 35.72577,33.369873 C35.983276,33.62793 36.37738,33.68799 36.700806,33.52002 C37.104126,33.309082 37.5141,33.13794 37.916626,33.01172 C38.26416,32.90039 38.5,32.579834 38.5,32.21582 C38.5,32.21582 38.5,30.999756 38.5,30.999756 C38.5,30.999756 41.833252,30.999756 41.833252,30.999756 C41.833252,30.999756 41.833252,32.21582 41.833252,32.21582 C41.833252,32.579834 42.069153,32.90039 42.41577,33.010498 C42.81836,33.137207 43.228333,33.30835 43.631653,33.5188 C43.954895,33.687256 44.348328,33.627197 44.60669,33.36914 C44.60669,33.36914 45.46991,32.505615 45.46991,32.505615 C45.46991,32.505615 47.82666,34.862305 47.82666,34.862305 C47.82666,34.862305 46.963257,35.72583 46.963257,35.72583 C46.70581,35.983154 46.64496,36.37744 46.813293,36.700684 C47.02411,37.10376 47.194946,37.51416 47.321594,37.916504 C47.432495,38.263916 47.753296,38.499756 48.11743,38.499756 C48.11743,38.499756 49.333252,38.499756 49.333252,38.499756 C49.333252,38.499756 49.333252,41.833008 49.333252,41.833008 ZM40.166626,35.166504 C37.40912,35.166504 35.166626,37.408936 35.166626,40.166748 C35.166626,42.924072 37.40912,45.16626 40.166626,45.16626 C42.924072,45.16626 45.166687,42.924072 45.166687,40.166748 C45.166687,37.408936 42.924072,35.166504 40.166626,35.166504 ZM40.166626,43.499756 C38.328247,43.499756 36.833252,42.00464 36.833252,40.166748 C36.833252,38.328125 38.328247,36.833008 40.166626,36.833008 C42.004944,36.833008 43.49994,38.328125 43.49994,40.166748 C43.49994,42.00464 42.004944,43.499756 40.166626,43.499756 ZM17.422485,7.4223633 C17.422485,7.4223633 16.24408,6.2441406 16.24408,6.2441406 C16.24408,6.2441406 10.410767,12.077393 10.410767,12.077393 C10.084961,12.403076 10.084961,12.929932 10.410767,13.255615 C10.410767,13.255615 16.24408,19.088867 16.24408,19.088867 C16.24408,19.088867 17.422485,17.910645 17.422485,17.910645 C17.422485,17.910645 12.178284,12.66626 12.178284,12.66626 C12.178284,12.66626 17.422485,7.4223633 17.422485,7.4223633 ZM35.7558,12.077393 C35.7558,12.077393 29.922485,6.2441406 29.922485,6.2441406 C29.922485,6.2441406 28.74408,7.4223633 28.74408,7.4223633 C28.74408,7.4223633 33.98828,12.66626 33.98828,12.66626 C33.98828,12.66626 28.74408,17.910645 28.74408,17.910645 C28.74408,17.910645 29.922485,19.088867 29.922485,19.088867 C29.922485,19.088867 35.7558,13.255615 35.7558,13.255615 C36.081604,12.929932 36.081604,12.403076 35.7558,12.077393 ZM18.586975,18.960693 C18.586975,18.960693 26.0849,3.965088 26.0849,3.965088 C26.0849,3.965088 27.57544,4.710205 27.57544,4.710205 C27.57544,4.710205 20.077698,19.706055 20.077698,19.706055 C20.077698,19.706055 18.586975,18.960693 18.586975,18.960693 ZM33.5,17.66626 C33.5,17.66626 35.166626,17.66626 35.166626,17.66626 C35.166626,17.66626 35.166626,19.333252 35.166626,19.333252 C35.166626,19.333252 33.5,19.333252 33.5,19.333252 C33.5,19.333252 33.5,17.66626 33.5,17.66626 ZM36.833252,17.66626 C36.833252,17.66626 38.5,17.66626 38.5,17.66626 C38.5,17.66626 38.5,19.333252 38.5,19.333252 C38.5,19.333252 36.833252,19.333252 36.833252,19.333252 C36.833252,19.333252 36.833252,17.66626 36.833252,17.66626 ZM40.166626,17.66626 C40.166626,17.66626 41.833252,17.66626 41.833252,17.66626 C41.833252,17.66626 41.833252,19.333252 41.833252,19.333252 C41.833252,19.333252 40.166626,19.333252 40.166626,19.333252 C40.166626,19.333252 40.166626,17.66626 40.166626,17.66626 Z"/>
  </symbol>

  <symbol id="service3" viewBox="0 0 56 56">
    <path fill-rule="evenodd" d="M24.83374,7.324951 C15.171875,7.324951 7.3394775,15.159912 7.3394775,24.824463 C7.3394775,34.489502 15.171875,42.323975 24.83374,42.323975 C34.495483,42.323975 42.32776,34.489502 42.32776,24.824463 C42.31726,15.164307 34.49109,7.335449 24.83374,7.324951 ZM24.83374,8.991455 C29.979492,8.99585 34.801514,11.50415 37.759277,15.716309 C37.759277,15.716309 35.676636,17.799805 35.676636,17.799805 C35.16992,17.492676 34.58972,17.328613 33.997314,17.324707 C32.156982,17.324707 30.66504,18.817139 30.66504,20.657959 C30.667969,21.250977 30.831177,21.832275 31.137451,22.340332 C31.137451,22.340332 25.682617,27.79663 25.682617,27.79663 C24.649658,27.166748 23.351562,27.166748 22.318726,27.79663 C22.318726,27.79663 18.529907,24.00708 18.529907,24.00708 C18.836182,23.499268 18.999268,22.917725 19.00232,22.324463 C19.004517,20.487305 17.517578,18.99585 15.680908,18.993896 C14.161865,18.991943 12.834717,20.019775 12.456055,21.49121 C12.456055,21.49121 9.3654785,21.49121 9.3654785,21.49121 C10.942749,14.205078 17.381104,9.002441 24.83374,8.991455 ZM35.663452,20.657959 C35.663452,21.578613 34.91748,22.324463 33.997314,22.324463 C33.077026,22.324463 32.331177,21.578613 32.331177,20.657959 C32.331177,19.737305 33.077026,18.99121 33.997314,18.99121 C34.91748,18.99121 35.663452,19.737305 35.663452,20.657959 ZM25.666748,30.657715 C25.666748,31.57837 24.920898,32.32422 24.00061,32.32422 C23.080322,32.32422 22.334473,31.57837 22.334473,30.657715 C22.334473,29.73706 23.080322,28.990967 24.00061,28.990967 C24.920898,28.990967 25.666748,29.73706 25.666748,30.657715 ZM17.33606,22.324463 C17.33606,23.245117 16.59021,23.99121 15.670044,23.99121 C14.749878,23.99121 14.003906,23.245117 14.003906,22.324463 C14.003906,21.404297 14.749878,20.657959 15.670044,20.657959 C16.59021,20.657959 17.33606,21.404297 17.33606,22.324463 ZM32.52417,38.668457 C30.171753,39.975098 27.524658,40.659912 24.83374,40.65747 C16.098022,40.663086 9.011475,33.58423 9.005615,24.845947 C9.005127,24.281982 9.034912,23.718506 9.094727,23.157715 C9.094727,23.157715 12.456055,23.157715 12.456055,23.157715 C12.834839,24.625 14.155273,25.6521 15.670044,25.657715 C16.263062,25.654785 16.844238,25.4917 17.351929,25.185059 C17.351929,25.185059 21.140747,28.975098 21.140747,28.975098 C20.834473,29.48291 20.671265,30.064453 20.668335,30.657715 C20.668335,32.498535 22.160278,33.990967 24.00061,33.990967 C25.840942,33.990967 27.332764,32.498535 27.332764,30.657715 C27.329956,30.064453 27.166748,29.48291 26.860474,28.975098 C26.860474,28.975098 32.31543,23.518555 32.31543,23.518555 C32.82312,23.824951 33.404297,23.988037 33.997314,23.99121 C35.837524,23.99121 37.329468,22.49878 37.329468,20.657959 C37.32666,20.064697 37.16333,19.483154 36.857178,18.975342 C36.857178,18.975342 38.673218,17.159424 38.673218,17.159424 C42.912964,24.797852 40.159912,34.42749 32.52417,38.668457 ZM45.660034,12.324707 C47.174805,12.319092 48.49536,11.291992 48.874023,9.824951 C48.874023,9.824951 53.990723,9.824951 53.990723,9.824951 C53.990723,9.824951 53.990723,8.158203 53.990723,8.158203 C53.990723,8.158203 48.874023,8.158203 48.874023,8.158203 C48.49536,6.691162 47.174805,5.6640625 45.660034,5.658203 C43.819702,5.658203 42.32776,7.150635 42.32776,8.991455 C42.33081,9.584717 42.493896,10.16626 42.80017,10.674072 C42.80017,10.674072 41.336548,12.137939 41.336548,12.137939 C34.33313,3.0112305 21.259155,1.2915039 12.13501,8.296875 C3.0107422,15.30249 1.291626,28.380371 8.295044,37.507812 C14.90564,46.12256 27.023682,48.212402 36.136597,42.308838 C36.136597,42.308838 38.650757,44.823975 38.650757,44.823975 C38.650757,44.823975 39.828735,46.002197 39.828735,46.002197 C39.828735,46.002197 46.53479,52.71045 46.53479,52.71045 C48.240356,54.416504 51.005493,54.416504 52.71106,52.71045 C54.416626,51.004395 54.416626,48.23828 52.71106,46.531982 C52.71106,46.531982 46.005005,39.82422 46.005005,39.82422 C46.005005,39.82422 44.827026,38.645996 44.827026,38.645996 C44.827026,38.645996 42.312866,36.13086 42.312866,36.13086 C46.77588,29.25415 46.77588,20.394775 42.312866,13.518066 C42.312866,13.518066 43.979004,11.8515625 43.979004,11.8515625 C44.48645,12.157959 45.067383,12.321533 45.660034,12.324707 ZM45.660034,7.324951 C46.580322,7.324951 47.32617,8.071289 47.32617,8.991455 C47.32617,9.912109 46.580322,10.658203 45.660034,10.658203 C44.73987,10.658203 43.99402,9.912109 43.99402,8.991455 C43.99402,8.071289 44.73999,7.324951 45.660034,7.324951 ZM51.533203,47.71045 C52.599976,48.753662 52.61963,50.465088 51.576538,51.531982 C50.53357,52.59912 48.82312,52.618652 47.756104,51.57544 C47.741455,51.561035 47.727173,51.546875 47.71277,51.531982 C47.71277,51.531982 41.00659,44.823975 41.00659,44.823975 C41.00659,44.823975 44.827026,41.002197 44.827026,41.002197 C44.827026,41.002197 51.533203,47.71045 51.533203,47.71045 ZM43.64917,39.82422 C43.64917,39.82422 39.828735,43.645508 39.828735,43.645508 C39.828735,43.645508 37.522827,41.338867 37.522827,41.338867 C37.64026,41.24878 37.750122,41.149902 37.86609,41.057373 C37.98181,40.964844 38.115967,40.854004 38.240112,40.75 C38.422485,40.59668 38.602417,40.441406 38.779053,40.28247 C38.869873,40.19922 38.95642,40.115723 39.045654,40.03247 C39.387207,39.71216 39.717896,39.381348 40.03772,39.039795 C40.121094,38.950928 40.204346,38.864014 40.28772,38.773438 C40.446777,38.59668 40.601807,38.416748 40.755005,38.23413 C40.859497,38.11084 40.961914,37.98633 41.0625,37.859863 C41.154175,37.744873 41.253174,37.634766 41.34314,37.51758 C41.34314,37.51758 43.64917,39.82422 43.64917,39.82422 ZM40.418457,35.95337 C40.156128,36.319824 39.885376,36.6792 39.59961,37.02466 C39.516235,37.125732 39.427124,37.22339 39.34143,37.32251 C39.086426,37.619385 38.82312,37.90674 38.551636,38.185547 C38.43335,38.30786 38.31299,38.428223 38.190918,38.54663 C37.913208,38.81836 37.62549,39.081543 37.32788,39.33667 C37.22876,39.41992 37.131226,39.510986 37.030396,39.594727 C36.684692,39.880615 36.325684,40.15161 35.95923,40.414062 C27.335327,46.576904 15.3498535,44.57959 9.188843,35.95337 C3.027832,27.326904 5.024414,15.337891 13.648193,9.174805 C22.272095,3.011963 34.25757,5.0092773 40.418457,13.635742 C45.18579,20.310547 45.18579,29.27832 40.418457,35.95337 Z"/>
  </symbol>

  <symbol id="service4" viewBox="0 0 52 52">
    <path fill-rule="evenodd"  d="M17.666595,5.166504 C17.666595,5.166504 34.333282,5.166504 34.333282,5.166504 C34.333282,5.166504 34.333282,6.833008 34.333282,6.833008 C34.333282,6.833008 17.666595,6.833008 17.666595,6.833008 C17.666595,6.833008 17.666595,5.166504 17.666595,5.166504 ZM42.24994,32.24951 C42.24994,30.641602 40.941284,29.333008 39.333313,29.333008 C39.333313,29.333008 37.666656,29.333008 37.666656,29.333008 C37.666656,29.333008 37.666656,17.666504 37.666656,17.666504 C37.666656,17.666504 35.99994,17.666504 35.99994,17.666504 C35.99994,17.666504 35.99994,29.333008 35.99994,29.333008 C35.99994,29.333008 33.916626,29.333008 33.916626,29.333008 C32.308533,29.333008 30.999908,30.641602 30.999908,32.24951 C30.999908,33.066406 31.339325,33.803223 31.881866,34.333008 C31.339325,34.86328 30.999908,35.600098 30.999908,36.416504 C30.999908,36.978027 31.167175,37.498535 31.443542,37.944336 C30.446686,38.40869 29.749939,39.413086 29.749939,40.583008 C29.749939,41.032227 29.860443,41.452637 30.042511,41.833008 C30.042511,41.833008 23.499939,41.833008 23.499939,41.833008 C23.499939,39.285156 22.223053,37.030273 20.275635,35.674316 C22.158783,34.956543 23.499939,33.132324 23.499939,31.0 C23.499939,30.53955 23.127228,30.166504 22.666595,30.166504 C22.666595,30.166504 15.999939,30.166504 15.999939,30.166504 C15.999939,30.166504 15.999939,21.833496 15.999939,21.833496 C15.999939,21.833496 14.333313,21.833496 14.333313,21.833496 C14.333313,21.833496 14.333313,30.166504 14.333313,30.166504 C12.954773,30.166504 11.833252,31.287598 11.833252,32.666504 C11.833252,32.666504 11.833252,50.99951 11.833252,50.99951 C11.833252,50.99951 13.4999695,50.99951 13.4999695,50.99951 C13.4999695,50.99951 13.4999695,32.666504 13.4999695,32.666504 C13.4999695,32.20703 13.873535,31.833008 14.333313,31.833008 C14.333313,31.833008 21.727417,31.833008 21.727417,31.833008 C21.357117,33.269043 20.050201,34.333008 18.499908,34.333008 C18.499908,34.333008 15.999939,34.333008 15.999939,34.333008 C15.539307,34.333008 15.166626,34.706543 15.166626,35.166504 C15.166626,35.626465 15.539307,36.0 15.999939,36.0 C19.216125,36.0 21.833282,38.6167 21.833282,41.833008 C21.833282,41.833008 21.833282,42.666504 21.833282,42.666504 C21.833282,43.126465 22.205994,43.5 22.666595,43.5 C22.666595,43.5 27.542542,43.5 27.542542,43.5 C27.360504,43.879883 27.24997,44.30078 27.24997,44.75 C27.24997,46.35791 28.558594,47.666504 30.166595,47.666504 C30.166595,47.666504 30.166595,50.99951 30.166595,50.99951 C30.166595,50.99951 31.833313,50.99951 31.833313,50.99951 C31.833313,50.99951 31.833313,47.666504 31.833313,47.666504 C31.833313,47.666504 35.166595,47.666504 35.166595,47.666504 C35.166595,47.666504 35.583252,47.666504 35.583252,47.666504 C37.191437,47.666504 38.49997,46.35791 38.49997,44.75 C38.49997,44.2959 38.38669,43.871094 38.200897,43.48828 C39.75348,43.424316 40.99994,42.15088 40.99994,40.583008 C40.99994,40.021484 40.832764,39.50049 40.556305,39.055176 C41.55316,38.59082 42.24994,37.586426 42.24994,36.416504 C42.24994,35.600098 41.910614,34.86328 41.368073,34.333008 C41.910614,33.803223 42.24994,33.066406 42.24994,32.24951 ZM35.583252,45.99951 C35.583252,45.99951 35.166595,45.99951 35.166595,45.99951 C35.166595,45.99951 30.999908,45.99951 30.999908,45.99951 C30.999908,45.99951 30.166595,45.99951 30.166595,45.99951 C29.477356,45.99951 28.916595,45.439453 28.916595,44.75 C28.916595,44.060547 29.477356,43.5 30.166595,43.5 C30.166595,43.5 32.666626,43.5 32.666626,43.5 C32.666626,43.5 35.583252,43.5 35.583252,43.5 C36.272583,43.5 36.833252,44.060547 36.833252,44.75 C36.833252,45.439453 36.272583,45.99951 35.583252,45.99951 ZM38.083313,41.833008 C38.083313,41.833008 35.583252,41.833008 35.583252,41.833008 C35.583252,41.833008 32.666626,41.833008 32.666626,41.833008 C31.977325,41.833008 31.416656,41.27246 31.416656,40.583008 C31.416656,39.894043 31.977325,39.333008 32.666626,39.333008 C32.666626,39.333008 33.916626,39.333008 33.916626,39.333008 C33.916626,39.333008 38.083313,39.333008 38.083313,39.333008 C38.772552,39.333008 39.333313,39.894043 39.333313,40.583008 C39.333313,41.27246 38.772552,41.833008 38.083313,41.833008 ZM39.333313,37.666504 C39.333313,37.666504 38.083313,37.666504 38.083313,37.666504 C38.083313,37.666504 33.916626,37.666504 33.916626,37.666504 C33.227295,37.666504 32.666626,37.10547 32.666626,36.416504 C32.666626,35.72705 33.227295,35.166504 33.916626,35.166504 C33.916626,35.166504 39.333313,35.166504 39.333313,35.166504 C40.022522,35.166504 40.583282,35.72705 40.583282,36.416504 C40.583282,37.10547 40.022522,37.666504 39.333313,37.666504 ZM39.333313,33.5 C39.333313,33.5 33.916626,33.5 33.916626,33.5 C33.227295,33.5 32.666626,32.938965 32.666626,32.24951 C32.666626,31.560547 33.227295,31.0 33.916626,31.0 C33.916626,31.0 39.333313,31.0 39.333313,31.0 C40.022522,31.0 40.583282,31.560547 40.583282,32.24951 C40.583282,32.938965 40.022522,33.5 39.333313,33.5 ZM13.497589,11.606934 C13.480438,11.367676 13.361603,11.146973 13.17038,11.002441 C13.17038,11.002441 12.302826,10.344727 12.302826,10.344727 C12.095398,9.294434 11.173309,8.5 10.070557,8.5 C8.826294,8.5 7.8114014,9.51123 7.7951965,10.760742 C7.129425,10.644531 6.493042,10.38916 5.9234314,10.005371 C5.9234314,10.005371 5.632843,9.809082 5.632843,9.809082 C5.3782043,9.636719 5.04776,9.618164 4.7752075,9.76416 C4.5033875,9.908691 4.333252,10.191895 4.333252,10.499512 C4.333252,10.499512 4.333252,11.183594 4.333252,11.183594 C4.333252,12.1875 4.635956,13.145508 5.197571,13.950195 C5.197571,13.950195 4.5742493,14.580566 4.5742493,14.580566 C4.3374634,14.819336 4.268219,15.177246 4.397644,15.487793 C4.526947,15.797363 4.8305054,15.999512 5.1665955,15.999512 C5.1665955,15.999512 9.204712,15.999512 9.204712,15.999512 C10.815308,15.999512 12.146606,14.771973 12.325714,13.196777 C12.325714,13.196777 13.259094,12.251953 13.259094,12.251953 C13.427612,12.081543 13.514679,11.84668 13.497589,11.606934 ZM10.920197,12.247559 C10.7655945,12.402832 10.679199,12.61377 10.679199,12.833008 C10.679199,13.660156 10.017548,14.333008 9.20462,14.333008 C9.20462,14.333008 7.084717,14.333008 7.084717,14.333008 C7.216614,14.029785 7.159668,13.663086 6.9130554,13.413574 C6.5241394,13.02002 6.245758,12.524414 6.1049194,11.990234 C6.9000854,12.325684 7.7545776,12.499512 8.628601,12.499512 C9.089233,12.499512 9.461945,12.126465 9.461945,11.666504 C9.461945,11.666504 9.461945,10.791504 9.461945,10.791504 C9.461945,10.446777 9.735352,10.166504 10.070679,10.166504 C10.405975,10.166504 10.679382,10.446777 10.679382,10.791504 C10.679382,11.052246 10.801575,11.29834 11.008972,11.455566 C11.008972,11.455566 11.406189,11.756348 11.406189,11.756348 C11.406189,11.756348 10.920197,12.247559 10.920197,12.247559 ZM28.499939,15.166504 C28.499939,15.166504 28.499939,13.5 28.499939,13.5 C28.499939,13.5 25.99997,13.5 25.99997,13.5 C25.539368,13.5 25.166656,13.873047 25.166656,14.333008 C25.166656,14.333008 25.166656,16.833008 25.166656,16.833008 C25.166656,16.833008 23.499939,16.833008 23.499939,16.833008 C23.499939,16.833008 23.499939,18.499512 23.499939,18.499512 C23.499939,18.499512 25.166656,18.499512 25.166656,18.499512 C25.166656,18.499512 25.166656,21.833496 25.166656,21.833496 C25.166656,21.833496 26.833313,21.833496 26.833313,21.833496 C26.833313,21.833496 26.833313,18.499512 26.833313,18.499512 C26.833313,18.499512 28.499939,18.499512 28.499939,18.499512 C28.499939,18.499512 28.499939,16.833008 28.499939,16.833008 C28.499939,16.833008 26.833313,16.833008 26.833313,16.833008 C26.833313,16.833008 26.833313,15.166504 26.833313,15.166504 C26.833313,15.166504 28.499939,15.166504 28.499939,15.166504 ZM30.999908,10.166504 C30.999908,10.166504 20.99997,10.166504 20.99997,10.166504 C19.62143,10.166504 18.499908,11.288086 18.499908,12.666504 C18.499908,12.666504 18.499908,22.666504 18.499908,22.666504 C18.499908,24.044922 19.62143,25.166504 20.99997,25.166504 C20.99997,25.166504 30.999908,25.166504 30.999908,25.166504 C32.37854,25.166504 33.49997,24.044922 33.49997,22.666504 C33.49997,22.666504 33.49997,12.666504 33.49997,12.666504 C33.49997,11.288086 32.37854,10.166504 30.999908,10.166504 ZM31.833313,22.666504 C31.833313,23.125977 31.459778,23.499512 30.999908,23.499512 C30.999908,23.499512 20.99997,23.499512 20.99997,23.499512 C20.540192,23.499512 20.166626,23.125977 20.166626,22.666504 C20.166626,22.666504 20.166626,12.666504 20.166626,12.666504 C20.166626,12.20752 20.540192,11.833008 20.99997,11.833008 C20.99997,11.833008 30.999908,11.833008 30.999908,11.833008 C31.459778,11.833008 31.833313,12.20752 31.833313,12.666504 C31.833313,12.666504 31.833313,22.666504 31.833313,22.666504 ZM13.4999695,5.166504 C13.4999695,5.166504 3.499939,5.166504 3.499939,5.166504 C2.121399,5.166504 0.9999695,6.2875977 0.9999695,7.666504 C0.9999695,7.666504 0.9999695,17.666504 0.9999695,17.666504 C0.9999695,19.044922 2.121399,20.166504 3.499939,20.166504 C3.499939,20.166504 13.4999695,20.166504 13.4999695,20.166504 C14.8785095,20.166504 15.999939,19.044922 15.999939,17.666504 C15.999939,17.666504 15.999939,7.666504 15.999939,7.666504 C15.999939,6.2875977 14.8785095,5.166504 13.4999695,5.166504 ZM14.333313,17.666504 C14.333313,18.125977 13.959747,18.499512 13.4999695,18.499512 C13.4999695,18.499512 3.499939,18.499512 3.499939,18.499512 C3.0401611,18.499512 2.666626,18.125977 2.666626,17.666504 C2.666626,17.666504 2.666626,7.666504 2.666626,7.666504 C2.666626,7.2070312 3.0401611,6.833008 3.499939,6.833008 C3.499939,6.833008 13.4999695,6.833008 13.4999695,6.833008 C13.959747,6.833008 14.333313,7.2070312 14.333313,7.666504 C14.333313,7.666504 14.333313,17.666504 14.333313,17.666504 ZM48.49994,1.0 C48.49994,1.0 38.49997,1.0 38.49997,1.0 C37.12146,1.0 35.99994,2.121582 35.99994,3.5 C35.99994,3.5 35.99994,13.5 35.99994,13.5 C35.99994,14.878418 37.12146,15.999512 38.49997,15.999512 C38.49997,15.999512 48.49994,15.999512 48.49994,15.999512 C49.87845,15.999512 50.99997,14.878418 50.99997,13.5 C50.99997,13.5 50.99997,3.5 50.99997,3.5 C50.99997,2.121582 49.87845,1.0 48.49994,1.0 ZM49.333252,13.5 C49.333252,13.958984 48.959778,14.333008 48.49994,14.333008 C48.49994,14.333008 38.49997,14.333008 38.49997,14.333008 C38.04013,14.333008 37.666656,13.958984 37.666656,13.5 C37.666656,13.5 37.666656,9.333008 37.666656,9.333008 C37.666656,9.333008 39.41751,9.333008 39.41751,9.333008 C39.804688,11.23291 41.487946,12.666504 43.49991,12.666504 C45.511963,12.666504 47.19519,11.23291 47.582397,9.333008 C47.582397,9.333008 49.333252,9.333008 49.333252,9.333008 C49.333252,9.333008 49.333252,13.5 49.333252,13.5 ZM40.99994,8.5 C40.99994,7.121582 42.12137,6.0 43.49991,6.0 C44.87854,6.0 45.99997,7.121582 45.99997,8.5 C45.99997,9.878418 44.87854,11.0 43.49991,11.0 C42.12137,11.0 40.99994,9.878418 40.99994,8.5 ZM49.333252,7.666504 C49.333252,7.666504 47.582397,7.666504 47.582397,7.666504 C47.19519,5.76709 45.511963,4.333008 43.49991,4.333008 C41.487946,4.333008 39.804688,5.76709 39.41751,7.666504 C39.41751,7.666504 37.666656,7.666504 37.666656,7.666504 C37.666656,7.666504 37.666656,3.5 37.666656,3.5 C37.666656,3.0405273 38.04013,2.666504 38.49997,2.666504 C38.49997,2.666504 48.49994,2.666504 48.49994,2.666504 C48.959778,2.666504 49.333252,3.0405273 49.333252,3.5 C49.333252,3.5 49.333252,7.666504 49.333252,7.666504 ZM25.166656,35.166504 C25.166656,35.166504 26.833313,35.166504 26.833313,35.166504 C26.833313,35.166504 26.833313,36.833008 26.833313,36.833008 C26.833313,36.833008 25.166656,36.833008 25.166656,36.833008 C25.166656,36.833008 25.166656,35.166504 25.166656,35.166504 Z"/>
  </symbol>

  <symbol id="service5" viewBox="0 0 52 49">
    <path fill-rule="evenodd" d="M43.857056,18.780273 C43.857056,8.936523 35.866028,1.0 26.0,1.0 C16.13385,1.0 8.142822,8.936523 8.142822,18.735352 C8.142822,18.735352 8.142822,18.735352 8.142822,18.780273 C4.1696167,19.001465 1.0,22.282715 1.0,26.273438 C1.0,26.273438 1.0,27.160156 1.0,27.160156 C1.0,31.328125 4.3928223,34.698242 8.589233,34.698242 C8.589233,34.698242 8.991028,34.698242 8.991028,34.698242 C8.991028,34.698242 12.160645,39.708496 12.160645,39.708496 C14.392822,43.25537 18.1875,45.339355 22.38385,45.339355 C22.38385,45.339355 23.008911,45.339355 23.008911,45.339355 C23.410706,46.847168 24.794556,47.99951 26.446411,47.99951 C28.410706,47.99951 30.017822,46.40332 30.017822,44.452637 C30.017822,42.501465 28.410706,40.905273 26.446411,40.905273 C24.794556,40.905273 23.410706,42.058594 23.008911,43.565918 C23.008911,43.565918 22.38385,43.565918 22.38385,43.565918 C18.812439,43.565918 15.553528,41.748047 13.678528,38.73291 C13.678528,38.73291 11.089233,34.698242 11.089233,34.698242 C11.089233,34.698242 11.714233,34.698242 11.714233,34.698242 C12.69635,34.698242 13.5,33.899902 13.5,32.924316 C13.5,32.924316 13.5,20.509277 13.5,20.509277 C13.5,19.533691 12.69635,18.735352 11.714233,18.735352 C11.714233,18.735352 9.928467,18.735352 9.928467,18.735352 C9.928467,9.912109 17.116028,2.7734375 26.0,2.7734375 C34.88385,2.7734375 42.07141,9.912109 42.07141,18.735352 C42.07141,18.735352 40.285645,18.735352 40.285645,18.735352 C39.30359,18.735352 38.5,19.533691 38.5,20.509277 C38.5,20.509277 38.5,32.924316 38.5,32.924316 C38.5,33.899902 39.30359,34.698242 40.285645,34.698242 C40.285645,34.698242 43.410645,34.698242 43.410645,34.698242 C47.607117,34.698242 51.0,31.328125 51.0,27.160156 C51.0,27.160156 51.0,26.273438 51.0,26.273438 C51.0,22.282715 47.83026,19.001465 43.857056,18.780273 ZM26.446411,42.6792 C27.428528,42.6792 28.232056,43.47705 28.232056,44.452637 C28.232056,45.428223 27.428528,46.226074 26.446411,46.226074 C25.464233,46.226074 24.660645,45.428223 24.660645,44.452637 C24.660645,43.47705 25.464233,42.6792 26.446411,42.6792 ZM11.714233,20.509277 C11.714233,20.509277 11.714233,32.924316 11.714233,32.924316 C11.714233,32.924316 8.589233,32.924316 8.589233,32.924316 C5.375,32.924316 2.7856445,30.35254 2.7856445,27.160156 C2.7856445,27.160156 2.7856445,26.273438 2.7856445,26.273438 C2.7856445,23.080566 5.375,20.509277 8.589233,20.509277 C8.589233,20.509277 11.714233,20.509277 11.714233,20.509277 ZM49.214233,27.160156 C49.214233,30.35254 46.62494,32.924316 43.410645,32.924316 C43.410645,32.924316 40.285645,32.924316 40.285645,32.924316 C40.285645,32.924316 40.285645,20.509277 40.285645,20.509277 C40.285645,20.509277 43.410645,20.509277 43.410645,20.509277 C46.62494,20.509277 49.214233,23.080566 49.214233,26.273438 C49.214233,26.273438 49.214233,27.160156 49.214233,27.160156 ZM33.410645,7.694824 C33.32135,7.650879 33.18744,7.5620117 33.05359,7.4731445 C32.919556,7.3847656 32.785706,7.2963867 32.69641,7.251953 C32.294617,6.98584 31.714233,7.1186523 31.491089,7.5620117 C31.267822,8.005371 31.357056,8.493164 31.803467,8.759277 C31.892822,8.803711 32.026733,8.89209 32.160645,8.980957 C32.294617,9.069336 32.428528,9.158203 32.56244,9.202637 C32.69641,9.291504 32.87494,9.335449 33.00885,9.335449 C33.32135,9.335449 33.589233,9.202637 33.76776,8.89209 C33.991028,8.493164 33.857117,7.9609375 33.410645,7.694824 ZM26.0,5.4335938 C22.205322,5.4335938 18.633911,7.0742188 16.178467,9.912109 C15.866089,10.26709 15.910706,10.843262 16.267822,11.153809 C16.44635,11.286621 16.625,11.375488 16.848145,11.375488 C17.116028,11.375488 17.339233,11.286621 17.517822,11.064941 C19.660645,8.626465 22.741028,7.2070312 26.0,7.2070312 C26.803589,7.2070312 27.607117,7.2963867 28.410706,7.4731445 C28.901733,7.5620117 29.348145,7.251953 29.482056,6.8081055 C29.616028,6.364746 29.258911,5.8774414 28.8125,5.7441406 C27.874939,5.522461 26.937439,5.4335938 26.0,5.4335938 Z"/>
  </symbol>

  <symbol id="service6" viewBox="0 0 52 52">
    <path fill-rule="evenodd" d="M9.75,6.022949 C7.682373,6.022949 6.0,7.7124023 6.0,9.788086 C6.0,11.864258 7.682373,13.553711 9.75,13.553711 C11.817505,13.553711 13.499878,11.864258 13.499878,9.788086 C13.499878,7.7124023 11.817505,6.022949 9.75,6.022949 ZM9.75,11.879883 C8.601685,11.879883 7.666626,10.942383 7.666626,9.788086 C7.666626,8.634766 8.601685,7.696289 9.75,7.696289 C10.898315,7.696289 11.833252,8.634766 11.833252,9.788086 C11.833252,10.942383 10.898315,11.879883 9.75,11.879883 ZM42.666626,7.696289 C43.12683,7.696289 43.5,8.070801 43.5,8.533203 C43.5,8.995605 43.12683,9.370117 42.666626,9.370117 C42.20642,9.370117 41.833252,8.995605 41.833252,8.533203 C41.833252,8.070801 42.20642,7.696289 42.666626,7.696289 ZM39.333252,7.696289 C39.793457,7.696289 40.166626,8.070801 40.166626,8.533203 C40.166626,8.995605 39.793457,9.370117 39.333252,9.370117 C38.873047,9.370117 38.499878,8.995605 38.499878,8.533203 C38.499878,8.070801 38.873047,7.696289 39.333252,7.696289 ZM44.333252,10.207031 C44.793457,10.207031 45.166626,10.581543 45.166626,11.043457 C45.166626,11.505371 44.793457,11.879883 44.333252,11.879883 C43.873047,11.879883 43.5,11.505371 43.5,11.043457 C43.5,10.581543 43.873047,10.207031 44.333252,10.207031 ZM41.0,10.207031 C41.460205,10.207031 41.833252,10.581543 41.833252,11.043457 C41.833252,11.505371 41.460205,11.879883 41.0,11.879883 C40.539795,11.879883 40.166626,11.505371 40.166626,11.043457 C40.166626,10.581543 40.539795,10.207031 41.0,10.207031 ZM36.0,7.696289 C36.460205,7.696289 36.833252,8.070801 36.833252,8.533203 C36.833252,8.995605 36.460205,9.370117 36.0,9.370117 C35.539673,9.370117 35.166626,8.995605 35.166626,8.533203 C35.166626,8.070801 35.539673,7.696289 36.0,7.696289 ZM37.666626,10.207031 C38.12683,10.207031 38.499878,10.581543 38.499878,11.043457 C38.499878,11.505371 38.12683,11.879883 37.666626,11.879883 C37.2063,11.879883 36.833252,11.505371 36.833252,11.043457 C36.833252,10.581543 37.2063,10.207031 37.666626,10.207031 ZM32.666626,7.696289 C33.12683,7.696289 33.499878,8.070801 33.499878,8.533203 C33.499878,8.995605 33.12683,9.370117 32.666626,9.370117 C32.2063,9.370117 31.833252,8.995605 31.833252,8.533203 C31.833252,8.070801 32.2063,7.696289 32.666626,7.696289 ZM34.333374,10.207031 C34.79358,10.207031 35.166626,10.581543 35.166626,11.043457 C35.166626,11.505371 34.79358,11.879883 34.333374,11.879883 C33.873047,11.879883 33.499878,11.505371 33.499878,11.043457 C33.499878,10.581543 33.873047,10.207031 34.333374,10.207031 ZM29.333252,7.696289 C29.79358,7.696289 30.166626,8.070801 30.166626,8.533203 C30.166626,8.995605 29.79358,9.370117 29.333252,9.370117 C28.873047,9.370117 28.5,8.995605 28.5,8.533203 C28.5,8.070801 28.873047,7.696289 29.333252,7.696289 ZM31.0,10.207031 C31.460205,10.207031 31.833252,10.581543 31.833252,11.043457 C31.833252,11.505371 31.460205,11.879883 31.0,11.879883 C30.539673,11.879883 30.166626,11.505371 30.166626,11.043457 C30.166626,10.581543 30.539673,10.207031 31.0,10.207031 ZM9.75,21.920898 C7.682373,21.920898 6.0,23.610352 6.0,25.686035 C6.0,27.761719 7.682373,29.451172 9.75,29.451172 C11.817505,29.451172 13.499878,27.761719 13.499878,25.686035 C13.499878,23.610352 11.817505,21.920898 9.75,21.920898 ZM9.75,27.777832 C8.601685,27.777832 7.666626,26.839844 7.666626,25.686035 C7.666626,24.532227 8.601685,23.594238 9.75,23.594238 C10.898315,23.594238 11.833252,24.532227 11.833252,25.686035 C11.833252,26.839844 10.898315,27.777832 9.75,27.777832 ZM9.75,37.81836 C7.682373,37.81836 6.0,39.507812 6.0,41.583984 C6.0,43.659668 7.682373,45.34912 9.75,45.34912 C11.817505,45.34912 13.499878,43.659668 13.499878,41.583984 C13.499878,39.507812 11.817505,37.81836 9.75,37.81836 ZM9.75,43.675293 C8.601685,43.675293 7.666626,42.737305 7.666626,41.583984 C7.666626,40.430176 8.601685,39.492188 9.75,39.492188 C10.898315,39.492188 11.833252,40.430176 11.833252,41.583984 C11.833252,42.737305 10.898315,43.675293 9.75,43.675293 ZM50.999878,14.718262 C50.999878,14.718262 50.999878,4.8583984 50.999878,4.8583984 C50.999878,2.7324219 49.277466,1.0024414 47.159912,1.0024414 C47.159912,1.0024414 4.839966,1.0024414 4.839966,1.0024414 C2.722412,1.0024414 0.9998779,2.7324219 0.9998779,4.8583984 C0.9998779,4.8583984 0.9998779,14.717773 0.9998779,14.717773 C0.9998779,15.946289 1.5858154,17.030273 2.480835,17.736328 C1.5858154,18.44336 0.9998779,19.527832 0.9998779,20.756348 C0.9998779,20.756348 0.9998779,30.614746 0.9998779,30.614746 C0.9998779,31.844238 1.5858154,32.927734 2.480835,33.634277 C1.5858154,34.34082 0.9998779,35.42578 0.9998779,36.65381 C0.9998779,36.65381 0.9998779,46.512695 0.9998779,46.512695 C0.9998779,48.63916 2.722412,50.368652 4.839966,50.368652 C4.839966,50.368652 28.069092,50.368652 28.069092,50.368652 C30.3042,50.78174 32.75415,50.996094 35.166626,50.996094 C42.39331,50.996094 50.013306,49.114258 50.912476,45.513184 C50.96826,45.401367 50.999878,45.274414 50.999878,45.13965 C50.999878,45.13965 50.999878,37.608887 50.999878,37.608887 C50.999878,37.608887 50.999878,37.29541 50.999878,37.29541 C50.999878,37.29541 50.999878,36.981445 50.999878,36.981445 C50.999878,36.981445 50.999878,30.078613 50.999878,30.078613 C50.999878,30.078613 50.999878,29.765137 50.999878,29.765137 C50.999878,29.765137 50.999878,29.451172 50.999878,29.451172 C50.999878,29.451172 50.999878,22.234375 50.999878,22.234375 C50.999878,22.234375 50.999878,21.920898 50.999878,21.920898 C50.999878,21.79541 50.969116,21.67871 50.91992,21.572754 C50.630737,20.347656 49.54663,19.316406 47.95166,18.489258 C49.68994,18.12207 50.999878,16.57129 50.999878,14.718262 ZM2.666626,30.61621 C2.666626,30.61621 2.666626,20.756348 2.666626,20.756348 C2.666626,19.552734 3.6416016,18.57373 4.839966,18.57373 C4.839966,18.57373 22.223267,18.57373 22.223267,18.57373 C20.71582,19.386719 19.692383,20.388672 19.41333,21.572754 C19.364136,21.680176 19.333252,21.79541 19.333252,21.920898 C19.333252,21.920898 19.333252,22.234375 19.333252,22.234375 C19.333252,22.234375 19.333252,29.451172 19.333252,29.451172 C19.333252,29.451172 19.333252,29.765137 19.333252,29.765137 C19.333252,29.765137 19.333252,30.078613 19.333252,30.078613 C19.333252,30.078613 19.333252,32.79834 19.333252,32.79834 C19.333252,32.79834 4.839966,32.79834 4.839966,32.79834 C3.6416016,32.79834 2.666626,31.819336 2.666626,30.61621 ZM21.521606,25.480957 C21.559082,25.505371 21.599121,25.529297 21.637451,25.55371 C21.784058,25.645996 21.936646,25.73584 22.095825,25.825195 C22.141602,25.850098 22.185791,25.875977 22.231567,25.899902 C22.425781,26.004883 22.627441,26.106934 22.837402,26.20459 C22.87085,26.220703 22.906616,26.23584 22.939941,26.250977 C23.124146,26.33545 23.313354,26.416504 23.5083,26.495605 C23.565796,26.519043 23.622437,26.54248 23.679932,26.56543 C23.909912,26.655762 24.144043,26.744629 24.386597,26.828125 C24.399902,26.832031 24.41333,26.836426 24.426636,26.841797 C24.658325,26.920898 24.896606,26.99707 25.13916,27.0708 C25.204102,27.09082 25.27002,27.110352 25.335815,27.129395 C25.575806,27.199707 25.819092,27.268066 26.06836,27.333496 C26.088379,27.338379 26.107544,27.344727 26.127441,27.349121 C26.395752,27.418945 26.669922,27.483398 26.948242,27.546387 C27.01831,27.562012 27.089111,27.577148 27.159058,27.591797 C27.39746,27.644043 27.638184,27.69336 27.881592,27.740234 C27.929932,27.749512 27.978271,27.759277 28.026611,27.768555 C28.3125,27.822266 28.601685,27.871582 28.894165,27.918457 C28.963257,27.9292 29.03418,27.94043 29.103271,27.951172 C29.345825,27.98877 29.589966,28.023926 29.83667,28.05664 C29.904053,28.065918 29.970703,28.074707 30.039062,28.083008 C30.337402,28.121094 30.637451,28.155762 30.939941,28.1875 C31.000854,28.194336 31.062378,28.199707 31.123291,28.205566 C31.377441,28.230469 31.6333,28.25293 31.88916,28.273926 C31.966553,28.279785 32.043213,28.286621 32.12085,28.29248 C32.426636,28.314941 32.73413,28.33496 33.041626,28.351074 C33.08496,28.353516 33.12915,28.354492 33.173218,28.356934 C33.44409,28.370117 33.71582,28.380371 33.987427,28.387695 C34.06909,28.390137 34.150757,28.393066 34.233276,28.394531 C34.544067,28.401367 34.85498,28.40625 35.164917,28.40625 C35.474976,28.40625 35.785767,28.401367 36.09668,28.394531 C36.178345,28.393066 36.259888,28.390137 36.342407,28.387695 C36.614136,28.380371 36.88501,28.370117 37.156616,28.356934 C37.200806,28.354492 37.24414,28.353516 37.28833,28.351074 C37.595703,28.33496 37.90332,28.314941 38.209106,28.29248 C38.28662,28.286621 38.36328,28.280762 38.440796,28.273926 C38.697388,28.253906 38.952393,28.230469 39.206543,28.205566 C39.267456,28.199707 39.3291,28.19336 39.390015,28.1875 C39.692505,28.155762 39.99243,28.121582 40.29077,28.083008 C40.358276,28.074707 40.42578,28.065918 40.493286,28.05664 C40.739136,28.023926 40.98413,27.98877 41.226562,27.951172 C41.29663,27.94043 41.366577,27.930176 41.43579,27.918457 C41.72827,27.871582 42.017456,27.822266 42.303223,27.768555 C42.35254,27.759277 42.400024,27.749512 42.448364,27.740234 C42.692505,27.69336 42.933228,27.644043 43.170776,27.591797 C43.241577,27.576172 43.311646,27.561035 43.38159,27.546387 C43.659058,27.483398 43.934204,27.418945 44.202393,27.349121 C44.222412,27.344727 44.241577,27.338379 44.261597,27.333496 C44.510742,27.269043 44.75415,27.200195 44.99414,27.129395 C45.059937,27.110352 45.125732,27.09082 45.190796,27.0708 C45.43335,26.99707 45.67163,26.920898 45.90332,26.841797 C45.916626,26.837402 45.92993,26.833496 45.943237,26.828125 C46.18579,26.743652 46.420776,26.655762 46.649902,26.56543 C46.708252,26.54248 46.764893,26.519043 46.821533,26.495605 C47.0166,26.416504 47.20581,26.33545 47.390015,26.250977 C47.424072,26.234863 47.459106,26.220703 47.49243,26.20459 C47.702393,26.106934 47.9032,26.004883 48.098267,25.899902 C48.144897,25.875 48.18921,25.850098 48.23413,25.825195 C48.392456,25.737305 48.54492,25.646484 48.692383,25.55371 C48.730713,25.529297 48.770752,25.506348 48.808228,25.480957 C48.980835,25.36914 49.144043,25.253418 49.299194,25.134766 C49.309204,25.127441 49.3208,25.120605 49.33081,25.112793 C49.33081,25.112793 49.33081,29.286621 49.33081,29.286621 C49.31079,29.3833 49.297363,29.482422 49.313232,29.581543 C49.32495,29.642578 49.333252,29.703125 49.333252,29.765137 C49.333252,29.857422 49.307495,29.951172 49.284912,30.043457 C49.267456,30.115723 49.244995,30.188477 49.214966,30.260254 C49.188354,30.323242 49.154907,30.386719 49.118286,30.449219 C49.08252,30.512207 49.043213,30.575684 48.99829,30.638184 C48.934082,30.725586 48.861572,30.812988 48.779053,30.899902 C48.74829,30.933105 48.71753,30.966309 48.684082,31.0 C46.91992,32.71338 41.71411,34.26172 35.16736,34.26172 C28.624878,34.26172 23.42163,32.715332 21.654175,31.002441 C21.617432,30.96582 21.584106,30.929688 21.550781,30.893066 C21.472412,30.809082 21.401611,30.725586 21.339966,30.64209 C21.29248,30.575684 21.250854,30.509766 21.213257,30.442383 C21.179077,30.3833 21.14746,30.32373 21.121582,30.263672 C21.089111,30.1875 21.06665,30.112305 21.048218,30.03711 C21.025757,29.946777 20.999878,29.855469 20.999878,29.765137 C20.999878,29.705566 21.007446,29.646484 21.017456,29.587402 C21.034912,29.478516 21.02417,29.370117 20.999878,29.265625 C20.999878,29.265625 20.999878,25.112305 20.999878,25.112305 C21.009888,25.119629 21.021606,25.126465 21.031616,25.13379 C21.185791,25.25293 21.349121,25.367676 21.521606,25.480957 ZM49.21411,37.791016 C49.1875,37.854004 49.154053,37.91748 49.11743,37.97998 C49.081665,38.04297 49.04236,38.106445 48.997437,38.168945 C48.93335,38.25586 48.860718,38.34326 48.7782,38.430176 C48.747437,38.463867 48.716675,38.49707 48.683228,38.530273 C46.91919,40.24414 41.71338,41.79248 35.166626,41.79248 C28.624146,41.79248 23.420776,40.245605 21.65332,38.532715 C21.6167,38.496582 21.583252,38.45996 21.549927,38.42334 C21.471558,38.339844 21.400879,38.25586 21.339111,38.172363 C21.291626,38.106445 21.25,38.04004 21.212524,37.973145 C21.178223,37.913574 21.146606,37.854492 21.12085,37.794434 C21.088257,37.717773 21.065796,37.643066 21.047485,37.567383 C21.02832,37.48877 21.0083,37.40918 21.00586,37.330566 C21.00586,37.330566 21.00586,37.23047 21.00586,37.23047 C21.009155,37.192383 21.010742,37.154785 21.016602,37.117676 C21.02832,37.04541 21.012451,36.975098 21.005005,36.90381 C21.005005,36.90381 20.999878,32.79834 20.999878,32.79834 C20.999878,32.79834 20.999878,32.64258 20.999878,32.64258 C21.033325,32.668457 21.07251,32.69287 21.107422,32.717773 C21.212524,32.796387 21.322388,32.873535 21.434937,32.94922 C21.526611,33.010742 21.621582,33.0708 21.718262,33.131348 C21.867432,33.223145 22.017456,33.314453 22.177368,33.402344 C22.179077,33.402832 22.180786,33.404297 22.18164,33.404785 C23.919922,34.355957 26.309937,35.04297 28.952393,35.458984 C28.972412,35.461914 28.992432,35.464844 29.012451,35.46826 C29.86499,35.601074 30.73999,35.70459 31.629883,35.78125 C31.819092,35.796875 32.007446,35.813477 32.198364,35.82715 C32.384155,35.84082 32.569946,35.85205 32.75659,35.862305 C33.0083,35.876465 33.26001,35.88916 33.511597,35.898926 C33.658325,35.904785 33.80493,35.91162 33.952393,35.915527 C34.358276,35.927734 34.763184,35.936035 35.16736,35.936035 C35.5708,35.936035 35.975708,35.928223 36.379883,35.916504 C36.52832,35.912598 36.67578,35.90576 36.824097,35.899902 C37.074097,35.88965 37.323242,35.87793 37.57251,35.864258 C37.760864,35.853027 37.948364,35.84131 38.135864,35.828125 C38.323242,35.814453 38.5083,35.79834 38.694946,35.782715 C39.59326,35.70703 40.476562,35.601074 41.33667,35.467285 C41.34912,35.46582 41.362427,35.46289 41.375,35.461426 C44.26245,35.007812 46.84497,34.229004 48.60913,33.13623 C48.704956,33.07666 48.80005,33.01709 48.890747,32.956055 C49.003296,32.88086 49.11328,32.8042 49.217407,32.725586 C49.255005,32.697754 49.297363,32.671875 49.334106,32.643066 C49.334106,32.643066 49.334106,36.816895 49.334106,36.816895 C49.314087,36.914062 49.30078,37.012695 49.31665,37.112305 C49.32495,37.17334 49.333252,37.2334 49.333252,37.29541 C49.333252,37.387695 49.307495,37.481445 49.284912,37.57422 C49.2666,37.645996 49.244995,37.71875 49.21411,37.791016 ZM4.839966,48.6958 C3.6416016,48.6958 2.666626,47.716797 2.666626,46.51367 C2.666626,46.51367 2.666626,36.65381 2.666626,36.65381 C2.666626,35.450684 3.6416016,34.47168 4.839966,34.47168 C4.839966,34.47168 19.333252,34.47168 19.333252,34.47168 C19.333252,34.47168 19.333252,36.981445 19.333252,36.981445 C19.333252,36.981445 19.333252,37.29541 19.333252,37.29541 C19.333252,37.29541 19.333252,37.608887 19.333252,37.608887 C19.333252,37.608887 19.333252,45.13965 19.333252,45.13965 C19.333252,45.13965 19.333252,45.976562 19.333252,45.976562 C19.333252,45.976562 19.579956,45.976562 19.579956,45.976562 C19.593384,46.007324 19.612427,46.037598 19.627441,46.068848 C19.656616,46.131348 19.689087,46.192383 19.722412,46.254395 C19.790771,46.37793 19.868286,46.50049 19.954102,46.620605 C20.039062,46.742188 20.134888,46.859375 20.236572,46.975586 C20.28833,47.03418 20.339966,47.091797 20.395752,47.149902 C20.714966,47.47998 21.098267,47.78955 21.540771,48.0791 C21.555786,48.089355 21.571655,48.09912 21.587402,48.109375 C21.90747,48.316406 22.253296,48.512207 22.627441,48.696777 C22.627441,48.696777 4.839966,48.696777 4.839966,48.696777 C4.839966,48.696777 4.839966,48.6958 4.839966,48.6958 ZM49.333252,44.92578 C49.32666,44.95166 49.3208,44.978027 49.31665,45.004395 C48.975708,47.090332 43.208252,49.323242 35.166626,49.323242 C32.60083,49.323242 30.270752,49.095215 28.269897,48.717773 C28.269897,48.717773 28.270752,48.710938 28.270752,48.710938 C24.126587,47.92334 21.833374,46.59424 21.19165,45.472656 C21.190796,45.47168 21.189941,45.47119 21.189941,45.46924 C21.160767,45.41748 21.139893,45.3667 21.117432,45.316406 C21.074097,45.211914 21.033325,45.10791 21.016602,45.004395 C21.016602,45.004395 21.009888,40.180664 21.009888,40.180664 C21.039917,40.2041 21.075806,40.226074 21.106567,40.24951 C21.21167,40.328125 21.321533,40.404785 21.434082,40.480957 C21.525757,40.541992 21.620728,40.60254 21.717407,40.662598 C21.866577,40.754395 22.016602,40.845703 22.176636,40.933594 C22.178223,40.93457 22.179932,40.93506 22.180786,40.936035 C23.919067,41.887695 26.309082,42.57422 28.95166,42.990234 C28.971558,42.993652 28.991577,42.996094 29.011597,42.99951 C29.864136,43.132812 30.739136,43.23633 31.629028,43.3125 C31.818237,43.328613 32.00659,43.345215 32.19751,43.3584 C32.3833,43.371582 32.56909,43.38379 32.755737,43.393555 C33.007446,43.407715 33.259155,43.41992 33.510742,43.430664 C33.65747,43.436035 33.804077,43.44287 33.95166,43.447266 C34.35742,43.458496 34.76245,43.466797 35.166626,43.466797 C35.569946,43.466797 35.974976,43.459473 36.37915,43.447754 C36.527466,43.44336 36.674927,43.43701 36.823242,43.431152 C37.073364,43.421387 37.322388,43.409668 37.571655,43.39502 C37.76001,43.384277 37.94751,43.37256 38.13501,43.359375 C38.322388,43.345703 38.507446,43.33008 38.69409,43.313965 C39.592407,43.237793 40.475708,43.132812 41.335815,42.999023 C41.348267,42.996582 41.361572,42.99463 41.374146,42.992676 C44.261597,42.539062 46.844116,41.760254 48.608276,40.66748 C48.7041,40.60791 48.799072,40.54883 48.889893,40.487793 C49.00244,40.41211 49.112427,40.33545 49.216675,40.256348 C49.25415,40.229004 49.29663,40.203125 49.333252,40.174805 C49.333252,40.174805 49.333252,44.92578 49.333252,44.92578 ZM49.333252,22.234375 C49.333252,24.356934 43.27417,26.731934 35.166626,26.731934 C27.05835,26.731934 20.999878,24.356934 20.999878,22.234375 C20.999878,22.127441 21.025757,22.018555 21.05664,21.910156 C21.089966,21.801758 21.134888,21.691406 21.20166,21.577637 C21.204102,21.572754 21.206665,21.567383 21.209106,21.562988 C21.486694,21.097168 22.045776,20.597168 22.906616,20.114258 C22.94336,20.094238 22.980835,20.074219 23.01831,20.0542 C23.165771,19.973633 23.321655,19.894531 23.485718,19.81543 C23.676636,19.726074 23.872437,19.636719 24.08252,19.550293 C24.123291,19.532715 24.165771,19.516113 24.208252,19.499512 C25.176636,19.111816 26.343262,18.768066 27.656616,18.486816 C28.067505,18.399902 28.485718,18.317871 28.915771,18.246094 C29.029907,18.22705 29.141602,18.206543 29.257446,18.188477 C32.98828,17.61084 37.34082,17.61084 41.071655,18.188477 C41.189087,18.206543 41.30249,18.22754 41.418213,18.246582 C41.845825,18.317871 42.261597,18.399414 42.669067,18.486328 C46.73169,19.354492 49.333252,20.846191 49.333252,22.234375 ZM49.333252,14.718262 C49.333252,15.921387 48.358276,16.90039 47.159912,16.90039 C47.159912,16.90039 43.301636,16.90039 43.301636,16.90039 C43.253296,16.889648 43.19995,16.882812 43.15161,16.87207 C42.60498,16.75293 42.04248,16.646973 41.46753,16.554688 C41.41162,16.546387 41.355835,16.537598 41.299927,16.528809 C39.33252,16.222168 37.232544,16.063477 35.166626,16.063477 C33.10083,16.063477 31.002441,16.222168 29.035034,16.528809 C28.97754,16.537598 28.920776,16.546387 28.863281,16.554688 C28.29004,16.646973 27.729126,16.75293 27.184082,16.871582 C27.13501,16.882324 27.079956,16.888672 27.030762,16.899414 C27.030762,16.899414 4.839966,16.899414 4.839966,16.899414 C3.6416016,16.90039 2.666626,15.921387 2.666626,14.718262 C2.666626,14.718262 2.666626,4.8583984 2.666626,4.8583984 C2.666626,3.6552734 3.6416016,2.6762695 4.839966,2.6762695 C4.839966,2.6762695 47.159058,2.6762695 47.159058,2.6762695 C48.358276,2.6762695 49.333252,3.6552734 49.333252,4.8583984 C49.333252,4.8583984 49.333252,14.718262 49.333252,14.718262 Z"/>
  </symbol>

  
</svg>