<?xml version="1.0" encoding="utf-8"?><svg viewBox="0 0 20 20" xmlns="http://www.w3.org/2000/svg" xmlns:xlink="http://www.w3.org/1999/xlink"><style>:root>svg{display:none}:root>svg:target{display:block}</style><svg viewBox="0 0 20 19" id="dribbble" xmlns="http://www.w3.org/2000/svg"><path d="M17.837 7.404a7.972 7.972 0 00-2.18-4.046A7.996 7.996 0 003.367 4.54a7.942 7.942 0 00-1.205 2.863 8.05 8.05 0 00.467 4.725 8.046 8.046 0 002.897 3.519 7.992 7.992 0 0011.107-2.16 7.925 7.925 0 001.204-2.863 8.022 8.022 0 000-3.221zM16.83 8.946c-.099-.021-2.411-.519-4.759-.224a21.316 21.316 0 00-.601-1.344c2.698-1.1 3.793-2.685 3.806-2.704a6.801 6.801 0 011.554 4.272zm-2.318-5.059c-.016.026-.99 1.508-3.568 2.474A34.595 34.595 0 008.39 2.375a6.806 6.806 0 016.123 1.512zM8.364 2.38l-.002.001-.02.005.022-.006zm-1.28.455c.092.122 1.355 1.835 2.538 3.937-3.28.871-6.128.838-6.308.834a6.842 6.842 0 013.77-4.77zM3.169 9.013c0-.072.003-.144.005-.215.12.003 3.497.08 7.015-.973.196.383.383.772.554 1.16-.09.026-.18.054-.27.082-3.686 1.193-5.557 4.51-5.557 4.51s.003.002.003.004a6.813 6.813 0 01-1.75-4.568zM10 15.847a6.805 6.805 0 01-4.352-1.566c.09.072.153.12.153.12s1.31-2.857 5.362-4.268c.014-.006.03-.01.045-.015.961 2.498 1.358 4.59 1.46 5.188-.82.348-1.722.54-2.668.54zm3.818-1.166c-.07-.413-.434-2.417-1.33-4.88 2.206-.353 4.117.251 4.258.298a6.836 6.836 0 01-2.928 4.582z"/></svg><svg viewBox="0 0 11 20" id="facebook" xmlns="http://www.w3.org/2000/svg"><path d="M8.993 2.014V4.59s-1.898-.19-2.374.538c-.26.398-.105 1.562-.128 2.398h2.518c-.213.978-.366 1.64-.522 2.487h-2.01v8.003h-3.49c.002-2.467 0-5.346 0-7.971H1.504V7.526h1.468c.076-1.84.104-3.665 1.019-4.593 1.027-1.045 2.008-.919 5.003-.919z"/></svg><svg viewBox="0 0 19 17" id="googlePlus" xmlns="http://www.w3.org/2000/svg"><path d="M15.5 4.716v2.44h-1v-2.44H12v-.998h2.5v-2.44h1v2.44H18v.998h-2.5zm-6.915-2.47c.888.49 1.407 1.288 1.407 2.33 0 .876-.54 1.567-1.238 2.102-.681.523-.81.742-.81 1.186 0 .378.73 1.024 1.11 1.29 1.115.774 1.445 1.492 1.445 2.692 0 1.497-1.445 3.17-4.116 3.17C4.039 15.016 2 13.895 2 12.398c0-1.52 1.866-2.987 4.21-2.987.255 0 .489-.011.73-.011-.32-.306-.574-.687-.574-1.151 0-.274.09-.55.214-.785-.127.01-.257-.012-.39-.012-1.926 0-3.215-1.39-3.215-3.057 0-1.63 1.78-3.132 3.673-3.132h4.22l-.945.983H8.585zm-1.93 7.552c-1.62-.017-3.07.97-3.07 2.156 0 1.21 1.17 2.094 2.79 2.094 2.276 0 3.07-.822 3.07-2.032 0-.146-.018-.289-.052-.428-.178-.684-.808-1.023-1.688-1.624a3.616 3.616 0 00-1.05-.166zm1.82-5.203C8.287 3.193 7.207 2.068 6.12 2.037c-1.087-.032-1.816 1.04-1.628 2.443.187 1.402 1.22 2.565 2.308 2.597 1.086.032 1.863-1.08 1.675-2.482z"/></svg><svg viewBox="0 0 19 19" id="instagram" xmlns="http://www.w3.org/2000/svg"><path d="M16 17.014H4a2 2 0 01-2-2v-12a2 2 0 012-2h12a2 2 0 012 2v12a2 2 0 01-2 2zm-6-11.1c-1.247 0-2.32.739-2.812 1.8h-.002a3.138 3.138 0 00-.094.235c-.012.033-.025.064-.036.098-.023.07-.042.14-.06.212-.008.033-.018.066-.025.1a3.072 3.072 0 00-.039.23l-.014.094a3.1 3.1 0 106.163 0c-.003-.032-.01-.063-.014-.094a3.12 3.12 0 00-.038-.23c-.007-.034-.017-.067-.026-.1a3.243 3.243 0 00-.06-.212c-.01-.034-.023-.065-.035-.097a3.086 3.086 0 00-.08-.201l-.014-.035h-.003A3.098 3.098 0 0010 5.914zm6.2-2.3a.8.8 0 00-.8-.8h-1.6a.8.8 0 00-.8.8v1.6a.8.8 0 00.8.8h1.6a.8.8 0 00.8-.8v-1.6zm0 4.1h-1.475a4.9 4.9 0 11-9.45 0H3.8v6.7a.8.8 0 00.8.8h10.8a.8.8 0 00.8-.8v-6.7z"/></svg><svg viewBox="0 0 15 20" id="pinterest" xmlns="http://www.w3.org/2000/svg"><path d="M6.844 12.424c-.13.52-.262 1.066-.399 1.6-.134.526-.252 1.06-.448 1.543-.325.8-.737 1.575-1.277 2.2-.36.418-.283.251-.391.229-.083-.017-.09-.098-.106-.215-.088-.636-.028-1.372.005-2.087.037-.815.208-1.494.367-2.17.303-1.29.592-2.554.897-3.852.02-.087.075-.23.056-.278a4.016 4.016 0 01-.267-1.063 3.38 3.38 0 01.087-1.215c.172-.66.57-1.247 1.183-1.461.39-.135.822-.074 1.084.083.27.16.456.416.542.777.093.385.025.845-.05 1.183-.166.761-.386 1.333-.585 2.068-.099.365-.21.74-.119 1.133.085.36.273.61.53.796.266.194.581.3 1.016.285.767-.027 1.3-.517 1.657-.98.57-.74.915-1.74 1.046-2.929.042-.383.073-.824.044-1.258-.055-.803-.306-1.448-.704-1.949a3.3 3.3 0 00-1.57-1.068c-.648-.213-1.545-.282-2.342-.146-1.449.248-2.47 1.071-3.072 2.207a4.428 4.428 0 00-.523 2.132c0 .656.162 1.166.424 1.563.083.125.205.229.286.373.116.203-.018.507-.075.727-.068.266-.076.633-.386.64-.128.001-.29-.093-.399-.153-.815-.45-1.31-1.27-1.513-2.333a5.59 5.59 0 010-2.025 5.77 5.77 0 012.747-3.839A6.533 6.533 0 017.03 2.1a10.43 10.43 0 011.003-.082 6.021 6.021 0 012.704.506 5.536 5.536 0 011.863 1.34 5.083 5.083 0 011.146 2.07c.126.432.248.895.248 1.429 0 .536-.113 1.008-.192 1.48-.296 1.768-1.137 3.213-2.399 4.036a4.14 4.14 0 01-1.096.506c-.417.12-.892.212-1.402.176a2.872 2.872 0 01-1.24-.36c-.337-.19-.62-.424-.822-.777z"/></svg><svg viewBox="0 0 13 19" id="tumblr" xmlns="http://www.w3.org/2000/svg"><path d="M11.009 16.145c-.68.32-1.297.547-1.849.678a7.794 7.794 0 01-1.79.194 4.862 4.862 0 01-1.717-.276 4.175 4.175 0 01-1.431-.79c-.396-.343-.67-.708-.823-1.092-.152-.385-.228-.943-.228-1.677V7.568H1.007V5.302c.626-.204 1.35-.498 1.796-.88.448-.381.805-.839 1.075-1.375.27-.533.456-1.213.558-2.039H6.7v3.703h3.682v2.857H6.701v4.105c0 .93-.012 1.464.086 1.727.097.262.341.534.607.692a2.3 2.3 0 001.208.319c.807 0 1.609-.265 2.407-.791v2.525z"/></svg><svg viewBox="0 0 19 16" id="twitter" xmlns="http://www.w3.org/2000/svg"><path d="M12.883 1.515c1.271-.022 1.948.44 2.594 1.03.549-.047 1.262-.354 1.682-.566l.408-.224c-.24.648-.565 1.155-1.065 1.54-.11.086-.22.202-.36.256v.008c.712-.007 1.3-.328 1.858-.503v.008c-.293.466-.69.939-1.113 1.278l-.513.406c.01.755-.01 1.475-.152 2.108-.82 3.686-2.992 6.186-6.43 7.257-1.235.386-3.23.544-4.645.192a11.973 11.973 0 01-1.93-.63c-.33-.145-.636-.3-.929-.48L2 13.02c.319.01.692.098 1.049.04.323-.052.64-.038.937-.104.742-.162 1.402-.378 1.97-.71.275-.161.693-.35.889-.583a2.798 2.798 0 01-.977-.176c-1.062-.374-1.68-1.064-2.082-2.1.321.036 1.248.12 1.465-.063-.405-.023-.795-.257-1.073-.431-.854-.535-1.55-1.432-1.546-2.811l.337.16c.214.09.432.139.689.192.108.022.324.085.448.039H4.09c-.165-.192-.435-.32-.6-.526-.549-.682-1.062-1.73-.737-2.979a3.82 3.82 0 01.352-.854l.016.008c.064.133.206.232.296.343.28.347.625.66.977.934 1.199.937 2.278 1.514 4.012 1.94a6.3 6.3 0 001.474.192c-.148-.43-.1-1.125.016-1.54.292-1.047.927-1.8 1.858-2.204.222-.097.47-.167.728-.224l.4-.048z"/></svg><svg viewBox="0 0 19 14" id="youtube" xmlns="http://www.w3.org/2000/svg"><path d="M15.537 1.522l-5.225-.004-5.43.004C3.526 1.522 2 2.43 2 3.758v6.618c0 1.33 1.526 2.14 2.884 2.14h10.654c1.358 0 2.46-.81 2.46-2.14V3.758c0-1.33-1.102-2.236-2.46-2.236zM8.964 9.565l-.032-5.04 3.508 2.542-3.476 2.498z"/></svg></svg>