<?xml version="1.0" ?><svg style="enable-background:new 0 0 512 512;" version="1.1" viewBox="0 0 512 512" xml:space="preserve" xmlns="http://www.w3.org/2000/svg" xmlns:xlink="http://www.w3.org/1999/xlink"><style type="text/css">
	.st0{fill:#1E1E1E;}
	.st1{fill:#464646;stroke:#21759B;stroke-width:2;stroke-miterlimit:10;}
	.st2{fill:#FFFFFF;}
</style><g id="Edges"/><g id="Background_Bottom"><g><path class="st0" d="M492.3,443.1c0,34.2-27.7,61.9-61.9,61.9H80.7c-34.2,0-61.9-27.7-61.9-61.9V93.4c0-34.2,27.7-61.9,61.9-61.9    h349.7c34.2,0,61.9,27.7,61.9,61.9V443.1z"/></g></g><g id="Background"><path class="st1" d="M492.3,418.4c0,34.2-27.7,61.9-61.9,61.9H80.7c-34.2,0-61.9-27.7-61.9-61.9V68.6c0-34.2,27.7-61.9,61.9-61.9   h349.7c34.2,0,61.9,27.7,61.9,61.9V418.4z"/></g><g id="Symbol"><path class="st2" d="M365.3,211.6c-10,0-18.2,9.3-18.2,20.7l0,82.6c0,11.4,8.2,20.7,18.2,20.7c10,0,18.2-9.3,18.2-20.7l0-82.6   C383.5,220.9,375.3,211.6,365.3,211.6z M147.3,211.6c-10,0-18.2,9.3-18.2,20.7l0,82.6c0,11.4,8.2,20.7,18.2,20.7   c10,0,18.2-9.3,18.2-20.7l0-82.6C165.5,220.9,157.3,211.6,147.3,211.6z M174.6,325.2c0,17.1,12.2,31,27.3,31l0,0l0,41.3   c0,11.4,8.2,20.7,18.2,20.7c10,0,18.2-9.3,18.2-20.7l0-41.3h36.3l0,41.3c0,11.4,8.2,20.7,18.2,20.7c10,0,18.2-9.3,18.2-20.7v-41.3   c15.1,0,27.3-13.9,27.3-31l0-113.6l-163.5,0L174.6,325.2z"/><path class="st2" d="M337.6,197.6c-2.8-19.3-16.8-35.9-36.8-45.9l9.1-14c2.2-3.5,0.4-7.7-4.1-9.4c-4.5-1.7-9.9-0.3-12.2,3.1   l-9.1,14.1l-2.4-0.7c-8.1-2.1-16.8-3.2-25.8-3.2c-9,0-17.7,1.1-25.8,3.2l-2.4,0.7l-9.1-14.1c-2.2-3.5-7.7-4.9-12.2-3.1   c-4.5,1.7-6.3,5.9-4.1,9.4l9.1,14c-20,10.1-34,26.7-36.8,45.9v7l163,0v-7H337.6z M229.1,183.5c-5,0-9.1-3.1-9.1-7   c0-3.9,4.1-7,9.1-7c0,0,0,0,0,0s0,0,0,0c5,0,9.1,3.1,9.1,7C238.2,180.4,234.1,183.5,229.1,183.5L229.1,183.5z M283.6,183.5   c-5,0-9.1-3.1-9.1-7c0-3.9,4.1-7,9.1-7c0,0,0,0,0,0s0,0,0,0c5,0,9.1,3.1,9.1,7C292.7,180.4,288.6,183.5,283.6,183.5L283.6,183.5z"/></g></svg>