<?xml version="1.0" encoding="utf-8"?><svg viewBox="0 0 512 512" xmlns="http://www.w3.org/2000/svg" xmlns:xlink="http://www.w3.org/1999/xlink"><style>:root>svg{display:none}:root>svg:target{display:block}</style><svg  viewBox="0 0 20 20" id="babysitter" xmlns="http://www.w3.org/2000/svg"><path d="M11 0v8h8a8 8 0 00-8-8zm6.32 13.89A7.948 7.948 0 0019 9H4.44L3.5 7H0v2h2.22s1.89 4.07 2.12 4.42C3.24 14 2.5 15.17 2.5 16.5A3.5 3.5 0 006 20c1.76 0 3.22-1.3 3.46-3h2.08c.24 1.7 1.7 3 3.46 3a3.5 3.5 0 003.5-3.5c0-1.04-.46-1.97-1.18-2.61zM6 18a1.5 1.5 0 110-3 1.5 1.5 0 010 3zm9 0a1.5 1.5 0 110-3 1.5 1.5 0 010 3z" /></svg><svg  viewBox="0 0 20 22" id="barley" xmlns="http://www.w3.org/2000/svg"><path d="M4.83 17.12C4 15.96 4 14.62 4 13.29c1.67 1 3.33 2 4.17 3.17l.33.56v-2.28c-1.5-.9-2.92-1.82-3.67-2.87C4 10.71 4 9.37 4 8.04c1.67 1 3.33 2 4.17 3.17l.33.58v-2.3C7 8.59 5.58 7.67 4.83 6.62 4 5.46 4 4.12 4 2.79c1.67 1 3.33 2 4.17 3.17.1.14.19.29.27.45-.17-.62-.28-1.2-.29-1.8C8.14 3.1 8.8 1.55 9.46 0c.69 1.48 1.38 2.97 1.39 4.48.01.63-.1 1.27-.28 1.9.08-.14.16-.28.26-.42.84-1.17 2.5-2.17 4.17-3.17 0 1.33 0 2.67-.83 3.83-.75 1.05-2.17 1.97-3.67 2.87v2.3l.33-.58c.84-1.17 2.5-2.17 4.17-3.17 0 1.33 0 2.67-.83 3.83-.75 1.05-2.17 1.97-3.67 2.87v2.28l.33-.56c.84-1.17 2.5-2.17 4.17-3.17 0 1.33 0 2.67-.83 3.83-.75 1.05-2.17 1.97-3.67 2.87v1.8h-2v-1.8c-1.5-.9-2.92-1.82-3.67-2.87z" /></svg><svg viewBox="0 0 511.999 511.999" id="cart" xmlns="http://www.w3.org/2000/svg"><path d="M214.685 402.828c-24.829 0-45.029 20.2-45.029 45.029 0 24.829 20.2 45.029 45.029 45.029s45.029-20.2 45.029-45.029c-.001-24.829-20.201-45.029-45.029-45.029zm0 64.914c-10.966 0-19.887-8.922-19.887-19.887 0-10.966 8.922-19.887 19.887-19.887s19.887 8.922 19.887 19.887c0 10.967-8.922 19.887-19.887 19.887zM372.63 402.828c-24.829 0-45.029 20.2-45.029 45.029 0 24.829 20.2 45.029 45.029 45.029s45.029-20.2 45.029-45.029c-.001-24.829-20.201-45.029-45.029-45.029zm0 64.914c-10.966 0-19.887-8.922-19.887-19.887 0-10.966 8.922-19.887 19.887-19.887 10.966 0 19.887 8.922 19.887 19.887 0 10.967-8.922 19.887-19.887 19.887zM383.716 165.755H203.567c-6.943 0-12.571 5.628-12.571 12.571s5.629 12.571 12.571 12.571h180.149c6.943 0 12.571-5.628 12.571-12.571 0-6.944-5.628-12.571-12.571-12.571zM373.911 231.035H213.373c-6.943 0-12.571 5.628-12.571 12.571s5.628 12.571 12.571 12.571H373.91c6.943 0 12.571-5.628 12.571-12.571 0-6.942-5.628-12.571-12.57-12.571z"/><path d="M506.341 109.744a25.04 25.04 0 00-19.489-9.258H95.278L87.37 62.097a25.173 25.173 0 00-14.614-17.989l-55.177-23.95c-6.37-2.767-13.773.156-16.536 6.524-2.766 6.37.157 13.774 6.524 16.537L62.745 67.17l60.826 295.261c2.396 11.628 12.752 20.068 24.625 20.068h301.166c6.943 0 12.571-5.628 12.571-12.571s-5.628-12.571-12.571-12.571H148.197l-7.399-35.916H451.69c11.872 0 22.229-8.44 24.624-20.068l35.163-170.675a25.043 25.043 0 00-5.136-20.954zM451.69 296.301H135.619l-35.161-170.674 386.393.001-35.161 170.673z"/></svg><svg  viewBox="0 0 24 24" id="chevronDown" xmlns="http://www.w3.org/2000/svg"><path d="M7.41 8L12 12.59 16.59 8 18 9.42l-6 6-6-6L7.41 8z" /></svg><svg  viewBox="0 0 20 20" id="cinema" xmlns="http://www.w3.org/2000/svg"><path d="M16 7h-2V5h2v2zm0 4h-2V9h2v2zm0 4h-2v-2h2v2zM6 7H4V5h2v2zm0 4H4V9h2v2zm0 4H4v-2h2v2zM16 1v2h-2V1H6v2H4V1H2v18h2v-2h2v2h8v-2h2v2h2V1h-2z" /></svg><svg  viewBox="0 0 20 20" id="concert" xmlns="http://www.w3.org/2000/svg"><path d="M19 1v12.5a3.5 3.5 0 11-2-3.16V4.47L7 6.6v8.9a3.5 3.5 0 11-2-3.16V4l14-3z" /></svg><svg  viewBox="0 0 20 20" id="fitness" xmlns="http://www.w3.org/2000/svg"><path d="M2.703 12.602l-.72-.71a2.01 2.01 0 010-2.82c.8-.79 2.06-.79 2.84 0l2.58 2.57 4.24-4.24-2.57-2.58c-.79-.78-.79-2.04 0-2.84a2.01 2.01 0 012.82 0l.71.72 5.66 5.66.72.71c.77.78.77 2.04 0 2.82-.8.79-2.06.79-2.84 0l-2.58-2.57-4.24 4.24 2.57 2.58c.79.78.79 2.04 0 2.84-.78.77-2.04.77-2.82 0l-.71-.72-5.66-5.66zm-1.06 5.3l1.06-1.06-1.41-1.41a.996.996 0 111.41-1.41l4.24 4.24a.996.996 0 11-1.41 1.41l-1.41-1.41-1.06 1.06-1.42-1.42zm16.26-16.26l1.42 1.42-1.06 1.06 1.41 1.41c.39.39.39 1.02 0 1.41-.39.4-1.02.4-1.41 0l-4.24-4.24a.996.996 0 111.41-1.41l1.41 1.41 1.06-1.06z" /></svg><svg  viewBox="0 0 20 20" id="hanger" xmlns="http://www.w3.org/2000/svg"><path d="M18.76 14.34h-.01c.75.43 1.25 1.24 1.25 2.16a2.5 2.5 0 01-2.5 2.5h-15A2.5 2.5 0 010 16.5c0-.92.5-1.73 1.25-2.16h-.01L9 9.86S9 9 10 8c1 0 2-.9 2-2a2 2 0 10-4 0H6a4 4 0 018 0 4 4 0 01-3 3.87l7.76 4.47zM2.5 17h15c.17 0 .34-.09.43-.25.14-.25.07-.54-.18-.68L10 11.59l-7.75 4.48c-.25.14-.32.43-.18.68.09.16.26.25.43.25z" /></svg><svg  viewBox="0 0 28 28" id="heard" xmlns="http://www.w3.org/2000/svg"><path d="M14.07 18.585l-.07.07-.077-.07C10.598 15.568 8.4 13.573 8.4 11.55c0-1.4 1.05-2.45 2.45-2.45 1.078 0 2.128.7 2.499 1.652h1.302C15.022 9.8 16.072 9.1 17.15 9.1c1.4 0 2.45 1.05 2.45 2.45 0 2.023-2.198 4.018-5.53 7.035zM17.15 7.7A4.21 4.21 0 0014 9.156 4.21 4.21 0 0010.85 7.7C8.694 7.7 7 9.387 7 11.55c0 2.639 2.38 4.802 5.985 8.071l1.015.924 1.015-.924C18.62 16.352 21 14.189 21 11.55c0-2.163-1.694-3.85-3.85-3.85z" /></svg><svg  viewBox="0 0 14 2" id="minus" xmlns="http://www.w3.org/2000/svg"><path d="M14 2H0V0h14v2z" /></svg><svg  viewBox="0 0 20 20" id="nuclearStation" xmlns="http://www.w3.org/2000/svg"><path d="M10 7.22a2 2 0 110 4 2 2 0 010-4zm0 12c-1.95 0-3.78-.56-5.31-1.53l3.31-5a4.037 4.037 0 004 0l3.31 5A9.903 9.903 0 0110 19.22zm-10-10C0 5.08 2.5 1.52 6.11 0l2.23 5.58A4.008 4.008 0 006 9.22H0zm14 0c0-1.62-.96-3-2.34-3.64L13.89 0A9.985 9.985 0 0120 9.22h-6z" /></svg><svg  viewBox="0 0 20 20" id="observation" xmlns="http://www.w3.org/2000/svg"><path d="M9 4h2v7H9V4zM7 18a1 1 0 01-1 1H3a1 1 0 01-1-1v-5l2-9h4v7a1 1 0 01-1 1v6zM8 3H5V1h3v2zm5 15v-6a1 1 0 01-1-1V4h4l2 9v5a1 1 0 01-1 1h-3a1 1 0 01-1-1zM12 3V1h3v2h-3z" /></svg><svg  viewBox="0 0 20 20" id="pets" xmlns="http://www.w3.org/2000/svg"><path d="M6 12a3 3 0 01-6 0c0-.77.29-1.47.76-2a3.006 3.006 0 01.119-4.121A3 3 0 016 8c1.33.08 2.67.17 4 .17s2.67-.09 4-.17a3 3 0 016 0c0 .77-.29 1.47-.76 2a3.006 3.006 0 01-.119 4.121A3 3 0 0114 12c-1.33-.08-2.67-.17-4-.17s-2.67.09-4 .17z" /></svg><svg  viewBox="0 0 14 14" id="plus" xmlns="http://www.w3.org/2000/svg"><path d="M14 8H8v6H6V8H0V6h6V0h2v6h6v2z" /></svg><svg  viewBox="0 0 20 20" id="powerstation" xmlns="http://www.w3.org/2000/svg"><path d="M5 0h10l-3.5 7H15L8 20v-8H5V0zm2 2v8h3v2.66L12 9H8.24l3.52-7H7z" /></svg><svg  viewBox="0 0 20 20" id="restaraunt" xmlns="http://www.w3.org/2000/svg"><path d="M5.36 11.52L1.17 7.34a4.008 4.008 0 010-5.66l7.02 7-2.83 2.84zm5.31-.34l6.88 6.88-1.41 1.41-6.88-6.88-6.88 6.88-1.41-1.41 9.65-9.66-.2-.22a1.98 1.98 0 010-2.81L14.76 1l.93.92-3.24 3.26.96.94 3.24-3.25.92.92-3.25 3.24.94.96 3.26-3.25.92.94-4.37 4.34c-.78.78-2.04.78-2.81 0l-.22-.2-1.37 1.36z" /></svg><svg  viewBox="0 0 22 20" id="shipWheel" xmlns="http://www.w3.org/2000/svg"><path d="M1 8.66l2.05.1a7.96 7.96 0 013.2-5.54L5.13 1.5C4.86 1.02 5 .41 5.5.13 6-.14 6.59.02 6.87.5l.93 1.82a8.102 8.102 0 016.4 0L15.13.5c.28-.48.87-.64 1.37-.37.5.28.64.89.37 1.37l-1.12 1.72a7.96 7.96 0 013.2 5.54l2.05-.1a1 1 0 110 2l-2.05-.1a7.96 7.96 0 01-3.2 5.54l1.12 1.72c.27.48.13 1.09-.37 1.37-.5.27-1.09.11-1.37-.37L14.2 17a8.102 8.102 0 01-6.4 0l-.93 1.82c-.28.48-.87.64-1.37.37-.5-.28-.64-.89-.37-1.37l1.12-1.72a7.96 7.96 0 01-3.2-5.54l-2.05.1a1 1 0 010-2zm7.07.35c.13-.61.46-1.15.93-1.56L7.34 4.91a5.993 5.993 0 00-2.29 3.95l3.02.15zM11 6.66c.32 0 .62.05.9.14l1.38-2.69c-.7-.29-1.47-.45-2.28-.45-.81 0-1.58.16-2.28.45L10.1 6.8c.28-.09.58-.14.9-.14zm2.93 2.35l3.02-.15a5.993 5.993 0 00-2.29-3.95L13 7.45c.47.41.8.95.93 1.56zm0 1.3c-.13.61-.46 1.15-.93 1.56l1.66 2.54a5.993 5.993 0 002.29-3.95l-3.02-.15zM11 12.66c-.32 0-.62-.05-.91-.14l-1.37 2.69c.7.29 1.47.45 2.28.45.81 0 1.58-.16 2.28-.45l-1.37-2.69c-.29.09-.59.14-.91.14zm-2.93-2.35l-3.02.15c.22 1.6 1.06 3.01 2.29 3.95L9 11.87c-.47-.41-.8-.95-.93-1.56z" /></svg><svg viewBox="0 0 512 512" id="twitter" xmlns="http://www.w3.org/2000/svg"><style>.rst0{fill:#1e1e1e}.rst1{fill:#464646;stroke:#21759b;stroke-width:2;stroke-miterlimit:10}.rst2{fill:#fff}</style><path class="rst0" d="M492.3 443.1c0 34.2-27.7 61.9-61.9 61.9H80.7c-34.2 0-61.9-27.7-61.9-61.9V93.4c0-34.2 27.7-61.9 61.9-61.9h349.7c34.2 0 61.9 27.7 61.9 61.9v349.7z" id="rBackground_Bottom"/><path class="rst1" d="M492.3 418.4c0 34.2-27.7 61.9-61.9 61.9H80.7c-34.2 0-61.9-27.7-61.9-61.9V68.6c0-34.2 27.7-61.9 61.9-61.9h349.7c34.2 0 61.9 27.7 61.9 61.9v349.8z" id="rBackground"/><path class="rst2" d="M393.2 170.5c-10.1 4.5-21 7.5-32.5 8.9 11.7-7 20.6-18.1 24.9-31.2-10.9 6.5-23 11.2-35.9 13.7-10.3-11-25-17.8-41.3-17.8-31.2 0-56.5 25.3-56.5 56.5 0 4.4.5 8.7 1.5 12.9-47-2.4-88.6-24.9-116.5-59-4.9 8.3-7.6 18.1-7.6 28.4 0 19.6 10 36.9 25.1 47-9.3-.3-18-2.8-25.6-7.1v.7c0 27.4 19.5 50.2 45.3 55.4-4.7 1.3-9.7 2-14.9 2-3.6 0-7.2-.4-10.6-1 7.2 22.4 28.1 38.8 52.8 39.2-19.3 15.1-43.7 24.2-70.2 24.2-4.6 0-9.1-.3-13.5-.8 25 16 54.7 25.4 86.6 25.4 103.9 0 160.7-86.1 160.7-160.7 0-2.4-.1-4.9-.2-7.3 11.3-8.1 20.9-18 28.4-29.4z" id="rSymbol"/></svg><svg  viewBox="0 0 28 28" id="viewGrid" xmlns="http://www.w3.org/2000/svg"><path d="M5 13h8V5H5v8zm0 10h8v-8H5v8zm10 0h8v-8h-8v8zm0-18v8h8V5" /></svg><svg  viewBox="0 0 28 28" id="viewList" xmlns="http://www.w3.org/2000/svg"><path d="M10 7v4h12V7H10zm0 14h12v-4H10v4zm0-5h12v-4H10v4zm-5-5h4V7H5v4zm0 10h4v-4H5v4zm0-5h4v-4H5v4z" /></svg></svg>