<?xml version="1.0" standalone="no"?>
<!DOCTYPE svg PUBLIC "-//W3C//DTD SVG 20010904//EN"
 "http://www.w3.org/TR/2001/REC-SVG-20010904/DTD/svg10.dtd">
<svg version="1.0" xmlns="http://www.w3.org/2000/svg"
 width="700.000000pt" height="700.000000pt" viewBox="0 0 700.000000 700.000000"
 preserveAspectRatio="xMidYMid meet">
<metadata>
Created by potrace 1.11, written by Peter Selinger 2001-2013
</metadata>
<g transform="translate(0.000000,700.000000) scale(0.100000,-0.100000)"
fill="#000000" stroke="none">
<path d="M1259 6996 c-2 -2 -24 -6 -49 -9 -228 -27 -486 -137 -675 -286 -253
-200 -421 -466 -502 -796 l-28 -110 -2 -2260 c-2 -2176 -1 -2264 17 -2365 61
-343 226 -629 490 -851 53 -44 174 -129 184 -129 3 0 27 -13 55 -29 80 -48
295 -123 391 -137 14 -2 52 -8 85 -13 38 -6 904 -9 2315 -8 l2255 2 105 27
c445 111 780 379 968 773 23 47 70 173 77 205 1 8 8 33 14 55 5 22 13 54 15
70 3 17 9 41 13 55 4 14 8 1042 9 2285 2 2118 1 2266 -15 2355 -35 186 -83
320 -171 473 -197 346 -565 606 -950 672 -19 4 -48 9 -65 13 -31 7 -4529 15
-4536 8z m4598 -428 c51 -15 121 -41 157 -57 207 -94 400 -284 489 -481 40
-90 48 -111 70 -190 l21 -75 3 -2235 c2 -2348 3 -2272 -40 -2422 -79 -266
-298 -514 -551 -620 -39 -17 -80 -34 -91 -39 -11 -5 -63 -17 -115 -28 -92 -19
-156 -20 -2300 -20 -2126 0 -2208 1 -2296 19 -411 86 -712 395 -789 810 -12
63 -14 441 -14 2280 1 2099 2 2209 19 2290 22 104 59 204 107 290 20 35 40 69
45 75 111 142 190 218 293 281 64 39 181 94 199 94 8 0 17 4 20 9 3 4 20 11
38 15 18 3 65 12 103 20 58 12 441 14 2305 12 l2235 -1 92 -27z"/>
<path d="M2470 5003 c-121 -9 -305 -52 -428 -102 -120 -48 -358 -178 -445
-243 -17 -13 -11 -29 99 -248 110 -221 116 -237 110 -280 -8 -66 -16 -112 -22
-140 -3 -14 -8 -36 -10 -50 -3 -14 -11 -61 -19 -105 -7 -44 -16 -96 -19 -115
-3 -19 -10 -60 -16 -90 -6 -30 -13 -75 -16 -99 -3 -24 -10 -67 -15 -95 -5 -28
-12 -67 -15 -86 -3 -19 -11 -73 -19 -120 -8 -47 -17 -105 -20 -130 -3 -25 -8
-56 -10 -70 -6 -34 -12 -79 -25 -185 -6 -49 -13 -103 -16 -120 -11 -61 -13
-372 -3 -430 24 -145 85 -283 159 -356 173 -172 521 -190 808 -43 94 48 232
143 232 160 0 6 -8 22 -19 35 -52 67 -101 207 -118 334 -14 108 -7 371 12 495
2 14 14 86 25 160 11 74 23 142 25 150 2 8 7 35 10 60 8 51 15 65 16 29 0 -13
2 -31 4 -40 1 -8 6 -42 9 -75 4 -32 13 -108 22 -169 8 -60 17 -128 20 -150 3
-22 9 -56 14 -75 5 -19 11 -53 15 -75 30 -202 129 -467 220 -590 74 -100 175
-154 297 -159 160 -6 327 50 468 159 80 62 87 73 95 145 5 52 42 254 59 330
19 81 89 304 133 425 48 131 195 455 206 455 2 0 -7 -62 -19 -137 -13 -76 -26
-158 -29 -183 -3 -25 -9 -70 -15 -100 -9 -56 -15 -96 -25 -185 -4 -27 -8 -57
-10 -65 -12 -46 -20 -197 -20 -355 1 -155 4 -192 24 -265 44 -163 126 -281
239 -343 183 -99 478 -90 702 23 62 31 201 124 224 149 19 21 19 22 -1 49
-116 157 -157 446 -108 771 13 87 31 196 39 242 8 46 17 98 20 114 11 71 37
214 46 255 5 25 12 56 14 70 2 14 20 108 40 210 44 235 41 214 76 420 43 245
44 252 44 380 0 218 -68 342 -232 418 -51 24 -69 26 -177 27 -307 0 -554 -73
-811 -240 -280 -182 -534 -501 -749 -939 -41 -83 -75 -144 -76 -136 -5 60 -13
112 -43 282 -42 235 -110 465 -183 616 -102 213 -262 347 -474 398 -87 20
-232 33 -319 27z"/>
</g>
</svg>
