<svg width="28" height="28" fill="none" xmlns="http://www.w3.org/2000/svg"><g clip-path="url(#clip0)"><path d="M-257.738 4.032h-6.496V1.064h16.66v2.968h-6.524V21h-3.64V4.032zm17.809 2.492c.541 0 1.008.075 1.4.224l-.028 3.192a4.871 4.871 0 00-1.848-.364c-1.195 0-2.11.345-2.744 1.036-.616.69-.924 1.605-.924 2.744V21h-3.472V10.864c0-1.493-.075-2.828-.224-4.004h3.276l.28 2.492c.354-.915.914-1.615 1.68-2.1.765-.485 1.633-.728 2.604-.728zm15.451 7.588h-9.744c.075 1.512.448 2.632 1.12 3.36.691.71 1.708 1.064 3.052 1.064 1.549 0 2.987-.504 4.312-1.512l1.008 2.408c-.672.541-1.503.98-2.492 1.316a9.497 9.497 0 01-2.968.476c-2.315 0-4.135-.653-5.46-1.96-1.325-1.307-1.988-3.099-1.988-5.376 0-1.437.289-2.716.868-3.836.579-1.12 1.391-1.988 2.436-2.604 1.045-.635 2.231-.952 3.556-.952 1.941 0 3.472.635 4.592 1.904 1.139 1.25 1.708 2.977 1.708 5.18v.532zm-6.216-5.096c-.933 0-1.699.28-2.296.84-.579.541-.952 1.335-1.12 2.38h6.58c-.112-1.064-.439-1.867-.98-2.408-.523-.541-1.251-.812-2.184-.812zm17.272-2.52c3.379 0 5.068 1.941 5.068 5.824V21h-3.5v-8.512c0-1.12-.215-1.932-.644-2.436-.429-.523-1.092-.784-1.988-.784-1.064 0-1.923.345-2.576 1.036-.653.672-.98 1.568-.98 2.688V21h-3.472V10.864c0-1.493-.075-2.828-.224-4.004h3.276l.252 2.324a5.145 5.145 0 011.96-1.988c.84-.467 1.783-.7 2.828-.7zm22.303-6.104V21h-3.444v-2.268a4.629 4.629 0 01-1.848 1.848c-.803.43-1.717.644-2.744.644-1.213 0-2.296-.308-3.248-.924-.952-.616-1.699-1.484-2.24-2.604-.523-1.139-.784-2.436-.784-3.892s.261-2.735.784-3.836 1.26-1.95 2.212-2.548c.952-.616 2.044-.924 3.276-.924 1.008 0 1.904.215 2.688.644a4.32 4.32 0 011.848 1.764V.392h3.5zm-7.112 18.088c1.157 0 2.053-.401 2.688-1.204.653-.803.98-1.941.98-3.416 0-1.475-.317-2.613-.952-3.416-.635-.803-1.531-1.204-2.688-1.204-1.176 0-2.091.401-2.744 1.204-.635.784-.952 1.904-.952 3.36 0 1.475.317 2.623.952 3.444.653.821 1.559 1.232 2.716 1.232zm10.924-11.62h3.472V21h-3.472V6.86zm3.668-6.412v3.444h-3.892V.448h3.892zm11.725 6.048c3.378 0 5.068 1.941 5.068 5.824V21h-3.5v-8.512c0-1.12-.215-1.932-.644-2.436-.43-.523-1.092-.784-1.988-.784-1.064 0-1.923.345-2.576 1.036-.654.672-.98 1.568-.98 2.688V21h-3.472V10.864c0-1.493-.075-2.828-.224-4.004h3.276l.252 2.324a5.139 5.139 0 011.96-1.988c.84-.467 1.782-.7 2.828-.7zm22.443.364v13.692c0 2.203-.607 3.873-1.82 5.012-1.214 1.139-2.996 1.708-5.348 1.708-2.184 0-4.107-.457-5.768-1.372l.56-2.66c1.717.896 3.425 1.344 5.124 1.344 2.52 0 3.78-1.25 3.78-3.752v-2.8c-.43.765-1.055 1.39-1.876 1.876-.822.467-1.746.7-2.772.7-1.232 0-2.334-.29-3.304-.868-.952-.597-1.699-1.428-2.24-2.492-.523-1.083-.784-2.315-.784-3.696 0-1.381.261-2.604.784-3.668.541-1.083 1.288-1.913 2.24-2.492.97-.597 2.072-.896 3.304-.896 1.045 0 1.969.224 2.772.672a4.421 4.421 0 011.876 1.82V6.86h3.472zm-7.196 11.004c1.157 0 2.062-.383 2.716-1.148.672-.765 1.008-1.82 1.008-3.164s-.327-2.399-.98-3.164c-.654-.765-1.568-1.148-2.744-1.148-1.158 0-2.072.383-2.744 1.148-.654.765-.98 1.82-.98 3.164s.326 2.399.98 3.164c.672.765 1.586 1.148 2.744 1.148zm23.589-13.832h-6.496V1.064h16.66v2.968h-6.524V21h-3.64V4.032zm31.491-2.968L-110.463 21h-2.94l-8.876-19.936h3.752l6.636 15.4 6.636-15.4h3.668zm16.327 20.188c-1.53 0-2.968-.205-4.312-.616-1.325-.41-2.455-.999-3.388-1.764l1.232-2.632c.97.728 1.978 1.27 3.024 1.624 1.064.336 2.221.504 3.472.504 1.381 0 2.445-.243 3.192-.728.765-.485 1.148-1.167 1.148-2.044 0-.747-.355-1.316-1.064-1.708-.69-.41-1.839-.793-3.444-1.148-2.501-.541-4.322-1.241-5.46-2.1-1.139-.859-1.708-2.11-1.708-3.752 0-1.176.317-2.221.952-3.136s1.53-1.633 2.688-2.156c1.176-.523 2.53-.784 4.06-.784 1.4 0 2.725.215 3.976.644 1.27.41 2.305.99 3.108 1.736l-1.204 2.632c-1.773-1.419-3.734-2.128-5.88-2.128-1.288 0-2.306.27-3.052.812-.747.523-1.12 1.241-1.12 2.156 0 .784.327 1.381.98 1.792.672.41 1.81.793 3.416 1.148 1.661.392 3.015.821 4.06 1.288 1.045.448 1.848 1.036 2.408 1.764.56.71.84 1.605.84 2.688 0 1.195-.317 2.24-.952 3.136-.635.877-1.55 1.559-2.744 2.044-1.195.485-2.604.728-4.228.728zm19.11-14.756c3.379 0 5.068 1.941 5.068 5.824V21h-3.5v-8.512c0-1.12-.214-1.932-.644-2.436-.429-.523-1.092-.784-1.988-.784-1.064 0-1.922.345-2.576 1.036-.653.672-.98 1.568-.98 2.688V21h-3.472V.392h3.472v8.512a4.884 4.884 0 011.932-1.764c.803-.43 1.699-.644 2.688-.644zm15.191 14.728c-1.437 0-2.706-.299-3.808-.896a6.252 6.252 0 01-2.52-2.548c-.578-1.12-.868-2.427-.868-3.92 0-1.493.29-2.79.868-3.892a6.21 6.21 0 012.52-2.576c1.102-.597 2.371-.896 3.808-.896 1.42 0 2.67.299 3.752.896a6.036 6.036 0 012.492 2.576c.598 1.101.896 2.399.896 3.892 0 1.493-.298 2.8-.896 3.92a6.074 6.074 0 01-2.492 2.548c-1.082.597-2.333.896-3.752.896zm-.028-2.744c1.195 0 2.1-.383 2.716-1.148.635-.784.952-1.941.952-3.472 0-1.512-.317-2.66-.952-3.444-.634-.803-1.53-1.204-2.688-1.204-1.176 0-2.08.401-2.716 1.204-.634.784-.952 1.932-.952 3.444 0 1.53.308 2.688.924 3.472.635.765 1.54 1.148 2.716 1.148zm32.453-11.62L-24.077 21h-3.052l-3.5-9.268L-34.045 21h-3.08L-42.67 6.86h3.584l3.64 9.968 3.668-9.968h2.52l3.668 10.052 3.64-10.052h3.416zm7.195 14.364c-2.557 0-4.592-.597-6.104-1.792l.98-2.464c1.512 1.12 3.239 1.68 5.18 1.68.84 0 1.484-.14 1.932-.42.467-.28.7-.672.7-1.176 0-.43-.159-.765-.476-1.008-.317-.261-.859-.485-1.624-.672l-2.352-.532c-2.576-.56-3.864-1.876-3.864-3.948 0-.859.243-1.615.728-2.268.485-.672 1.167-1.195 2.044-1.568s1.895-.56 3.052-.56c1.008 0 1.979.159 2.912.476a7.442 7.442 0 012.464 1.316l-1.036 2.38C-8.221 9.623-9.677 9.1-11.17 9.1c-.803 0-1.428.15-1.876.448-.448.299-.672.71-.672 1.232 0 .41.13.737.392.98.28.243.747.448 1.4.616l2.408.532c1.4.317 2.417.812 3.052 1.484.653.653.98 1.512.98 2.576 0 1.307-.523 2.343-1.568 3.108-1.045.765-2.473 1.148-4.284 1.148zm31.451-9.583a.494.494 0 010 .718l-7.281 7.282a.494.494 0 01-.719 0l-.781-.782a.494.494 0 010-.718L17.472 12l-6.14-6.14a.494.494 0 010-.72l.781-.78a.494.494 0 01.719 0l7.281 7.28z" fill="#fff"/></g><defs><clipPath id="clip0"><path fill="#fff" d="M0 0h28v28H0z"/></clipPath></defs></svg>