<svg width="72" height="19" fill="none" xmlns="http://www.w3.org/2000/svg"><path d="M55.693 5.045h-3.652c-.215 0-.43.211-.537.422L50 14.73c0 .21.107.316.322.316h1.934c.215 0 .322-.106.322-.316l.43-2.632c0-.21.214-.42.537-.42h1.181c2.471 0 3.867-1.159 4.19-3.475.215-.947 0-1.79-.43-2.315-.644-.527-1.611-.843-2.793-.843zm.43 3.474c-.215 1.263-1.182 1.263-2.148 1.263h-.645l.43-2.42c0-.106.107-.211.322-.211h.215c.644 0 1.289 0 1.611.42.215.106.215.422.215.948z" fill="#139AD6"/><path d="M27.657 4.645H23.77c-.229 0-.457.229-.571.458L21.6 15.16c0 .228.114.343.342.343h1.829c.229 0 .457-.229.572-.458l.457-2.742c0-.229.228-.458.571-.458h1.257c2.629 0 4.114-1.257 4.457-3.771.229-1.029 0-1.943-.457-2.514-.686-.572-1.6-.915-2.971-.915zm.457 3.772c-.229 1.371-1.257 1.371-2.286 1.371h-.571l.457-2.628c0-.115.114-.229.343-.229h.228c.686 0 1.372 0 1.715.457.114.115.228.457.114 1.029zm11.314-.114H37.6c-.115 0-.343.114-.343.228l-.114.572-.115-.229c-.457-.571-1.257-.8-2.171-.8-2.057 0-3.886 1.6-4.229 3.771-.228 1.143.114 2.172.686 2.858.571.685 1.371.914 2.4.914 1.714 0 2.629-1.029 2.629-1.029l-.115.572c0 .228.114.343.343.343h1.714c.229 0 .458-.229.572-.458l1.028-6.4c-.114-.114-.343-.342-.457-.342zM36.8 11.96c-.229 1.028-1.029 1.828-2.172 1.828-.571 0-1.028-.228-1.257-.457-.229-.343-.343-.8-.343-1.371.114-1.029 1.029-1.829 2.057-1.829.572 0 .915.229 1.258.457.342.343.457.915.457 1.372z" fill="#263B80"/><path d="M67.51 8.288h-1.96c-.123 0-.368.121-.368.242l-.122.606-.123-.242c-.49-.606-1.347-.849-2.327-.849-2.206 0-4.166 1.697-4.533 4-.245 1.213.122 2.303.735 3.03.612.728 1.47.97 2.573.97 1.837 0 2.817-1.09 2.817-1.09l-.122.606c0 .242.122.363.367.363h1.838c.245 0 .49-.242.612-.485L68 8.652c-.123-.122-.245-.364-.49-.364zm-2.818 3.879c-.245 1.09-1.102 1.94-2.327 1.94-.613 0-1.103-.243-1.348-.486-.245-.363-.368-.848-.368-1.454.123-1.091 1.103-1.94 2.206-1.94.612 0 .98.243 1.347.485.49.364.613.97.49 1.455z" fill="#139AD6"/><path d="M49.714 8.045H47.79c-.226 0-.34.115-.453.23l-2.49 3.908-1.131-3.678c-.113-.23-.226-.345-.566-.345h-1.81c-.227 0-.34.23-.34.46l2.037 6.092-1.924 2.759c-.113.23 0 .575.227.575h1.81c.227 0 .34-.116.453-.23l6.224-9.08c.34-.346.113-.69-.113-.69z" fill="#263B80"/><path d="M69.556 5.321L68 15.7c0 .23.111.346.333.346h1.556c.222 0 .444-.231.555-.462L72 5.437c0-.231-.111-.346-.333-.346h-1.778c-.111-.116-.222 0-.333.23z" fill="#139AD6"/><path d="M13.064 1.398C12.269.496 10.792.045 8.747.045h-5.68c-.34 0-.681.338-.795.677L0 15.482c0 .338.227.564.454.564h3.522l.909-5.522v.226c.113-.338.454-.676.795-.676h1.704c3.294 0 5.793-1.352 6.589-5.07v-.339c-.114 0-.114 0 0 0 .113-1.465-.114-2.366-.91-3.267z" fill="#263B80"/><path d="M13.712 4.045v.353c-.755 4-3.13 5.295-6.259 5.295H5.834c-.323 0-.647.353-.755.705L4 17.575c0 .235.108.47.432.47h2.805c.324 0 .648-.235.648-.588v-.117l.54-3.647v-.236c0-.353.323-.588.647-.588h.431c2.698 0 4.856-1.176 5.396-4.706.216-1.412.108-2.706-.54-3.53a1.137 1.137 0 00-.647-.588z" fill="#139AD6"/><path d="M13 4.395c-.111 0-.222-.116-.333-.116-.111 0-.223 0-.334-.117-.444-.117-.889-.117-1.444-.117H6.556c-.112 0-.223 0-.334.117a.647.647 0 00-.333.583L5 10.812v.234c.111-.35.444-.7.778-.7h1.666c3.223 0 5.667-1.4 6.445-5.25 0-.117 0-.234.111-.35-.222-.117-.333-.234-.556-.234-.333-.117-.333-.117-.444-.117z" fill="#232C65"/></svg>