<?xml version="1.0" encoding="utf-8"?><svg viewBox="0 0 52 52" xmlns="http://www.w3.org/2000/svg" xmlns:xlink="http://www.w3.org/1999/xlink"><style>:root>svg{display:none}:root>svg:target{display:block}</style><svg  viewBox="0 0 25 25" id="cart" xmlns="http://www.w3.org/2000/svg"><path d="M14.583 20.833a2.084 2.084 0 100-4.167 2.084 2.084 0 000 4.167zm-7.291 0a2.083 2.083 0 100-4.166 2.083 2.083 0 000 4.166zM20.873 6.17a1.002 1.002 0 000-2.003h-1.199c-.94 0-1.752.652-1.956 1.568l-1.305 5.878a2.004 2.004 0 01-1.957 1.568H6.631L5.13 7.171h9.735a1.002 1.002 0 000-2.002H5.129a2.003 2.003 0 00-1.943 2.49l1.502 6.008a2.003 2.003 0 001.943 1.517h7.825a4.006 4.006 0 003.912-3.137l1.306-5.877h1.199z" /></svg><svg  viewBox="0 0 18 18" id="facebook" xmlns="http://www.w3.org/2000/svg"><path d="M16.816.504H1.184a.679.679 0 00-.68.68v15.632c0 .376.304.68.68.68h15.632c.375 0 .68-.304.68-.68V1.184a.679.679 0 00-.68-.68zm-1.963 4.96h-1.357c-1.064 0-1.27.505-1.27 1.249V8.35h2.54l-.331 2.564h-2.21v6.582H9.578v-6.58H7.362V8.35h2.215V6.46c0-2.194 1.34-3.39 3.299-3.39.938 0 1.743.07 1.98.102v2.292h-.003z" /></svg><svg  viewBox="0 0 18 18" id="instagram" xmlns="http://www.w3.org/2000/svg"><path d="M9 6.136A2.87 2.87 0 006.136 9 2.87 2.87 0 009 11.864 2.87 2.87 0 0011.864 9 2.87 2.87 0 009 6.136zM17.59 9c0-1.186.01-2.361-.056-3.545-.067-1.375-.38-2.595-1.386-3.6C15.14.846 13.922.534 12.547.468 11.36.402 10.186.413 9.002.413c-1.186 0-2.361-.011-3.545.056-1.375.066-2.595.38-3.6 1.385C.848 2.862.536 4.08.47 5.455.404 6.641.415 7.816.415 9c0 1.184-.011 2.361.056 3.545.066 1.375.38 2.595 1.385 3.6 1.008 1.008 2.226 1.32 3.601 1.387 1.186.066 2.361.055 3.545.055 1.186 0 2.361.011 3.545-.055 1.375-.067 2.595-.38 3.6-1.386 1.008-1.008 1.32-2.226 1.387-3.601.068-1.184.055-2.359.055-3.545zM9 13.406A4.4 4.4 0 014.593 9 4.4 4.4 0 019 4.594 4.4 4.4 0 0113.406 9 4.4 4.4 0 019 13.406zm4.587-7.964a1.028 1.028 0 110-2.058 1.028 1.028 0 110 2.058z" /></svg><svg  viewBox="0 0 19 19" id="search" xmlns="http://www.w3.org/2000/svg"><path d="M4.95 2.991a6.433 6.433 0 008.425 9.686l3.331 3.332h0a.892.892 0 101.262-1.262h0l-3.332-3.331a6.434 6.434 0 00-9.685-8.425zm0 0l.071.071-.07-.07zm7.839 1.263a4.65 4.65 0 11-6.523 6.63 4.65 4.65 0 016.523-6.63z"  stroke="#000" stroke-width=".2"/></svg><svg viewBox="0 0 52.001 52.001" id="x-icon" xmlns="http://www.w3.org/2000/svg"><path d="M47.743 41.758L33.955 26.001l13.788-15.758a6.001 6.001 0 00-8.486-8.485L26 16.91 12.743 1.758a6.001 6.001 0 00-8.486 8.485l13.788 15.758L4.257 41.758a6 6 0 108.486 8.485L26 35.091l13.257 15.152a6 6 0 108.486-8.485z" /></svg></svg>