<svg viewBox="0 0 32 32" xmlns="http://www.w3.org/2000/svg" xmlns:xlink="http://www.w3.org/1999/xlink"><style>:root&gt;svg{display:none}:root&gt;svg:target{display:block}</style><svg  viewBox="0 0 16 16" id="arrow-dpop-list" xmlns="http://www.w3.org/2000/svg"><path d="M10 7L8 9 6 7"/></svg><svg viewBox="0 0 25 25" id="cart" xmlns="http://www.w3.org/2000/svg"><path d="M14.583 20.833a2.084 2.084 0 100-4.167 2.084 2.084 0 000 4.167zm-7.291 0a2.083 2.083 0 100-4.166 2.083 2.083 0 000 4.166zM20.873 6.17a1.002 1.002 0 000-2.003h-1.199c-.94 0-1.752.652-1.956 1.568l-1.305 5.878a2.004 2.004 0 01-1.957 1.568H6.631L5.13 7.171h9.735a1.002 1.002 0 000-2.002H5.129a2.003 2.003 0 00-1.943 2.49l1.502 6.008a2.003 2.003 0 001.943 1.517h7.825a4.006 4.006 0 003.912-3.137l1.306-5.877h1.199z"/></svg><svg  viewBox="0 0 20 21" id="delite" xmlns="http://www.w3.org/2000/svg"><circle cx="10" cy="10.933" r="9.25"/><path d="M7 7.933l6.5 6.5m0-6.5l-6.5 6.5"/></svg><svg  viewBox="0 0 20 21" id="edit" xmlns="http://www.w3.org/2000/svg"><circle cx="10" cy="10.933" r="9.25"/><path d="M6.047 15.676h.056l2.564-.233a1.23 1.23 0 00.744-.351l5.534-5.534a1.18 1.18 0 00-.043-1.667l-1.685-1.685a1.23 1.23 0 00-1.636-.043l-5.534 5.535a1.23 1.23 0 00-.35.744l-.265 2.564a.615.615 0 00.615.67zm6.316-8.609l1.678 1.679-1.23 1.2-1.648-1.649 1.2-1.23zm-5.473 5.48l3.462-3.438 1.66 1.66-3.444 3.444-1.844.172.166-1.839z"/></svg><svg  viewBox="0 0 18 18" id="facebook" xmlns="http://www.w3.org/2000/svg"><path d="M16.816.504H1.184a.679.679 0 00-.68.68v15.632c0 .376.304.68.68.68h15.632a.68.68 0 00.68-.68V1.184a.679.679 0 00-.68-.68zm-1.963 4.96h-1.357c-1.064 0-1.27.505-1.27 1.249V8.35h2.54l-.331 2.564h-2.21v6.582H9.578v-6.58H7.362V8.35h2.215V6.46c0-2.194 1.34-3.39 3.299-3.39.938 0 1.743.07 1.98.102v2.292h-.003z" /></svg><svg  viewBox="0 0 30 30" id="favorites" xmlns="http://www.w3.org/2000/svg"><circle cx="15" cy="15" r="14"/><path d="M14.685 11.825l.71.717.71-.717c.674-.679 1.709-1.45 2.787-1.45 1.069 0 1.91.356 2.48.903.565.544.922 1.336.922 2.332 0 1.07-.43 1.982-1.165 2.866-.755.907-1.773 1.715-2.878 2.588l-.026.02c-.937.74-1.98 1.563-2.83 2.483-.84-.912-1.873-1.728-2.802-2.462l-.05-.04h-.001c-1.106-.874-2.123-1.683-2.878-2.59C8.93 15.593 8.5 14.68 8.5 13.61c0-.995.356-1.786.922-2.331.57-.547 1.411-.903 2.48-.903 1.077 0 2.11.77 2.783 1.45z"/></svg><svg  viewBox="0 0 32 32" id="grid" xmlns="http://www.w3.org/2000/svg"><path  d="M0 0h32v32H0z"/><path  stroke="#000" d="M6.9 6.9h3.571v3.571H6.9zm0 7.314h3.571v3.571H6.9zm0 7.315h3.571V25.1H6.9zm7.314-7.315h3.571v3.571h-3.571zm0 7.315h3.571V25.1h-3.571zm0-14.629h3.571v3.571h-3.571zm7.314 7.314h3.571v3.571h-3.571zm0 7.315h3.571V25.1h-3.571zm0-14.629h3.571v3.571h-3.571z"/></svg><svg  viewBox="0 0 18 18" id="instagram" xmlns="http://www.w3.org/2000/svg"><path d="M9 6.136A2.87 2.87 0 006.136 9 2.87 2.87 0 009 11.864 2.87 2.87 0 0011.864 9 2.87 2.87 0 009 6.136zM17.59 9c0-1.186.01-2.361-.056-3.545-.067-1.375-.38-2.595-1.386-3.6C15.14.846 13.922.534 12.547.468 11.36.402 10.186.413 9.002.413c-1.186 0-2.361-.011-3.545.056-1.375.066-2.595.38-3.6 1.385C.848 2.862.536 4.08.47 5.455.404 6.641.415 7.816.415 9c0 1.184-.011 2.361.056 3.545.066 1.375.38 2.595 1.385 3.6 1.008 1.008 2.226 1.32 3.601 1.387 1.186.066 2.361.055 3.545.055 1.186 0 2.361.011 3.545-.055 1.375-.067 2.595-.38 3.6-1.386 1.008-1.008 1.32-2.226 1.387-3.601.068-1.184.055-2.359.055-3.545zM9 13.406A4.4 4.4 0 014.593 9 4.4 4.4 0 019 4.594 4.4 4.4 0 0113.406 9 4.4 4.4 0 019 13.406zm4.587-7.964a1.028 1.028 0 110-2.058 1.028 1.028 0 110 2.058z" /></svg><svg  viewBox="0 0 32 32" id="list" xmlns="http://www.w3.org/2000/svg"><path  d="M0 0h32v32H0z"/><path  d="M4.571 21.029h9.143v2.743H4.571zm0-12.8h21.943v2.743H4.571zm0 6.4h16.457v2.743H4.571z"/></svg><svg  viewBox="0 0 19 19" id="search" xmlns="http://www.w3.org/2000/svg"><path d="M4.95 2.991a6.433 6.433 0 008.425 9.686l3.331 3.332h0a.892.892 0 101.262-1.262h0l-3.332-3.331a6.434 6.434 0 00-9.685-8.425zm0 0l.071.071-.07-.07zm7.839 1.263a4.65 4.65 0 11-6.523 6.63 4.65 4.65 0 016.523-6.63z"  stroke="#000" stroke-width=".2"/></svg><svg  viewBox="0 0 30 30" id="specifications" xmlns="http://www.w3.org/2000/svg"><circle cx="15" cy="15" r="14"/><path d="M10.379 21.088v-4.485m4.58 4.485V7.692m4.662 13.396v-8.841"/></svg></svg>