<?xml version="1.0" encoding="utf-8"?><svg viewBox="0 0 108 24" xmlns="http://www.w3.org/2000/svg" xmlns:xlink="http://www.w3.org/1999/xlink"><style>:root>svg{display:none}:root>svg:target{display:block}</style><svg viewBox="0 0 20 20" id="instagram" xmlns="http://www.w3.org/2000/svg"><path d="M5.8 0h8.4A5.8 5.8 0 0120 5.8v8.4a5.8 5.8 0 01-5.8 5.8H5.8A5.8 5.8 0 010 14.2V5.8A5.8 5.8 0 015.8 0zm-.2 2A3.6 3.6 0 002 5.6v8.8A3.6 3.6 0 005.6 18h8.8a3.6 3.6 0 003.6-3.6V5.6A3.6 3.6 0 0014.4 2H5.6zm9.65 1.5a1.25 1.25 0 110 2.5 1.25 1.25 0 010-2.5zM10 5a5 5 0 110 10 5 5 0 010-10zm0 2a3 3 0 100 6 3 3 0 000-6z"/></svg><svg viewBox="0 0 108 24" id="logo" xmlns="http://www.w3.org/2000/svg"><g clip-path="url(#bclip0)"><path d="M.96 23h8.896v-.448c-3.2-.416-4.16-1.76-4.16-4.992V2.872h.192l8.32 20.16h1.152l7.456-20.16h.16v17.856c0 1.28-.8 1.728-3.072 1.824V23h11.04v-.448c-2.688-.096-3.328-.608-3.328-1.824V2.968c0-1.216.64-1.76 3.328-1.856V.696h-8.16l-6.048 16.448h-.16L9.984.696H.96v.416c2.752.064 3.936 1.536 3.936 3.456V17.56c0 3.232-.928 4.608-3.936 4.992V23zM52.128 23.352h1.536V6.104c0-3.168.864-4.544 3.872-4.992V.696h-9.088v.416c3.232.384 4.416 1.824 4.416 4.992v10.624h-.032L40.512.696H32.96v.416c2.752.128 3.936 1.76 3.936 3.712V17.56c0 3.232-.928 4.608-3.936 4.992V23h9.024v-.448c-3.264-.352-4.288-1.76-4.288-4.992V4.728h.032l14.4 18.624zM63.6 23h12.096v-.448c-2.848-.064-3.712-.608-3.712-1.824V1.272h.768c2.464 0 4.384 2.464 6.624 6.816l.48-.064-.16-7.328H59.568l-.192 7.328.48.064c2.272-4.448 4.224-6.816 6.656-6.816h.8v19.456c0 1.216-.896 1.76-3.712 1.824V23zM102.128 23.352h1.536V6.104c0-3.168.864-4.544 3.872-4.992V.696h-9.088v.416c3.232.384 4.416 1.824 4.416 4.992v10.624h-.032L90.512.696H82.96v.416c2.752.128 3.936 1.76 3.936 3.712V17.56c0 3.232-.928 4.608-3.936 4.992V23h9.024v-.448c-3.264-.352-4.288-1.76-4.288-4.992V4.728h.032l14.4 18.624z"/></g><defs><clipPath id="bclip0"><path d="M0 0h108v24H0z"/></clipPath></defs></svg><svg viewBox="0 0 22 17" id="twitter" xmlns="http://www.w3.org/2000/svg"><path d="M21.46 2.012a8.58 8.58 0 01-2.466.676A4.305 4.305 0 0020.881.314a8.591 8.591 0 01-2.725 1.041 4.292 4.292 0 00-7.313 3.914A12.184 12.184 0 011.997.787a4.271 4.271 0 00-.581 2.157 4.29 4.29 0 001.91 3.572 4.276 4.276 0 01-1.945-.537v.054c0 2.08 1.48 3.814 3.443 4.209a4.296 4.296 0 01-1.939.073 4.296 4.296 0 004.01 2.98 8.61 8.61 0 01-5.33 1.838c-.347 0-.688-.02-1.024-.06A12.147 12.147 0 007.12 17c7.893 0 12.21-6.54 12.21-12.21 0-.187-.004-.372-.012-.556a8.719 8.719 0 002.141-2.222z"/></svg></svg>