<svg viewBox="0 0 32 32" xmlns="http://www.w3.org/2000/svg" xmlns:xlink="http://www.w3.org/1999/xlink"><style>:root&gt;svg{display:none}:root&gt;svg:target{display:block}</style><svg  viewBox="0 0 32 32" id="search" xmlns="http://www.w3.org/2000/svg"><g clip-path="url(#aclip0)"><path d="M20.64 22.911a12.8 12.8 0 112.256-2.256l8.56 8.528-2.272 2.272-8.528-8.544h-.016zM12.8 22.4a9.601 9.601 0 100-19.202 9.601 9.601 0 000 19.202z" /></g><defs><clipPath id="aclip0"><path  d="M0 0h32v32H0z"/></clipPath></defs></svg><svg  viewBox="0 0 32 32" id="shopping-cart" xmlns="http://www.w3.org/2000/svg"><path d="M6.4 3.2H32l-4.8 14.4H6.4a1.6 1.6 0 000 3.2h20.8V24H6.4a4.8 4.8 0 110-9.6h.528L4.8 8 3.2 3.2H0V0h4.8a1.6 1.6 0 011.6 1.6v1.6zM8 32a3.2 3.2 0 110-6.4A3.2 3.2 0 018 32zm16 0a3.2 3.2 0 110-6.4 3.2 3.2 0 010 6.4z" /></svg></svg>