<?xml version="1.0" standalone="no"?>
<!DOCTYPE svg PUBLIC "-//W3C//DTD SVG 20010904//EN"
 "http://www.w3.org/TR/2001/REC-SVG-20010904/DTD/svg10.dtd">
<svg version="1.0" xmlns="http://www.w3.org/2000/svg"
 width="314.000000pt" height="314.000000pt" viewBox="0 0 314.000000 314.000000"
 preserveAspectRatio="xMidYMid meet">
<metadata>
Created by potrace 1.11, written by Peter Selinger 2001-2013
</metadata>
<g transform="translate(0.000000,314.000000) scale(0.100000,-0.100000)"
fill="#000000" stroke="none">
<path d="M1542 3047 c-12 -6 -86 -50 -164 -97 -79 -47 -152 -90 -163 -96 -24
-13 -117 -69 -165 -99 -19 -12 -152 -91 -295 -175 -143 -84 -306 -180 -361
-213 l-101 -60 0 -467 0 -467 51 -30 c56 -32 712 -421 976 -578 91 -54 185
-110 209 -123 l44 -25 46 25 c25 13 249 140 497 281 248 141 458 259 467 263
15 6 17 -7 17 -130 l0 -135 -27 -16 c-16 -9 -41 -24 -58 -35 -16 -10 -41 -25
-55 -33 -14 -7 -167 -98 -340 -202 -173 -104 -367 -219 -431 -257 l-117 -69
-333 202 c-184 111 -378 228 -432 260 -53 33 -110 67 -126 77 -17 9 -108 64
-203 121 -95 57 -176 106 -180 108 -4 2 -6 -72 -5 -164 l2 -168 105 -61 c58
-33 236 -137 395 -229 160 -93 400 -233 534 -311 l244 -142 56 33 c31 18 207
120 391 227 297 173 629 366 760 442 25 14 51 30 58 34 12 7 17 381 12 889 l0
51 -505 -294 c-277 -162 -508 -294 -512 -294 -9 0 -11 275 -3 284 3 2 232 140
510 306 278 166 506 303 507 304 2 2 5 203 4 278 l-1 46 -147 88 c-82 49 -157
94 -168 100 -41 23 -94 54 -245 144 -85 51 -168 101 -185 110 -16 9 -86 51
-155 92 -271 162 -368 218 -376 218 -5 0 -19 -6 -32 -13z"/>
</g>
</svg>
